<?xml version="1.0" encoding="UTF-8"?>
<!DOCTYPE svg PUBLIC "-//W3C//DTD SVG 1.1//EN" "http://www.w3.org/Graphics/SVG/1.1/DTD/svg11.dtd">
<!-- Creator: CorelDRAW X7 -->
<svg xmlns="http://www.w3.org/2000/svg" xml:space="preserve" width="140.98mm" height="33.1304mm" version="1.1" style="shape-rendering:geometricPrecision; text-rendering:geometricPrecision; image-rendering:optimizeQuality; fill-rule:evenodd; clip-rule:evenodd"
viewBox="0 0 6077 1428"
 xmlns:xlink="http://www.w3.org/1999/xlink">
 <defs>
  <style type="text/css">
   <![CDATA[
    .str0 {stroke:black;stroke-width:26.0894}
    .fil0 {fill:none}
    .fil1 {fill:none;fill-rule:nonzero}
    .fil3 {fill:black}
    .fil2 {fill:black;fill-rule:nonzero}
    .fil4 {fill:url(#id0);fill-rule:nonzero}
    .fil5 {fill:url(#id1);fill-rule:nonzero}
    .fil6 {fill:url(#id2);fill-rule:nonzero}
   ]]>
  </style>
  <linearGradient id="id0" gradientUnits="userSpaceOnUse" x1="2073.09" y1="857.338" x2="1539.13" y2="1305.62">
   <stop offset="0" style="stop-opacity:1; stop-color:#00BDF4"/>
   <stop offset="0.509804" style="stop-opacity:1; stop-color:#4B6CDD"/>
   <stop offset="1" style="stop-opacity:1; stop-color:#971AC6"/>
  </linearGradient>
  <linearGradient id="id1" gradientUnits="userSpaceOnUse" x1="1723.73" y1="292.019" x2="1563.37" y2="479.576">
   <stop offset="0" style="stop-opacity:1; stop-color:#00BDF4"/>
   <stop offset="0.458824" style="stop-opacity:1; stop-color:#641CF4"/>
   <stop offset="1" style="stop-opacity:1; stop-color:#FF1FD6"/>
  </linearGradient>
  <linearGradient id="id2" gradientUnits="userSpaceOnUse" xlink:href="#id1" x1="2059.06" y1="329.071" x2="1403.92" y2="1099.14">
  </linearGradient>
 </defs>
 <g id="Layer_x0020_1">
  <metadata id="CorelCorpID_0Corel-Layer"/>
  <rect class="fil0" width="6077" height="1428"/>
  <g id="_1514813463232">
   <g>
    <g>
     <path class="fil1 str0" d="M2844 507l-42 0c-68,0 -123,-23 -164,-67 -37,-40 -56,-88 -56,-143 0,-55 19,-103 55,-143 41,-45 97,-67 166,-67l41 0 0 52 -35 0c-44,0 -81,12 -112,34 -31,23 -49,53 -56,90l203 0 0 53 -203 0c4,40 21,73 49,99 29,26 65,39 109,39l45 0 0 53z"/>
    </g>
    <g>
     <path id="1" class="fil1 str0" d="M3119 507l-51 0c-18,0 -35,-2 -49,-4 -14,-3 -27,-9 -40,-18 -22,-15 -38,-35 -47,-61 -6,-19 -9,-40 -9,-65l0 -272 56 0 0 272c0,15 1,28 4,37 4,16 11,29 22,39 9,8 20,14 32,17 7,1 17,2 30,2l52 0 0 53z"/>
    </g>
    <g>
     <path id="2" class="fil1 str0" d="M3423 507l-42 0c-68,0 -123,-23 -164,-67 -37,-40 -55,-88 -55,-143 0,-55 18,-103 54,-143 42,-45 97,-67 167,-67l40 0 0 52 -35 0c-44,0 -81,12 -112,34 -30,23 -49,53 -55,90l202 0 0 53 -202 0c4,40 20,73 49,99 29,26 65,39 108,39l45 0 0 53z"/>
    </g>
    <g>
     <path id="3" class="fil1 str0" d="M3753 507l-39 0c-40,0 -73,-5 -99,-15 -41,-15 -73,-43 -97,-83 -9,-16 -17,-34 -22,-53 -5,-20 -7,-40 -7,-59 0,-41 10,-77 30,-109 17,-26 40,-48 68,-65 19,-12 40,-21 63,-27 23,-6 47,-9 71,-9l32 0 0 52 -40 0c-35,0 -66,9 -94,27 -23,15 -41,34 -53,56 -12,23 -18,48 -18,75 0,17 2,33 6,49 4,16 11,30 20,44 17,25 39,43 66,53 18,7 41,11 67,11l46 0 0 53z"/>
    </g>
    <g>
     <polygon id="4" class="fil1 str0" points="4056,139 3952,139 3952,507 3896,507 3896,139 3792,139 3792,87 4056,87 "/>
    </g>
    <g>
     <path id="5" class="fil1 str0" d="M4390 507l-56 0 0 -111c0,-30 -9,-50 -26,-62 -12,-7 -27,-11 -46,-11l-70 0 0 -53 48 0c30,0 53,-7 68,-22 13,-12 19,-27 19,-46 0,-17 -5,-31 -14,-43 -7,-8 -15,-15 -25,-19 -10,-4 -22,-7 -34,-7 -10,0 -17,1 -21,2 -4,0 -9,2 -15,6 -21,9 -34,24 -41,46 -4,12 -6,31 -6,55l0 265 -57 0 0 -266c0,-31 3,-56 9,-74 10,-29 28,-51 55,-68 10,-6 22,-11 35,-14 13,-3 27,-4 41,-4 25,0 49,6 70,18 17,9 31,21 41,36 12,19 18,40 18,65 0,16 -2,30 -6,42 -8,22 -22,39 -42,51 23,8 39,23 47,43 6,13 8,33 8,60l0 111z"/>
    </g>
    <g>
     <path id="6" class="fil1 str0" d="M4893 297c0,59 -22,110 -65,153 -44,42 -95,63 -154,63 -58,0 -110,-21 -153,-63 -43,-43 -65,-94 -65,-153 0,-60 22,-111 65,-153 43,-42 95,-63 153,-63 59,0 110,21 154,63 43,42 65,93 65,153zm-59 0c0,-45 -15,-83 -46,-115 -30,-33 -68,-49 -114,-49 -45,0 -83,16 -113,49 -31,32 -46,70 -46,115 0,45 15,83 46,115 30,32 68,48 113,48 46,0 84,-16 114,-48 31,-32 46,-70 46,-115z"/>
    </g>
    <g>
     <path id="7" class="fil1 str0" d="M3070 848c0,36 -3,62 -10,80 -10,30 -30,52 -60,67 -18,8 -38,12 -60,12 -14,0 -28,-2 -43,-6 -14,-4 -27,-10 -37,-18 -10,-7 -19,-18 -27,-31 -8,12 -17,23 -28,31 -11,8 -23,14 -37,18 -15,4 -28,6 -42,6 -22,0 -43,-4 -61,-12 -29,-15 -49,-37 -59,-67 -7,-19 -10,-46 -10,-80l0 -267 56 0 0 271c0,24 1,40 4,50 4,18 14,31 30,41 7,4 13,7 20,9 6,1 14,2 22,2 17,0 32,-4 44,-11 16,-10 25,-24 29,-40 2,-9 3,-26 3,-51l0 -271 57 0 0 271c0,25 1,42 3,50 4,17 14,31 29,41 12,7 26,11 44,11 16,0 31,-3 42,-11 16,-9 26,-23 30,-40 3,-11 4,-28 4,-51l0 -271 57 0 0 267z"/>
    </g>
    <g>
     <path id="8" class="fil1 str0" d="M3663 791c0,60 -22,111 -65,153 -44,42 -95,63 -154,63 -58,0 -110,-21 -153,-63 -43,-42 -65,-93 -65,-153 0,-60 22,-111 65,-153 43,-42 95,-63 153,-63 59,0 110,21 154,63 43,42 65,93 65,153zm-59 0c0,-45 -15,-83 -46,-115 -30,-32 -68,-48 -114,-48 -45,0 -83,16 -113,48 -31,32 -46,70 -46,115 0,45 15,83 46,115 30,32 68,48 113,48 46,0 84,-16 114,-48 31,-32 46,-70 46,-115z"/>
    </g>
    <g>
     <path id="9" class="fil1 str0" d="M4095 1001l-56 0 0 -111c0,-30 -9,-50 -27,-62 -11,-7 -26,-11 -45,-11l-70 0 0 -52 47 0c31,0 54,-8 69,-23 12,-12 18,-27 18,-46 0,-17 -4,-31 -13,-42 -7,-9 -16,-15 -26,-20 -10,-4 -21,-6 -34,-6 -10,0 -17,0 -20,1 -4,1 -9,3 -16,6 -20,9 -34,25 -41,46 -4,13 -6,31 -6,55l0 265 -56 0 0 -266c0,-31 3,-56 9,-74 10,-28 28,-51 55,-67 10,-7 22,-12 35,-15 13,-3 26,-4 40,-4 26,0 49,6 71,18 17,10 30,22 40,37 13,18 19,40 19,64 0,16 -2,30 -7,42 -7,22 -21,39 -42,51 24,9 39,23 48,43 5,14 8,34 8,60l0 111z"/>
    </g>
    <g>
     <path id="10" class="fil1 str0" d="M4448 1001l-52 0c-18,0 -34,-1 -48,-4 -14,-3 -28,-9 -41,-18 -22,-14 -37,-35 -46,-61 -7,-19 -10,-40 -10,-65l0 -272 57 0 0 272c0,16 1,28 3,38 4,15 12,28 22,38 10,8 20,14 32,17 7,1 17,2 30,2l53 0 0 53z"/>
    </g>
    <g>
     <path id="11" class="fil1 str0" d="M4893 791c0,34 -7,66 -22,95 -16,32 -39,59 -68,79 -34,24 -72,36 -113,36l-29 0 0 -53 22 0c47,0 84,-16 112,-48 26,-30 39,-67 39,-109 0,-42 -13,-78 -39,-107 -30,-34 -70,-50 -122,-50l-36 0 0 367 -56 0 0 -420 86 0c42,0 78,6 107,19 42,19 74,50 97,96 15,29 22,61 22,95z"/>
    </g>
    <path id="12" class="fil2" d="M2844 507l-42 0c-68,0 -123,-23 -164,-67 -37,-40 -56,-88 -56,-143 0,-55 19,-103 55,-143 41,-45 97,-67 166,-67l41 0 0 52 -35 0c-44,0 -81,12 -112,34 -31,23 -49,53 -56,90l203 0 0 53 -203 0c4,40 21,73 49,99 29,26 65,39 109,39l45 0 0 53z"/>
    <path id="13" class="fil2" d="M3119 507l-51 0c-18,0 -35,-2 -49,-4 -14,-3 -27,-9 -40,-18 -22,-15 -38,-35 -47,-61 -6,-19 -9,-40 -9,-65l0 -272 56 0 0 272c0,15 1,28 4,37 4,16 11,29 22,39 9,8 20,14 32,17 7,1 17,2 30,2l52 0 0 53z"/>
    <path id="14" class="fil2" d="M3423 507l-42 0c-68,0 -123,-23 -164,-67 -37,-40 -55,-88 -55,-143 0,-55 18,-103 54,-143 42,-45 97,-67 167,-67l40 0 0 52 -35 0c-44,0 -81,12 -112,34 -30,23 -49,53 -55,90l202 0 0 53 -202 0c4,40 20,73 49,99 29,26 65,39 108,39l45 0 0 53z"/>
    <path id="15" class="fil2" d="M3753 507l-39 0c-40,0 -73,-5 -99,-15 -41,-15 -73,-43 -97,-83 -9,-16 -17,-34 -22,-53 -5,-20 -7,-40 -7,-59 0,-41 10,-77 30,-109 17,-26 40,-48 68,-65 19,-12 40,-21 63,-27 23,-6 47,-9 71,-9l32 0 0 52 -40 0c-35,0 -66,9 -94,27 -23,15 -41,34 -53,56 -12,23 -18,48 -18,75 0,17 2,33 6,49 4,16 11,30 20,44 17,25 39,43 66,53 18,7 41,11 67,11l46 0 0 53z"/>
    <polygon id="16" class="fil2" points="4056,139 3952,139 3952,507 3896,507 3896,139 3792,139 3792,87 4056,87 "/>
    <path id="17" class="fil2" d="M4390 507l-56 0 0 -111c0,-30 -9,-50 -26,-62 -12,-7 -27,-11 -46,-11l-70 0 0 -53 48 0c30,0 53,-7 68,-22 13,-12 19,-27 19,-46 0,-17 -5,-31 -14,-43 -7,-8 -15,-15 -25,-19 -10,-4 -22,-7 -34,-7 -10,0 -17,1 -21,2 -4,0 -9,2 -15,6 -21,9 -34,24 -41,46 -4,12 -6,31 -6,55l0 265 -57 0 0 -266c0,-31 3,-56 9,-74 10,-29 28,-51 55,-68 10,-6 22,-11 35,-14 13,-3 27,-4 41,-4 25,0 49,6 70,18 17,9 31,21 41,36 12,19 18,40 18,65 0,16 -2,30 -6,42 -8,22 -22,39 -42,51 23,8 39,23 47,43 6,13 8,33 8,60l0 111z"/>
    <path id="18" class="fil2" d="M4893 297c0,59 -22,110 -65,153 -44,42 -95,63 -154,63 -58,0 -110,-21 -153,-63 -43,-43 -65,-94 -65,-153 0,-60 22,-111 65,-153 43,-42 95,-63 153,-63 59,0 110,21 154,63 43,42 65,93 65,153zm-59 0c0,-45 -15,-83 -46,-115 -30,-33 -68,-49 -114,-49 -45,0 -83,16 -113,49 -31,32 -46,70 -46,115 0,45 15,83 46,115 30,32 68,48 113,48 46,0 84,-16 114,-48 31,-32 46,-70 46,-115z"/>
    <path id="19" class="fil2" d="M3070 848c0,36 -3,62 -10,80 -10,30 -30,52 -60,67 -18,8 -38,12 -60,12 -14,0 -28,-2 -43,-6 -14,-4 -27,-10 -37,-18 -10,-7 -19,-18 -27,-31 -8,12 -17,23 -28,31 -11,8 -23,14 -37,18 -15,4 -28,6 -42,6 -22,0 -43,-4 -61,-12 -29,-15 -49,-37 -59,-67 -7,-19 -10,-46 -10,-80l0 -267 56 0 0 271c0,24 1,40 4,50 4,18 14,31 30,41 7,4 13,7 20,9 6,1 14,2 22,2 17,0 32,-4 44,-11 16,-10 25,-24 29,-40 2,-9 3,-26 3,-51l0 -271 57 0 0 271c0,25 1,42 3,50 4,17 14,31 29,41 12,7 26,11 44,11 16,0 31,-3 42,-11 16,-9 26,-23 30,-40 3,-11 4,-28 4,-51l0 -271 57 0 0 267z"/>
    <path id="20" class="fil2" d="M3663 791c0,60 -22,111 -65,153 -44,42 -95,63 -154,63 -58,0 -110,-21 -153,-63 -43,-42 -65,-93 -65,-153 0,-60 22,-111 65,-153 43,-42 95,-63 153,-63 59,0 110,21 154,63 43,42 65,93 65,153zm-59 0c0,-45 -15,-83 -46,-115 -30,-32 -68,-48 -114,-48 -45,0 -83,16 -113,48 -31,32 -46,70 -46,115 0,45 15,83 46,115 30,32 68,48 113,48 46,0 84,-16 114,-48 31,-32 46,-70 46,-115z"/>
    <path id="21" class="fil2" d="M4095 1001l-56 0 0 -111c0,-30 -9,-50 -27,-62 -11,-7 -26,-11 -45,-11l-70 0 0 -52 47 0c31,0 54,-8 69,-23 12,-12 18,-27 18,-46 0,-17 -4,-31 -13,-42 -7,-9 -16,-15 -26,-20 -10,-4 -21,-6 -34,-6 -10,0 -17,0 -20,1 -4,1 -9,3 -16,6 -20,9 -34,25 -41,46 -4,13 -6,31 -6,55l0 265 -56 0 0 -266c0,-31 3,-56 9,-74 10,-28 28,-51 55,-67 10,-7 22,-12 35,-15 13,-3 26,-4 40,-4 26,0 49,6 71,18 17,10 30,22 40,37 13,18 19,40 19,64 0,16 -2,30 -7,42 -7,22 -21,39 -42,51 24,9 39,23 48,43 5,14 8,34 8,60l0 111z"/>
    <path id="22" class="fil2" d="M4448 1001l-52 0c-18,0 -34,-1 -48,-4 -14,-3 -28,-9 -41,-18 -22,-14 -37,-35 -46,-61 -7,-19 -10,-40 -10,-65l0 -272 57 0 0 272c0,16 1,28 3,38 4,15 12,28 22,38 10,8 20,14 32,17 7,1 17,2 30,2l53 0 0 53z"/>
    <path id="23" class="fil2" d="M4893 791c0,34 -7,66 -22,95 -16,32 -39,59 -68,79 -34,24 -72,36 -113,36l-29 0 0 -53 22 0c47,0 84,-16 112,-48 26,-30 39,-67 39,-109 0,-42 -13,-78 -39,-107 -30,-34 -70,-50 -122,-50l-36 0 0 367 -56 0 0 -420 86 0c42,0 78,6 107,19 42,19 74,50 97,96 15,29 22,61 22,95z"/>
    <path class="fil2" d="M3395 1242l-80 0 0 102 -32 0 0 -157c0,-22 5,-39 14,-52 14,-17 37,-26 70,-26l28 0 0 29 -32 0c-14,0 -25,2 -32,7 -11,7 -16,21 -16,41l0 26 80 0 0 30z"/>
    <path id="1" class="fil2" d="M3636 1344l-118 0c-12,0 -21,-1 -25,-2 -10,-4 -15,-11 -15,-23 0,-6 2,-12 5,-19 2,-3 5,-8 10,-14l106 -148 -108 0 0 -29 105 0c12,0 20,0 24,2 9,4 13,11 13,21 0,4 -1,8 -2,12 -2,5 -6,12 -13,21l-106 150 124 0 0 29z"/>
    <path id="2" class="fil2" d="M3856 1344l-22 0c-22,0 -40,-3 -55,-8 -23,-9 -41,-24 -54,-47 -6,-9 -10,-19 -13,-30 -3,-11 -4,-22 -4,-33 0,-22 6,-43 17,-61 10,-14 22,-27 38,-36 10,-7 22,-12 35,-15 13,-4 27,-5 40,-5l18 0 0 29 -22 0c-20,0 -37,5 -53,15 -13,8 -23,19 -30,32 -7,12 -10,26 -10,41 0,10 1,19 4,28 2,9 6,17 11,25 9,14 22,24 37,30 10,4 23,6 37,6l26 0 0 29z"/>
    <path id="3" class="fil2" d="M4192 1226c0,34 -12,62 -36,86 -25,24 -53,36 -86,36 -33,0 -62,-12 -86,-36 -25,-24 -37,-52 -37,-86 0,-33 12,-62 37,-85 24,-24 53,-36 86,-36 33,0 61,12 86,36 24,23 36,52 36,85zm-33 0c0,-25 -9,-46 -26,-64 -17,-18 -38,-27 -63,-27 -26,0 -47,9 -64,27 -17,18 -26,39 -26,64 0,26 9,47 26,65 17,18 38,27 64,27 25,0 46,-9 63,-27 17,-18 26,-39 26,-65z"/>
    <rect class="fil3" x="4321" y="1214" width="572.069" height="25.1559"/>
    <rect class="fil3" x="2582" y="1214" width="572.069" height="25.1559"/>
   </g>
   <g>
    <path class="fil4" d="M2171 971l-18 -35 155 16 -87 131 -16 -32c-88,48 -300,138 -564,176 -115,17 -209,9 -258,-14 -51,-24 -69,-56 -76,-85 -11,-49 8,-91 48,-122l9 16c-34,37 -47,95 33,133 128,60 535,-57 774,-184zm-706 -27c27,-13 43,-17 43,-17 0,0 -16,10 -38,25l-5 -8z"/>
    <polygon class="fil5" points="1751,342 1679,441 1655,475 1620,523 1632,481 1639,454 1651,412 1553,434 1686,230 1651,357 "/>
    <path class="fil6" d="M1761 1239c20,-5 41,-10 61,-15l10 -3 11 18c3,4 8,14 13,22 10,-18 22,-35 33,-53l2 -4 5 -2c30,-8 59,-18 88,-28l35 -13 -19 30c-10,17 -21,34 -30,51 -6,9 -12,19 -18,29 -11,18 -21,35 -32,53 -11,18 -23,36 -34,54 -4,7 -16,26 -21,30l-11 9 -9 -11c-9,-11 -18,-27 -26,-40 -7,-12 -14,-25 -21,-36l-54 -88 17 -3zm518 -562l-176 284 -1 4 -4 1c-32,16 -65,30 -98,44l-38 16 248 -396 69 47zm-719 455l-21 1c-23,2 -47,3 -70,4l-8 0 -277 -457 68 -44 308 496zm51 132c26,-3 52,-7 77,-11l29 -5 -112 180 -12 -15c-11,-13 -20,-28 -29,-43 -7,-13 -15,-27 -23,-40 -8,-13 -16,-27 -25,-41l-12 -19 23 -1c22,0 44,-1 67,-3l8 -1 1 1 1 -1 7 -1zm179 -199c-1,3 -7,11 -7,14l0 8 -9 3c-29,8 -58,15 -88,21l-31 7c77,-112 149,-236 220,-352 -103,40 -202,38 -299,2l139 211 -48 75c-81,-134 -165,-294 -261,-410 -5,-5 -9,-10 -13,-15l-15 -19c-4,-6 -7,-11 -11,-17 -39,-63 -57,-131 -57,-203 0,-70 18,-138 56,-200 38,-60 91,-107 158,-141 166,-84 299,-48 457,18l11 4 -27 63 -13 -7c-146,-72 -307,-89 -441,12 -70,52 -103,131 -115,210l198 0 -47 68 -153 0c25,284 395,432 616,150l5 -6 90 4c-10,48 -41,81 -74,117 -8,9 -15,19 -22,29 -9,13 -17,26 -25,40 -65,104 -129,209 -194,314zm-28 -716l67 0 0 68 -120 0 53 -68z"/>
   </g>
  </g>
 </g>
</svg>
