<?xml version="1.0" encoding="UTF-8"?>
<!DOCTYPE svg PUBLIC "-//W3C//DTD SVG 1.1//EN" "http://www.w3.org/Graphics/SVG/1.1/DTD/svg11.dtd">
<!-- Creator: CorelDRAW X7 -->
<svg xmlns="http://www.w3.org/2000/svg" xml:space="preserve" width="38.1mm" height="13.5468mm" version="1.1" style="shape-rendering:geometricPrecision; text-rendering:geometricPrecision; image-rendering:optimizeQuality; fill-rule:evenodd; clip-rule:evenodd"
viewBox="0 0 645 229"
 xmlns:xlink="http://www.w3.org/1999/xlink">
 <defs>
  <style type="text/css">
   <![CDATA[
    .fil5 {fill:none}
    .fil4 {fill:black}
    .fil3 {fill:black;fill-rule:nonzero}
    .fil1 {fill:url(#id0);fill-rule:nonzero}
    .fil2 {fill:url(#id1);fill-rule:nonzero}
    .fil0 {fill:url(#id2);fill-rule:nonzero}
   ]]>
  </style>
  <linearGradient id="id0" gradientUnits="userSpaceOnUse" x1="118.72" y1="49.8128" x2="94.0832" y2="78.6278">
   <stop offset="0" style="stop-opacity:1; stop-color:#00BDF4"/>
   <stop offset="0.458824" style="stop-opacity:1; stop-color:#641CF4"/>
   <stop offset="1" style="stop-opacity:1; stop-color:#FF1FD6"/>
  </linearGradient>
  <linearGradient id="id1" gradientUnits="userSpaceOnUse" xlink:href="#id0" x1="170.241" y1="55.5023" x2="69.5831" y2="173.82">
  </linearGradient>
  <linearGradient id="id2" gradientUnits="userSpaceOnUse" x1="172.4" y1="136.668" x2="90.3557" y2="205.545">
   <stop offset="0" style="stop-opacity:1; stop-color:#00BDF4"/>
   <stop offset="0.509804" style="stop-opacity:1; stop-color:#4B6CDD"/>
   <stop offset="1" style="stop-opacity:1; stop-color:#971AC6"/>
  </linearGradient>
 </defs>
 <g id="Layer_x0020_1">
  <metadata id="CorelCorpID_0Corel-Layer"/>
  <g id="_1514153784944">
   <g>
    <g>
     <path class="fil0" d="M187 154l-2 -5 24 2 -14 20 -2 -5c-14,8 -46,22 -87,28 -18,2 -32,1 -40,-3 -8,-3 -10,-8 -11,-13 -2,-7 1,-14 7,-18l1 2c-5,6 -7,15 6,20 19,10 82,-8 118,-28zm-108 -4c4,-2 7,-3 7,-3 0,0 -3,2 -6,4l-1 -1z"/>
     <polygon class="fil1" points="123,57 112,73 108,78 103,85 105,79 106,75 107,68 92,72 113,40 108,60 "/>
     <path class="fil2" d="M124 195c4,0 7,-1 10,-2l1 0 2 2c0,1 1,2 2,4 2,-3 3,-6 5,-8l0 -1 1 0c5,-2 9,-3 14,-5l5 -2 -3 5c-1,3 -3,5 -5,8 0,1 -1,3 -2,4 -2,3 -3,6 -5,8 -2,3 -4,6 -5,9 -1,1 -3,4 -4,4l-1 2 -2 -2c-1,-2 -2,-4 -4,-6 -1,-2 -2,-4 -3,-6l-8 -13 2 -1zm80 -86l-27 44 0 0 -1 0c-5,3 -10,5 -15,7l-6 3 38 -61 11 7zm-110 70l-4 0c-3,0 -7,1 -10,1l-2 0 -42 -71 10 -6 48 76zm7 20c4,0 8,-1 12,-2l5 0 -17 27 -2 -2c-2,-2 -3,-4 -5,-7 -1,-2 -2,-4 -3,-6 -2,-2 -3,-4 -4,-6l-2 -3 3 0c4,0 7,0 11,-1l1 0 0 0 0 0 1 0zm28 -30c0,0 -1,1 -1,2l0 1 -2 0c-4,2 -8,3 -13,4l-5 1c12,-18 23,-37 34,-54 -16,6 -31,5 -46,0l21 32 -7 12c-12,-21 -25,-45 -40,-63 -1,-1 -1,-2 -2,-2l-2 -3c-1,-1 -2,-2 -2,-3 -6,-10 -9,-20 -9,-31 0,-11 3,-21 9,-31 6,-9 14,-16 24,-21 25,-13 46,-8 70,2l2 1 -4 10 -2 -1c-23,-12 -47,-14 -68,1 -11,8 -16,20 -18,33l31 0 -7 10 -24 0c4,44 61,66 95,23l0 -1 14 1c-1,7 -6,12 -11,18 -1,1 -2,3 -3,4 -2,2 -3,4 -4,6 -10,16 -20,33 -30,49zm-4 -110l10 0 0 10 -19 0 9 -10z"/>
    </g>
    <g>
     <g>
      <path class="fil3" d="M297 97l6 0 0 4 -6 0 0 0 0 -4zm-26 -7l3 -3 0 0 0 1 1 1 0 0 1 1 1 0 0 1 1 0 0 1 1 0 1 0 0 1 1 0 1 1 0 0 1 0 1 1 1 0 0 0 1 0 1 1 1 0 0 0 1 0 1 0 1 0 1 1 0 0 1 0 1 0 1 0 1 0 1 0 0 4 -1 0 -1 0 -1 0 -1 0 -1 0 -1 -1 -1 0 -1 0 -1 0 -1 0 0 0 -1 -1 -1 0 -1 0 -1 -1 -1 0 0 0 -1 -1 -1 0 -1 0 -1 -1 0 0 -1 -1 -1 0 -1 -1 0 0 -1 -1 -1 0 0 -1 -1 -1 -1 0 0 -1 0 0zm-9 -23l4 0 0 0 0 1 0 1 0 1 0 0 0 1 0 1 0 0 0 1 1 1 0 0 0 1 0 1 0 0 0 1 1 1 0 0 0 1 0 1 1 0 0 1 0 0 1 1 0 0 0 1 1 1 0 0 0 1 1 0 0 1 1 0 0 1 1 0 -3 3 -1 0 0 -1 -1 -1 0 0 -1 -1 0 -1 -1 0 0 -1 0 -1 -1 0 0 -1 0 -1 -1 0 0 -1 0 -1 -1 0 0 -1 0 -1 0 0 -1 -1 0 -1 0 -1 0 0 0 -1 0 -1 -1 -1 0 -1 0 0 0 -1 0 -1 0 -1 0 -1 0 0zm9 -22l3 3 0 0 -1 0 0 1 -1 0 0 1 -1 0 0 1 0 0 -1 1 0 0 0 1 -1 1 0 0 0 1 -1 0 0 1 0 1 0 0 -1 1 0 1 0 0 0 1 0 0 0 1 -1 1 0 1 0 0 0 1 0 1 0 0 0 1 0 1 0 0 -4 0 0 0 0 -1 0 -1 0 -1 0 -1 0 0 1 -1 0 -1 0 -1 0 0 0 -1 0 -1 1 -1 0 0 0 -1 0 -1 1 0 0 -1 0 -1 0 -1 1 0 0 -1 1 -1 0 0 0 -1 1 0 0 -1 1 -1 0 0 1 -1 0 -1 1 0 0 0zm26 -11l0 4 0 0 -1 0 -1 0 -1 0 -1 0 0 0 -1 0 -1 0 -1 1 -1 0 -1 0 0 0 -1 0 -1 1 -1 0 0 0 -1 0 -1 1 -1 0 0 0 -1 1 -1 0 0 1 -1 0 -1 0 0 1 -1 0 0 1 -1 0 -1 1 0 0 -1 1 0 1 -3 -3 0 -1 1 0 1 -1 0 -1 1 0 1 -1 0 0 1 -1 1 0 1 -1 0 0 1 -1 1 0 1 0 0 -1 1 0 1 -1 1 0 1 0 1 0 1 -1 0 0 1 0 1 0 1 0 1 -1 1 0 1 0 1 0 1 0 1 0 1 0 0 0zm6 4l-6 0 0 -4 6 0 2 2 -2 2zm0 -4l2 0 0 2 -2 -2zm-2 10l0 -8 4 0 0 8 -2 2 -2 -2zm4 0l0 2 -2 0 2 -2zm-7 -2l5 0 0 4 -5 0 0 0 0 -4zm-16 9l-2 -4 0 0 0 0 1 0 0 -1 1 0 0 0 1 0 0 -1 1 0 0 0 1 0 1 -1 0 0 1 0 0 0 1 0 0 -1 1 0 0 0 1 0 1 0 0 0 1 0 0 -1 1 0 0 0 1 0 1 0 0 0 1 0 1 0 0 0 1 0 0 4 -1 0 0 0 -1 0 0 0 -1 0 -1 0 0 0 -1 0 0 0 -1 0 0 0 -1 1 0 0 -1 0 0 0 -1 0 0 0 -1 0 0 1 -1 0 0 0 0 0 -1 0 0 1 -1 0 0 0 -1 0 0 0 0 1 -1 0 0 0 -1 1 0 0zm-9 9l0 4 -2 -2 0 0 0 -1 0 -1 0 0 1 -1 0 0 0 -1 0 0 0 -1 0 0 1 -1 0 0 0 -1 0 0 1 -1 0 0 0 -1 1 0 0 -1 0 0 1 0 0 -1 0 0 1 -1 0 0 0 0 1 -1 0 0 1 -1 0 0 1 0 0 -1 2 4 0 0 0 0 -1 0 0 1 -1 0 0 0 0 1 -1 0 0 0 0 1 0 0 -1 0 0 1 0 0 0 1 -1 0 0 0 0 1 0 0 -1 0 0 1 0 0 0 1 0 0 0 1 -1 0 0 0 0 1 0 0 0 1 0 0 0 1 -2 -3zm0 4l-2 0 0 -2 2 2zm30 0l-30 0 0 -4 30 0 2 2 -2 2zm0 -4l2 0 0 2 -2 -2zm-2 10l0 -8 4 0 0 8 -2 2 -2 -2zm4 0l0 2 -2 0 2 -2zm-32 -2l30 0 0 4 -30 0 -2 -1 2 -3zm-2 3l0 -3 2 0 -2 3zm10 13l-2 3 0 0 -1 -1 0 0 0 -1 -1 0 0 0 -1 -1 0 0 0 -1 -1 0 0 -1 0 0 -1 -1 0 0 0 -1 0 0 -1 -1 0 0 0 -1 0 0 -1 -1 0 0 0 -1 0 0 0 -1 0 0 -1 -1 0 -1 0 0 0 -1 0 0 0 -1 0 0 4 -1 0 1 0 0 0 1 0 0 0 1 0 0 0 1 1 0 0 1 0 0 0 0 0 1 0 0 0 1 1 0 0 1 0 0 0 0 1 1 0 0 0 1 0 0 1 0 0 1 0 0 0 1 1 0 0 0 0 1 1 0 0 0 0 1 0 0zm15 5l0 4 0 0 0 0 -1 0 -1 0 0 0 -1 0 0 0 -1 0 -1 0 0 -1 -1 0 0 0 -1 0 -1 0 0 0 -1 0 0 -1 -1 0 0 0 -1 0 0 -1 -1 0 0 0 -1 0 0 -1 -1 0 0 0 -1 -1 0 0 -1 0 0 -1 -1 0 0 0 2 -3 1 0 0 0 1 1 0 0 0 0 1 0 0 1 1 0 0 0 0 0 1 1 0 0 1 0 0 0 1 0 0 1 1 0 0 0 1 0 0 0 1 0 0 0 1 1 0 0 1 0 0 0 1 0 0 0 1 0 0 0 1 0 0 0 0 0zm7 4l-7 0 0 -4 7 0 2 2 -2 2zm0 -4l2 0 0 2 -2 -2zm-2 10l0 -8 4 0 0 8 -2 2 -2 -2zm4 0l0 2 -2 0 2 -2z"/>
     </g>
     <g>
      <path id="1" class="fil3" d="M337 97l7 0 0 4 -7 0 0 0 0 -4zm-8 3l1 -4 0 0 0 0 0 0 0 0 0 0 1 0 0 0 0 1 0 0 0 0 1 0 0 0 0 0 0 0 0 0 1 0 0 0 0 0 0 0 1 0 0 0 0 0 0 0 0 0 1 0 0 0 0 0 0 0 1 0 0 0 0 0 0 0 1 0 0 4 -1 0 0 0 0 0 0 0 -1 0 0 0 0 0 0 0 -1 0 0 0 0 0 0 0 -1 0 0 0 0 0 0 0 -1 0 0 0 0 0 0 0 -1 -1 0 0 0 0 0 0 -1 0 0 0 0 0 0 0 0 0 -1 0 0 0 0 0 0 0zm-7 -3l2 -3 0 0 0 0 1 0 0 0 0 0 0 1 0 0 0 0 1 0 0 0 0 0 0 0 0 0 0 0 1 0 0 0 0 0 0 1 0 0 0 0 1 0 0 0 0 0 0 0 0 0 1 0 0 0 0 0 0 0 0 0 0 0 1 0 0 0 -1 4 0 0 0 0 -1 0 0 0 0 0 0 0 -1 0 0 0 0 0 0 0 0 -1 -1 0 0 0 0 0 0 0 -1 0 0 0 0 0 0 0 0 0 -1 0 0 -1 0 0 0 0 0 0 -1 0 0 0 0 0 0 0 0 -1 -1 0 0 0 0 0zm-8 -10l4 -1 0 0 0 0 0 0 1 1 0 0 0 0 0 1 0 0 0 0 0 1 1 0 0 0 0 0 0 1 0 0 0 0 1 0 0 1 0 0 0 0 0 0 1 1 0 0 0 0 0 0 1 1 0 0 0 0 0 0 1 0 0 1 0 0 0 0 -2 3 0 0 -1 0 0 0 0 -1 0 0 -1 0 0 -1 0 0 -1 0 0 0 0 -1 -1 0 0 0 0 -1 0 0 -1 0 0 0 0 -1 0 0 0 0 -1 -1 0 0 0 -1 0 0 0 0 -1 -1 0 0 0 0 0 -1 0 0 0 -1 -1 0 0 0zm-1 -10l4 0 0 0 0 0 0 0 0 1 0 0 0 0 0 1 0 0 0 0 0 1 0 0 0 0 0 0 0 1 0 0 0 0 0 1 0 0 0 0 0 0 0 1 0 0 0 0 1 1 0 0 0 0 0 0 0 1 0 0 0 0 0 0 0 1 0 0 -4 1 0 0 0 0 0 -1 0 0 0 0 0 -1 0 0 0 0 0 -1 0 0 0 0 0 -1 -1 0 0 0 0 0 0 -1 0 0 0 0 0 -1 0 0 0 0 0 -1 0 0 0 0 0 -1 0 0 0 0 0 -1 0 0 0 -1 0 0 0 0 0 0zm4 -41l0 41 -4 0 0 -41 2 -2 2 2zm-4 0l0 -2 2 0 -2 2zm10 2l-8 0 0 -4 8 0 2 2 -2 2zm0 -4l2 0 0 2 -2 -2zm-2 43l0 -41 4 0 0 41 0 0 -4 0zm5 5l-4 1 0 0 0 0 0 -1 0 0 0 0 0 0 0 0 0 0 0 -1 0 0 0 0 0 0 0 0 0 0 0 -1 0 0 0 0 -1 0 0 0 0 -1 0 0 0 0 0 0 0 0 0 -1 0 0 0 0 0 0 0 0 0 -1 0 0 0 0 0 0 4 0 0 0 0 0 0 0 0 1 0 0 0 0 0 0 0 0 0 0 0 1 0 0 0 0 0 0 0 0 0 1 0 0 0 0 0 0 0 0 0 0 0 0 0 1 1 0 0 0 0 0 0 0 0 0 0 0 0 1 0 0 0 0 0 0 0 0zm2 5l-2 3 0 0 0 -1 -1 0 0 0 0 0 0 0 0 -1 0 0 0 0 -1 0 0 0 0 0 0 -1 0 0 0 0 0 0 -1 -1 0 0 0 0 0 0 0 0 0 -1 0 0 0 0 0 0 -1 0 0 -1 0 0 0 0 0 0 0 -1 0 0 0 0 4 -1 0 0 0 0 0 0 0 1 0 0 0 0 0 0 0 0 0 0 0 1 0 0 0 0 1 0 0 0 0 0 0 1 0 0 0 0 0 0 0 0 0 0 0 0 0 1 1 0 0 0 0 0 0 0 0 0 0 0 0 0 0 1 0 0 0 0zm4 2l-1 3 0 0 0 0 0 0 0 0 0 0 0 0 -1 0 0 0 0 0 0 0 0 0 -1 0 0 0 0 0 0 0 0 -1 -1 0 0 0 0 0 0 0 0 0 0 0 -1 0 0 0 0 0 0 -1 0 0 0 0 -1 0 0 0 0 0 0 0 0 0 2 -3 1 0 0 0 0 0 0 0 0 0 0 0 0 0 0 0 0 0 1 0 0 1 0 0 0 0 0 0 0 0 0 0 0 0 1 0 0 0 0 0 0 0 0 0 0 0 0 0 0 0 1 0 0 0 0 1 0 0 0 0 0 0 0 0 0 0zm4 0l0 4 0 0 0 0 0 0 0 0 0 0 -1 0 0 0 0 0 0 0 0 0 0 0 -1 0 0 0 0 0 0 0 0 0 0 0 0 0 -1 0 0 0 0 0 0 0 0 0 0 0 0 0 -1 0 0 0 0 0 0 0 0 0 0 0 0 0 -1 -1 1 -3 0 0 1 0 0 0 0 0 0 0 0 0 0 0 0 0 0 0 0 0 0 0 1 0 0 0 0 0 0 0 0 0 0 0 0 0 0 0 1 0 0 0 0 0 0 0 0 0 0 0 0 0 1 0 0 0 0 0 0 0 0 0 0 0 0 0zm8 4l-8 0 0 -4 8 0 2 2 -2 2zm0 -4l2 0 0 2 -2 -2zm-2 10l0 -8 4 0 0 8 -2 2 -2 -2zm4 0l0 2 -2 0 2 -2z"/>
     </g>
     <g>
      <path id="2" class="fil3" d="M383 97l7 0 0 4 -7 0 0 0 0 -4zm-26 -7l3 -3 0 0 1 1 0 1 1 0 1 1 0 0 1 1 0 0 1 1 1 0 0 0 1 1 1 0 0 1 1 0 1 0 0 1 1 0 1 0 1 0 0 1 1 0 1 0 1 0 0 0 1 0 1 1 1 0 1 0 1 0 1 0 0 0 1 0 0 4 -1 0 -1 0 -1 0 -1 0 0 0 -1 -1 -1 0 -1 0 -1 0 -1 0 -1 0 -1 -1 -1 0 -1 0 0 -1 -1 0 -1 0 -1 -1 -1 0 0 0 -1 -1 -1 0 -1 -1 0 0 -1 -1 -1 0 0 -1 -1 0 -1 -1 0 -1 -1 0 -1 -1 0 0zm-8 -23l4 0 0 0 0 1 0 1 0 1 0 0 0 1 0 1 0 0 0 1 0 1 0 0 0 1 1 1 0 0 0 1 0 1 0 0 1 1 0 1 0 0 1 1 0 0 0 1 1 0 0 1 0 1 1 0 0 1 0 0 1 1 0 0 1 1 0 0 -3 3 0 0 -1 -1 0 -1 -1 0 0 -1 -1 -1 0 0 0 -1 -1 -1 0 0 -1 -1 0 -1 0 0 -1 -1 0 -1 0 0 0 -1 -1 -1 0 0 0 -1 0 -1 -1 -1 0 0 0 -1 0 -1 0 -1 0 -1 0 0 0 -1 0 -1 0 -1 0 -1 0 0zm8 -22l3 3 0 0 0 0 -1 1 0 0 -1 1 0 0 0 1 -1 0 0 1 -1 0 0 1 0 1 0 0 -1 1 0 0 0 1 -1 1 0 0 0 1 0 1 0 0 -1 1 0 0 0 1 0 1 0 1 0 0 0 1 0 1 0 0 0 1 0 1 0 0 -4 0 0 0 0 -1 0 -1 0 -1 0 -1 0 0 0 -1 0 -1 0 -1 0 0 1 -1 0 -1 0 -1 0 0 1 -1 0 -1 0 0 0 -1 1 -1 0 -1 0 0 1 -1 0 -1 1 0 0 -1 0 0 1 -1 0 -1 1 0 0 -1 1 -1 0 0 0 0zm27 -11l0 4 0 0 -1 0 -1 0 -1 0 -1 0 -1 0 -1 0 -1 0 0 1 -1 0 -1 0 -1 0 -1 0 0 1 -1 0 -1 0 -1 0 0 1 -1 0 -1 0 -1 1 0 0 -1 1 -1 0 0 0 -1 1 0 0 -1 1 -1 0 0 1 -1 0 0 1 -1 1 -3 -3 1 -1 1 0 0 -1 1 -1 1 0 0 -1 1 0 1 -1 0 0 1 -1 1 0 1 -1 0 0 1 0 1 -1 1 0 1 -1 0 0 1 0 1 0 1 -1 1 0 1 0 1 0 1 0 1 -1 1 0 1 0 1 0 1 0 1 0 1 0 0 0zm6 4l-6 0 0 -4 6 0 2 2 -2 2zm0 -4l2 0 0 2 -2 -2zm-2 10l0 -8 4 0 0 8 -2 2 -2 -2zm4 0l0 2 -2 0 2 -2zm-8 -2l6 0 0 4 -6 0 0 0 0 -4zm-15 9l-2 -4 0 0 0 0 0 0 1 -1 0 0 1 0 0 0 1 -1 0 0 1 0 0 0 1 -1 1 0 0 0 1 0 0 0 1 -1 0 0 1 0 0 0 1 0 1 0 0 0 1 -1 0 0 1 0 1 0 0 0 1 0 0 0 1 0 1 0 0 0 0 4 0 0 -1 0 0 0 -1 0 0 0 -1 0 -1 0 0 0 -1 0 0 0 -1 0 0 1 -1 0 0 0 -1 0 0 0 -1 0 0 0 -1 1 0 0 0 0 -1 0 0 0 -1 1 0 0 -1 0 0 0 -1 0 0 1 0 0 -1 0 0 1 0 0zm-10 9l0 4 -2 -2 1 0 0 -1 0 -1 0 0 0 -1 0 0 0 -1 1 0 0 -1 0 0 0 -1 0 0 1 -1 0 0 0 -1 0 0 1 -1 0 0 0 -1 1 0 0 0 0 -1 1 0 0 -1 1 0 0 0 0 -1 1 0 0 -1 1 0 0 0 1 -1 2 4 -1 0 0 0 0 0 -1 1 0 0 0 0 -1 1 0 0 0 0 -1 1 0 0 0 0 0 1 -1 0 0 1 0 0 0 0 -1 1 0 0 0 0 0 1 0 0 -1 1 0 0 0 1 0 0 0 0 0 1 0 0 -1 1 0 0 0 1 -2 -3zm0 4l-2 0 0 -2 2 2zm31 0l-31 0 0 -4 31 0 2 2 -2 2zm0 -4l2 0 0 2 -2 -2zm-2 10l0 -8 4 0 0 8 -2 2 -2 -2zm4 0l0 2 -2 0 2 -2zm-33 -2l31 0 0 4 -31 0 -2 -1 2 -3zm-2 3l0 -3 2 0 -2 3zm11 13l-3 3 0 0 0 -1 0 0 -1 -1 0 0 -1 0 0 -1 0 0 -1 -1 0 0 0 -1 -1 0 0 -1 0 0 -1 -1 0 0 0 -1 0 0 -1 -1 0 0 0 -1 0 0 0 -1 -1 0 0 -1 0 0 0 -1 0 -1 0 0 0 -1 0 0 -1 -1 0 0 4 -1 0 1 0 0 0 1 1 0 0 1 0 0 0 1 0 0 0 1 0 0 0 0 1 1 0 0 0 1 0 0 0 1 1 0 0 0 0 1 0 0 1 1 0 0 0 0 0 1 1 0 0 1 0 0 1 0 0 1 0 0 1 0 0 1 0 0zm15 5l0 4 0 0 -1 0 0 0 -1 0 -1 0 0 0 -1 0 0 0 -1 0 -1 -1 0 0 -1 0 0 0 -1 0 -1 0 0 0 -1 -1 0 0 -1 0 0 0 -1 -1 0 0 -1 0 0 0 -1 -1 0 0 -1 0 0 -1 -1 0 0 0 -1 -1 0 0 -1 0 3 -3 0 0 1 0 0 1 1 0 0 0 0 0 1 1 0 0 1 0 0 0 0 1 1 0 0 0 1 0 0 0 1 1 0 0 1 0 0 0 1 0 0 0 1 0 0 1 1 0 0 0 1 0 0 0 1 0 0 0 1 0 0 0 1 0 0 0zm7 4l-7 0 0 -4 7 0 2 2 -2 2zm0 -4l2 0 0 2 -2 -2zm-2 10l0 -8 4 0 0 8 -2 2 -2 -2zm4 0l0 2 -2 0 2 -2z"/>
     </g>
     <g>
      <path id="3" class="fil3" d="M433 97l6 0 0 4 -6 0 0 0 0 -4zm-15 1l1 -3 0 0 0 0 1 0 0 0 0 0 1 0 0 0 0 1 1 0 0 0 1 0 0 0 0 0 1 0 0 0 1 0 0 0 1 0 0 0 1 1 0 0 0 0 1 0 0 0 1 0 0 0 1 0 0 0 1 0 0 0 1 0 1 0 0 0 0 4 -1 0 0 0 -1 0 0 0 -1 0 0 0 -1 0 0 0 -1 0 0 0 -1 0 0 -1 -1 0 0 0 -1 0 0 0 -1 0 0 0 -1 0 0 0 -1 0 0 0 -1 0 0 -1 -1 0 0 0 0 0 -1 0 0 0 -1 0 0 0 0 -1 0 0zm-16 -13l3 -2 0 0 1 1 0 0 0 1 1 0 0 1 1 0 0 1 0 0 1 1 0 0 0 0 1 1 0 0 1 1 0 0 0 0 1 1 0 0 1 0 0 1 1 0 0 0 0 1 1 0 0 0 1 0 0 1 1 0 0 0 1 0 0 1 1 0 -1 3 -1 0 -1 0 0 0 -1 -1 0 0 -1 0 0 0 -1 -1 -1 0 0 0 -1 -1 0 0 -1 -1 0 0 -1 0 0 -1 -1 0 0 -1 -1 0 0 0 0 -1 -1 0 0 -1 -1 0 0 -1 -1 0 0 -1 0 -1 -1 0 0 -1 0 0 -1 -1 0 0zm-3 -8l3 -1 0 0 1 0 0 0 0 1 0 0 0 0 0 0 0 1 0 0 0 0 0 0 0 1 0 0 0 0 1 0 0 0 0 1 0 0 0 0 0 0 0 1 0 0 0 0 0 0 1 1 0 0 0 0 0 0 0 0 0 1 0 0 0 0 0 0 -3 2 0 0 0 0 0 -1 0 0 -1 0 0 0 0 -1 0 0 0 0 0 0 0 -1 0 0 -1 0 0 0 0 -1 0 0 0 0 0 0 0 -1 0 0 0 0 0 0 -1 -1 0 0 0 0 0 -1 0 0 0 0 0 0 0 -1 0 0 0 0 0 0zm-2 -10l4 0 0 0 0 1 0 0 0 0 0 0 0 1 0 0 0 0 0 1 0 0 0 0 1 0 0 1 0 0 0 0 0 0 0 1 0 0 0 0 0 0 0 1 0 0 0 0 0 0 0 1 0 0 0 0 0 0 0 1 0 0 0 0 0 0 0 1 -3 1 0 -1 0 0 -1 0 0 0 0 -1 0 0 0 0 0 -1 0 0 0 0 0 0 0 -1 0 0 0 0 0 -1 0 0 0 0 0 0 0 -1 0 0 0 0 0 -1 0 0 0 0 0 -1 0 0 0 0 -1 0 0 -1 0 0 0 0 0 -1 0 0zm5 -17l4 2 0 0 -1 1 0 0 0 1 0 0 -1 0 0 1 0 0 0 1 0 0 -1 1 0 0 0 1 0 0 0 0 0 1 -1 0 0 1 0 0 0 1 0 0 0 1 0 0 0 1 0 0 0 1 0 0 -1 1 0 0 0 1 0 0 0 1 0 0 -4 0 0 0 0 -1 1 0 0 -1 0 0 0 -1 0 -1 0 0 0 -1 0 0 0 -1 0 0 0 -1 0 -1 1 0 0 -1 0 0 0 -1 0 0 0 -1 1 0 0 -1 0 0 0 -1 0 0 1 -1 0 0 0 -1 0 0 1 -1 0 0 0 -1 0 0zm11 -10l2 3 0 0 0 0 -1 1 0 0 0 0 -1 0 0 1 0 0 -1 0 0 0 0 1 -1 0 0 0 0 0 -1 1 0 0 0 0 -1 1 0 0 0 0 0 0 -1 1 0 0 0 0 0 1 -1 0 0 0 0 1 0 0 -1 0 0 1 0 0 0 0 -4 -2 1 0 0 -1 0 0 0 0 1 -1 0 0 0 0 1 -1 0 0 0 -1 0 0 1 0 0 -1 0 0 1 0 0 -1 0 0 1 0 0 -1 0 0 1 0 0 0 0 -1 1 0 0 0 1 -1 0 0 0 0 1 0 0 -1 1 0 0 0 0 0zm10 -4l1 3 0 0 0 0 -1 0 0 1 0 0 -1 0 0 0 0 0 0 0 -1 0 0 0 0 0 -1 0 0 1 0 0 0 0 -1 0 0 0 0 0 -1 0 0 0 0 1 0 0 -1 0 0 0 0 0 0 0 -1 0 0 0 0 1 0 0 -1 0 0 0 -2 -3 0 0 1 -1 0 0 0 0 0 0 1 0 0 0 0 -1 1 0 0 0 0 0 1 0 0 0 0 0 0 -1 1 0 0 0 0 0 1 0 0 0 0 0 1 0 0 -1 0 0 1 0 0 0 0 0 1 0 0 0 0 0 1 0 0 0 0 0zm11 -2l0 4 0 0 0 0 -1 0 0 0 0 0 -1 0 0 0 0 0 -1 0 0 0 0 0 0 0 -1 0 0 0 0 0 -1 0 0 0 0 0 -1 0 0 0 0 1 -1 0 0 0 0 0 -1 0 0 0 0 0 -1 0 0 0 0 0 0 0 -1 0 0 0 -1 -3 0 -1 1 0 0 0 0 0 1 0 0 0 0 0 1 0 0 0 0 0 1 0 0 0 0 0 1 0 0 0 0 -1 1 0 0 0 0 0 1 0 0 0 1 0 0 0 0 0 1 0 0 0 0 0 1 0 0 0 0 0 1 0 0 0 0 0zm5 4l-5 0 0 -4 5 0 2 2 -2 2zm0 -4l2 0 0 2 -2 -2zm-2 10l0 -8 4 0 0 8 -2 2 -2 -2zm4 0l0 2 -2 0 2 -2zm-8 -2l6 0 0 4 -6 0 0 0 0 -4zm-13 8l-2 -4 0 0 0 0 1 0 0 0 1 -1 0 0 0 0 1 0 0 -1 1 0 0 0 1 0 0 0 1 0 0 -1 0 0 1 0 0 0 1 0 0 0 1 0 0 0 1 -1 0 0 1 0 0 0 1 0 0 0 1 0 0 0 1 0 0 0 1 0 0 4 -1 0 0 0 0 0 -1 0 0 0 -1 0 0 0 -1 0 0 0 0 0 -1 0 0 0 -1 1 0 0 -1 0 0 0 0 0 -1 0 0 0 -1 0 0 0 0 1 -1 0 0 0 -1 0 0 0 0 1 -1 0 0 0 0 0 -1 0 0 1 0 0zm-7 7l-4 -2 0 0 0 0 1 0 0 -1 0 0 0 0 0 -1 1 0 0 0 0 -1 0 0 1 0 0 0 0 -1 0 0 1 0 0 -1 0 0 0 0 1 -1 0 0 0 0 1 0 0 -1 0 0 1 0 0 0 0 -1 0 0 1 0 0 0 0 -1 1 0 2 4 0 0 -1 0 0 0 0 0 -1 1 0 0 0 0 0 0 -1 0 0 1 0 0 0 0 -1 0 0 1 0 0 0 0 -1 0 0 0 0 1 0 0 0 0 -1 1 0 0 0 0 0 0 0 1 0 0 -1 0 0 0 0 1 0 0 0 0 0 0zm-3 10l-4 0 0 0 0 0 0 0 0 -1 0 0 0 -1 0 0 0 0 0 -1 0 0 1 -1 0 0 0 0 0 -1 0 0 0 0 0 -1 0 0 0 -1 0 0 0 0 1 -1 0 0 0 0 0 -1 0 0 0 0 0 -1 1 0 0 -1 0 0 0 0 0 -1 4 2 0 1 -1 0 0 0 0 0 0 1 0 0 0 0 0 1 -1 0 0 0 0 1 0 0 0 0 0 1 0 0 0 0 0 0 0 1 0 0 0 0 -1 1 0 0 0 0 0 1 0 0 0 0 0 1 0 0 0 0 0 1 0 0 0 0 0 0zm1 7l-4 1 0 0 0 0 0 0 0 0 0 -1 0 0 0 0 0 0 0 -1 0 0 0 0 0 0 0 -1 0 0 0 0 0 0 0 -1 -1 0 0 0 0 0 0 -1 0 0 0 0 0 0 0 -1 0 0 0 0 0 0 0 -1 0 0 0 0 0 0 0 -1 4 0 0 1 0 0 0 0 0 0 0 1 0 0 0 0 0 0 0 0 0 1 0 0 0 0 0 0 0 1 0 0 0 0 0 0 0 0 0 1 1 0 0 0 0 0 0 0 0 1 0 0 0 0 0 0 0 0 0 1 0 0 0 0 0 0 0 0zm3 6l-3 2 0 0 -1 0 0 0 0 0 0 0 0 -1 0 0 0 0 -1 0 0 0 0 -1 0 0 0 0 0 0 0 -1 0 0 0 0 0 0 -1 0 0 -1 0 0 0 0 0 0 0 -1 0 0 0 0 0 0 0 -1 0 0 -1 0 0 0 0 0 0 -1 4 -1 0 0 0 1 0 0 0 0 0 0 0 0 0 1 1 0 0 0 0 0 0 0 0 1 0 0 0 0 0 0 0 0 0 1 0 0 0 0 1 0 0 0 0 0 0 1 0 0 0 0 0 0 0 0 0 1 0 0 1 0 0 0 0 0 0 0zm9 8l-2 3 0 0 0 0 -1 0 0 0 0 -1 -1 0 0 0 -1 0 0 0 0 -1 -1 0 0 0 0 0 -1 0 0 -1 0 0 -1 0 0 -1 0 0 -1 0 0 0 0 -1 -1 0 0 0 0 -1 -1 0 0 0 0 -1 0 0 -1 0 0 -1 0 0 0 -1 3 -2 0 1 0 0 0 0 1 1 0 0 0 0 0 0 1 1 0 0 0 0 0 0 1 1 0 0 0 0 0 0 1 1 0 0 0 0 1 0 0 1 0 0 0 0 1 0 0 0 0 0 1 1 0 0 0 0 1 0 0 0 0 0 1 1 0 0zm9 1l0 4 0 0 0 0 -1 0 0 0 -1 0 0 0 0 0 -1 0 0 0 0 0 -1 0 0 0 0 0 -1 0 0 0 0 0 -1 -1 0 0 0 0 -1 0 0 0 0 0 -1 0 0 0 0 0 -1 0 0 0 0 0 -1 0 0 -1 0 0 0 0 -1 0 2 -3 0 0 0 0 0 0 1 0 0 0 0 0 0 0 1 0 0 0 0 0 0 0 1 0 0 0 0 1 1 0 0 0 0 0 0 0 1 0 0 0 0 0 1 0 0 0 0 0 1 0 0 0 0 0 1 0 0 0 0 0 1 0 0 0 0 0zm7 4l-7 0 0 -4 7 0 2 2 -2 2zm0 -4l2 0 0 2 -2 -2zm-2 10l0 -8 4 0 0 8 -2 2 -2 -2zm4 0l0 2 -2 0 2 -2z"/>
     </g>
     <g>
      <path id="4" class="fil3" d="M469 42l15 0 0 4 -15 0 -2 -2 2 -2zm-2 2l0 -2 2 0 -2 2zm0 55l0 -55 4 0 0 55 -2 2 -2 -2zm4 0l0 2 -2 0 2 -2zm-11 -2l9 0 0 4 -9 0 -2 -2 2 -2zm0 4l-2 0 0 -2 2 2zm2 -57l0 55 -4 0 0 -55 2 -2 2 2zm-2 -2l2 0 0 2 -2 -2zm-15 0l15 0 0 4 -15 0 -2 -2 2 -2zm0 4l-2 0 0 -2 2 2zm2 -10l0 8 -4 0 0 -8 2 -2 2 2zm-4 0l0 -2 2 0 -2 2zm41 2l-39 0 0 -4 39 0 2 2 -2 2zm0 -4l2 0 0 2 -2 -2zm-2 10l0 -8 4 0 0 8 -2 2 -2 -2zm4 0l0 2 -2 0 2 -2z"/>
     </g>
     <g>
      <path id="5" class="fil3" d="M526 97l8 0 0 4 -8 0 -2 -2 2 -2zm0 4l-2 0 0 -2 2 2zm2 -19l0 17 -4 0 0 -17 0 0 4 0zm-7 -7l2 -4 0 0 0 1 0 0 1 0 0 0 0 1 0 0 1 0 0 0 0 1 0 0 1 0 0 1 0 0 0 0 0 1 0 0 1 0 0 1 0 0 0 0 0 1 0 0 0 0 0 1 0 0 0 1 0 0 1 0 0 1 0 0 0 1 0 0 -4 0 0 0 0 0 0 -1 0 0 0 -1 0 0 0 0 -1 0 0 -1 0 0 0 0 0 -1 0 0 0 0 0 0 0 -1 0 0 0 0 0 0 -1 0 0 -1 0 0 0 0 0 0 0 0 0 -1 -1 0 0 0 0 0 0 0 0 0 0 0 0 0zm-6 -2l0 -4 0 0 0 0 0 0 1 0 0 0 0 0 1 1 0 0 0 0 0 0 1 0 0 0 0 0 0 0 1 0 0 0 0 0 0 0 1 0 0 0 0 0 0 0 1 0 0 0 0 1 0 0 1 0 0 0 0 0 0 0 0 0 1 0 0 0 -2 4 0 0 -1 0 0 -1 0 0 0 0 0 0 0 0 0 0 -1 0 0 0 0 0 0 0 0 0 0 0 -1 0 0 0 0 0 0 0 0 0 0 0 -1 0 0 -1 0 0 0 0 0 0 -1 0 0 0 0 0 0 0 -1 0 0 0 0 0 0 0zm-11 -4l11 0 0 4 -11 0 -1 -2 1 -2zm0 4l-1 0 0 -2 1 2zm2 -9l0 7 -3 0 0 -7 1 -2 2 2zm-3 0l0 -2 1 0 -1 2zm9 1l-8 0 0 -3 8 0 0 0 0 3zm8 -6l3 3 0 0 0 0 0 0 -1 0 0 1 0 0 -1 0 0 0 0 0 0 1 -1 0 0 0 0 0 -1 0 0 0 0 0 -1 1 0 0 -1 0 0 0 0 0 -1 0 0 0 -1 0 0 0 0 0 -1 0 0 0 -1 0 0 0 -1 0 0 0 0 0 0 -3 0 0 0 0 1 0 0 0 0 -1 1 0 0 0 1 0 0 0 0 0 0 0 1 0 0 0 0 0 1 0 0 0 0 0 0 0 1 0 0 -1 0 0 0 0 1 0 0 0 0 0 0 0 1 0 0 -1 0 0 0 0 0 0 0 0 0 0zm3 -6l4 0 0 0 0 1 0 0 0 0 -1 0 0 1 0 0 0 0 0 1 0 0 0 0 0 0 0 1 0 0 0 0 0 1 0 0 0 0 -1 0 0 1 0 0 0 0 0 0 0 1 0 0 -1 0 0 0 0 1 0 0 0 0 0 0 -1 0 0 1 -3 -3 1 0 0 0 0 -1 0 0 0 0 0 0 0 0 0 0 0 0 1 -1 0 0 0 0 0 0 0 0 0 0 0 -1 0 0 0 0 0 0 0 0 0 0 0 -1 0 0 0 0 1 0 0 0 0 -1 0 0 0 0 0 0 0 0 0 -1 0 0zm-2 -5l3 -2 0 0 0 0 0 0 0 0 1 1 0 0 0 0 0 0 0 0 0 1 0 0 0 0 1 0 0 1 0 0 0 0 0 0 0 0 0 1 0 0 0 0 0 0 0 1 0 0 0 0 0 0 0 1 0 0 0 0 1 0 0 1 0 0 0 0 -4 0 0 0 0 0 0 0 0 0 0 -1 0 0 0 0 0 0 -1 0 0 -1 0 0 0 0 0 0 0 0 0 0 0 -1 0 0 0 0 0 0 0 0 0 0 0 0 0 -1 0 0 0 0 0 0 -1 0 0 0 0 0 0 -1 0 0 0 0 0 0zm-3 -2l2 -4 0 0 0 0 0 0 0 0 0 1 0 0 1 0 0 0 0 0 0 0 0 0 0 0 0 0 1 0 0 1 0 0 0 0 0 0 0 0 0 0 1 0 0 0 0 0 0 1 0 0 0 0 0 0 0 0 1 0 0 0 0 0 0 1 0 0 -3 2 0 0 0 0 0 0 0 0 0 0 0 0 -1 0 0 -1 0 0 0 0 0 0 0 0 0 0 0 0 0 0 0 0 0 0 -1 0 0 0 0 0 0 -1 0 0 0 0 0 0 0 0 0 0 0 0 -1 0 0 0 0 0 0 0 0 0 0 0zm-4 -1l0 -4 0 0 0 0 0 0 0 0 0 0 1 0 0 0 0 0 0 0 0 0 1 0 0 0 0 0 0 0 0 0 1 0 0 0 0 0 0 0 0 1 0 0 1 0 0 0 0 0 0 0 0 0 1 0 0 0 0 0 0 0 0 0 0 0 1 0 -2 4 0 0 0 0 0 0 -1 0 0 0 0 0 0 0 0 -1 0 0 0 0 0 0 0 0 -1 0 0 0 0 0 0 0 0 0 0 0 0 0 -1 0 0 0 0 0 0 0 0 0 0 0 0 0 -1 0 0 0 0 0 0 0 0 0 0 0 0 0zm-3 0l-1 -4 0 0 0 0 0 0 0 0 0 0 1 0 0 0 0 0 0 0 0 0 0 0 0 0 0 0 0 0 0 0 1 0 0 0 0 0 0 0 0 0 0 0 0 0 0 0 0 0 1 0 0 0 0 0 0 0 0 0 0 0 0 0 1 0 0 0 0 4 0 0 -1 0 0 0 0 0 0 0 0 0 0 0 0 0 0 0 -1 0 0 0 0 0 0 0 0 0 0 0 0 0 0 0 0 0 0 0 0 0 -1 0 0 0 0 0 0 0 0 0 0 0 0 0 0 0 0 0 0 0 0 0 0 0 0 0zm-2 1l-2 -4 0 0 0 0 1 0 0 0 0 0 0 0 0 0 0 0 0 0 0 0 0 0 0 0 0 0 1 0 0 0 0 0 0 0 0 0 0 0 0 0 0 0 0 0 0 0 0 0 1 0 0 -1 0 0 0 0 0 0 0 0 0 0 0 0 0 0 1 4 0 0 0 0 0 0 0 0 0 0 0 0 0 0 0 0 0 0 0 0 0 0 -1 0 0 0 0 0 0 0 0 0 0 0 0 0 0 0 0 0 0 1 0 0 0 0 0 0 0 0 0 0 0 0 -1 0 0 0 0 0 0 0 0 0 0 0zm-5 6l-4 -2 0 0 0 0 1 0 0 -1 0 0 0 0 0 -1 0 0 0 0 1 0 0 -1 0 0 0 0 0 -1 1 0 0 0 0 0 0 -1 0 0 1 0 0 0 0 -1 0 0 1 0 0 0 0 0 1 -1 0 0 0 0 1 0 0 0 0 0 0 -1 2 4 0 0 0 0 -1 0 0 0 0 1 0 0 0 0 -1 0 0 0 0 0 0 0 0 1 -1 0 0 0 0 0 0 0 0 0 0 1 -1 0 0 0 0 0 0 0 0 1 0 0 0 0 0 0 -1 0 0 1 0 0 0 0 0 0 0 1 0 0zm-1 7l-4 0 0 0 0 0 0 0 0 -1 0 0 0 0 0 -1 0 0 0 0 0 -1 0 0 0 0 0 -1 0 0 0 0 1 0 0 -1 0 0 0 0 0 -1 0 0 0 0 0 0 0 -1 0 0 0 0 0 0 0 0 0 -1 0 0 0 0 0 0 0 -1 4 2 0 0 0 0 0 0 0 0 0 0 0 1 0 0 0 0 0 0 0 0 0 1 0 0 0 0 -1 0 0 0 0 1 0 0 0 0 0 0 0 1 0 0 0 0 0 1 0 0 0 0 0 0 0 1 0 0 0 0 0 1 0 0 0 0 0 0zm-4 40l0 -40 4 0 0 40 -2 2 -2 -2zm4 0l0 2 -2 0 2 -2zm-10 -2l8 0 0 4 -8 0 -2 -2 2 -2zm0 4l-2 0 0 -2 2 2zm2 -42l0 40 -4 0 0 -40 0 0 4 0zm-3 -12l4 2 0 0 0 0 0 0 0 0 0 1 0 0 0 0 0 0 0 1 -1 0 0 0 0 1 0 0 0 0 0 0 0 1 0 0 0 0 0 1 0 0 0 0 0 1 0 0 0 1 0 0 0 0 0 1 0 0 0 0 0 1 0 0 0 1 0 0 -4 0 0 0 0 -1 0 0 0 -1 0 0 0 0 0 -1 0 0 0 -1 0 0 0 0 0 -1 0 0 0 -1 0 0 0 0 0 -1 0 0 0 0 0 -1 1 0 0 0 0 -1 0 0 0 0 0 -1 0 0 0 0 0 -1 0 0 0 0 0 -1 0 0zm9 -11l2 4 0 0 0 0 0 0 -1 0 0 1 0 0 -1 0 0 0 0 0 0 1 -1 0 0 0 0 0 0 1 -1 0 0 0 0 1 0 0 -1 0 0 0 0 1 0 0 0 0 -1 1 0 0 0 0 0 1 0 0 0 0 -1 1 0 0 0 0 0 1 -4 -2 0 0 1 0 0 -1 0 0 0 -1 0 0 1 0 0 -1 0 0 0 -1 0 0 1 0 0 -1 0 0 1 -1 0 0 0 0 0 -1 1 0 0 0 0 -1 1 0 0 0 0 -1 1 0 0 0 0 0 1 -1 0 0 1 0 0 0 0 -1 0 0zm6 -2l1 4 0 0 0 0 0 0 0 0 -1 0 0 0 0 0 0 0 0 0 0 0 -1 0 0 0 0 0 0 0 0 0 0 0 0 1 -1 0 0 0 0 0 0 0 0 0 0 0 0 0 -1 0 0 0 0 0 0 0 0 0 0 0 0 0 -1 1 0 0 -2 -4 0 0 1 0 0 0 0 0 0 0 0 0 0 0 1 0 0 -1 0 0 0 0 0 0 1 0 0 0 0 0 0 0 0 0 0 0 1 0 0 0 0 0 0 -1 0 0 1 0 0 0 0 0 0 0 0 0 1 0 0 0 0 0 0 0 0 0zm7 -1l0 4 0 0 -1 0 0 0 0 0 0 0 0 0 0 0 -1 0 0 0 0 0 0 0 0 0 -1 0 0 0 0 0 0 0 0 0 0 0 -1 0 0 0 0 0 0 0 0 0 0 0 -1 0 0 1 0 0 0 0 0 0 0 0 -1 0 0 0 0 0 -1 -4 0 0 1 0 0 0 0 0 0 0 0 0 1 0 0 0 0 0 0 0 0 0 1 0 0 -1 0 0 0 0 0 0 1 0 0 0 0 0 0 0 0 0 1 0 0 0 0 0 0 0 0 0 1 0 0 0 0 0 0 0 0 0 1 0 0 0zm11 3l-2 4 0 0 0 -1 0 0 -1 0 0 0 0 0 0 0 -1 0 0 0 0 -1 -1 0 0 0 0 0 0 0 -1 0 0 0 0 0 -1 0 0 0 0 0 -1 -1 0 0 0 0 0 0 -1 0 0 0 0 0 -1 0 0 0 0 0 -1 0 0 0 0 0 0 -4 0 0 0 0 1 0 0 0 1 0 0 0 0 0 1 0 0 0 0 1 1 0 0 0 1 0 0 0 0 0 1 0 0 0 0 0 1 0 0 0 0 0 1 1 0 0 0 0 1 0 0 0 0 0 1 0 0 1 1 0 0 0 0 0 0 0zm7 6l-3 2 0 0 -1 0 0 0 0 0 0 0 0 0 0 -1 0 0 0 0 -1 0 0 0 0 0 0 -1 0 0 0 0 -1 0 0 0 0 0 0 -1 0 0 0 0 -1 0 0 0 0 0 0 0 0 -1 -1 0 0 0 0 0 0 0 0 0 -1 0 0 0 2 -4 0 0 1 0 0 1 0 0 0 0 1 0 0 0 0 0 0 1 1 0 0 0 0 0 0 0 0 0 1 1 0 0 0 0 0 0 1 0 0 1 0 0 0 0 0 0 0 0 1 1 0 0 0 0 0 0 0 1 1 0 0 0 0 0 0 0zm3 11l-4 0 0 0 0 0 0 -1 0 0 0 0 0 -1 0 0 0 0 0 0 0 -1 0 0 0 0 0 -1 0 0 0 0 0 0 -1 -1 0 0 0 0 0 0 0 -1 0 0 0 0 0 0 0 -1 0 0 -1 0 0 0 0 -1 0 0 0 0 0 0 0 -1 3 -2 0 1 0 0 0 0 1 0 0 1 0 0 0 0 0 1 0 0 0 0 1 1 0 0 0 0 0 1 0 0 0 0 0 1 0 0 0 0 1 1 0 0 0 0 0 1 0 0 0 0 0 1 0 0 0 1 0 0 0 0 0 1 0 0 0 0zm-1 7l-4 -1 0 0 0 -1 0 0 0 0 0 0 0 0 0 0 1 0 0 -1 0 0 0 0 0 0 0 0 0 0 0 -1 0 0 0 0 0 0 0 0 0 0 0 -1 0 0 0 0 0 0 0 0 0 -1 0 0 0 0 0 0 0 0 0 -1 0 0 0 0 4 0 0 0 0 0 0 1 0 0 0 0 0 0 0 1 0 0 0 0 0 0 0 1 0 0 0 0 0 0 0 0 0 1 0 0 0 0 0 0 0 0 -1 1 0 0 0 0 0 0 0 1 0 0 0 0 0 0 0 0 0 1 0 0 0 0 0 0zm-8 5l-1 4 0 -4 0 0 0 0 0 0 1 0 0 -1 0 0 0 0 1 0 0 0 0 -1 0 0 0 0 1 0 0 0 0 0 0 -1 0 0 0 0 1 0 0 0 0 -1 0 0 0 0 0 0 0 -1 1 0 0 0 0 0 0 -1 0 0 0 0 0 0 4 1 0 0 0 1 -1 0 0 0 0 1 0 0 0 0 0 1 0 0 -1 0 0 0 0 1 0 0 0 0 -1 1 0 0 0 0 0 0 -1 1 0 0 0 0 0 0 -1 1 0 0 0 0 0 0 -1 1 0 0 0 0 -1 0 0 0 0 1 -1 -4zm-1 4l-4 -2 4 -2 0 4zm10 4l-4 1 0 0 0 0 0 0 0 -1 0 0 -1 0 0 0 0 0 0 -1 0 0 0 0 0 0 -1 0 0 -1 0 0 0 0 0 0 0 0 -1 0 0 -1 0 0 0 0 0 0 -1 0 0 0 0 0 0 -1 -1 0 0 0 0 0 0 0 -1 0 0 0 1 -4 1 0 0 0 0 0 1 1 0 0 0 0 1 0 0 0 0 0 1 1 0 0 0 0 1 0 0 1 0 0 0 0 1 0 0 0 0 1 0 0 1 0 0 1 0 0 0 0 0 0 1 1 0 0 0 0 0 1 0 0 0 0 1 1 0 0zm1 9l-4 0 0 0 0 0 0 0 0 -1 0 0 0 0 0 -1 0 0 0 0 0 -1 0 0 0 0 0 -1 0 0 0 0 0 0 0 -1 0 0 0 0 0 0 0 -1 0 0 0 0 0 0 -1 -1 0 0 0 0 0 0 0 0 0 0 0 -1 0 0 0 0 4 -1 0 0 0 0 0 0 0 0 0 1 0 0 0 0 0 1 0 0 0 0 0 0 1 1 0 0 0 0 0 0 0 1 0 0 0 0 0 1 0 0 0 0 0 1 0 0 0 0 0 1 0 0 0 0 0 1 0 0 0 0 0 1 0 0 0 0zm-4 17l0 -17 4 0 0 17 -2 2 -2 -2zm4 0l0 2 -2 0 2 -2z"/>
     </g>
     <g>
      <path id="6" class="fil3" d="M601 92l-3 -3 0 0 1 -1 0 0 1 -1 0 0 1 -1 0 -1 1 0 0 -1 0 0 1 -1 0 -1 1 0 0 -1 0 -1 1 0 0 -1 0 -1 0 0 1 -1 0 -1 0 0 0 -1 0 -1 1 0 0 -1 0 -1 0 -1 0 0 0 -1 0 -1 0 -1 0 -1 4 0 0 1 0 1 0 1 0 1 0 1 0 1 0 0 -1 1 0 1 0 1 0 1 0 0 -1 1 0 1 0 1 -1 1 0 0 0 1 -1 1 0 1 0 0 -1 1 0 1 -1 0 0 1 -1 1 0 0 -1 1 0 1 -1 0 -1 1 0 1 0 0zm-25 10l0 -4 0 0 1 0 1 0 1 0 1 0 0 0 1 -1 1 0 0 0 1 0 1 0 1 0 0 0 1 -1 1 0 0 0 1 0 1 -1 0 0 1 0 1 -1 0 0 1 0 1 -1 0 0 1 -1 0 0 1 -1 1 0 0 -1 1 0 0 -1 1 0 3 3 -1 0 -1 1 0 0 -1 1 -1 1 0 0 -1 1 -1 0 0 0 -1 1 -1 0 0 1 -1 0 -1 0 -1 1 0 0 -1 0 -1 1 -1 0 -1 0 0 0 -1 1 -1 0 -1 0 -1 0 0 0 -1 0 -1 1 -1 0 -1 0 -1 0 -1 0 0 0zm-24 -10l3 -3 0 0 1 0 0 1 1 0 0 1 1 0 1 1 0 0 1 1 0 0 1 1 1 0 0 0 1 1 1 0 0 0 1 1 1 0 0 0 1 0 1 1 0 0 1 0 1 0 0 0 1 0 1 0 1 1 0 0 1 0 1 0 1 0 0 0 0 4 0 0 -1 0 -1 0 -1 0 -1 -1 -1 0 0 0 -1 0 -1 0 -1 0 -1 -1 0 0 -1 0 -1 0 -1 -1 -1 0 0 0 -1 -1 -1 0 -1 0 0 -1 -1 0 -1 -1 0 0 -1 0 -1 -1 0 0 -1 -1 -1 -1 0 0 -1 -1 -1 0 0 0zm-10 -25l4 0 0 0 0 1 0 1 0 1 0 1 0 0 0 1 0 1 0 1 1 0 0 1 0 1 0 0 0 1 1 1 0 0 0 1 0 1 1 0 0 1 0 1 1 0 0 1 1 1 0 0 0 1 1 0 0 1 1 1 0 0 1 1 0 0 1 1 -3 3 0 -1 -1 -1 -1 0 0 -1 -1 -1 0 0 -1 -1 0 -1 -1 0 0 -1 -1 -1 0 0 0 -1 -1 -1 0 -1 -1 0 0 -1 0 -1 0 -1 -1 -1 0 0 0 -1 0 -1 0 -1 -1 -1 0 0 0 -1 0 -1 0 -1 0 -1 0 -1 0 -1 0 0zm10 -24l3 3 0 0 -1 1 0 0 -1 1 0 0 -1 1 0 1 -1 0 0 1 0 0 -1 1 0 1 -1 0 0 1 0 1 -1 0 0 1 0 1 0 0 -1 1 0 1 0 0 0 1 0 1 -1 0 0 1 0 1 0 1 0 0 0 1 0 1 0 1 0 0 -4 0 0 0 0 -1 0 -1 0 -1 0 -1 0 -1 0 -1 1 0 0 -1 0 -1 0 -1 0 -1 1 0 0 -1 0 -1 0 -1 1 0 0 -1 1 -1 0 -1 0 0 1 -1 0 -1 1 -1 0 0 1 -1 0 -1 1 0 0 -1 1 -1 1 0 0 -1 0 0zm24 -10l0 4 0 0 0 0 -1 0 -1 0 -1 0 0 0 -1 0 -1 1 -1 0 0 0 -1 0 -1 0 0 0 -1 1 -1 0 0 0 -1 0 -1 1 0 0 -1 0 -1 1 0 0 -1 0 -1 1 0 0 -1 1 0 0 -1 0 -1 1 0 0 -1 1 0 0 -1 1 -3 -3 1 0 1 -1 0 -1 1 0 1 -1 0 0 1 -1 1 0 0 -1 1 0 1 0 0 -1 1 0 1 -1 1 0 0 0 1 -1 1 0 1 0 1 0 0 -1 1 0 1 0 1 0 1 0 0 0 1 -1 1 0 1 0 1 0 1 0 0 0 0 0zm25 10l-3 3 0 0 -1 -1 0 0 -1 -1 0 0 -1 -1 -1 0 0 0 -1 -1 0 0 -1 -1 -1 0 0 0 -1 -1 -1 0 0 0 -1 -1 -1 0 0 0 -1 0 -1 -1 0 0 -1 0 -1 0 -1 0 0 0 -1 -1 -1 0 0 0 -1 0 -1 0 -1 0 -1 0 0 -4 1 0 1 0 1 0 1 0 1 0 1 1 0 0 1 0 1 0 1 0 1 0 0 1 1 0 1 0 1 0 1 1 0 0 1 0 1 1 1 0 0 1 1 0 1 0 0 1 1 0 1 1 0 0 1 1 1 0 0 1 1 1 1 0 0 0zm10 24l-4 0 0 0 0 0 0 -1 0 -1 0 -1 0 0 0 -1 0 -1 0 -1 -1 0 0 -1 0 -1 0 0 0 -1 -1 -1 0 0 0 -1 0 -1 -1 0 0 -1 0 -1 -1 0 0 -1 -1 -1 0 0 0 -1 -1 0 0 -1 -1 -1 0 0 -1 -1 0 0 -1 -1 3 -3 0 1 1 0 1 1 0 1 1 0 0 1 1 1 0 0 1 1 0 1 1 1 0 0 0 1 1 1 0 1 0 0 1 1 0 1 0 1 1 0 0 1 0 1 0 1 0 1 1 0 0 1 0 1 0 1 0 1 0 1 0 1 0 0 0 0zm-19 -15l3 -3 0 0 0 0 1 1 0 0 1 1 0 0 0 1 1 0 0 1 0 0 1 1 0 1 0 0 1 1 0 0 0 1 0 0 1 1 0 1 0 0 0 1 0 0 1 1 0 1 0 0 0 1 0 1 0 0 0 1 0 0 0 1 0 1 0 0 -4 0 0 0 0 -1 0 0 0 -1 0 0 0 -1 0 0 0 -1 0 -1 0 0 0 -1 -1 0 0 -1 0 0 0 -1 0 0 0 -1 -1 0 0 -1 0 0 0 -1 -1 0 0 0 0 -1 0 0 -1 -1 0 0 0 -1 -1 0 0 -1 -1 0 0 0 0 0zm-16 -7l0 -4 0 0 1 0 1 0 0 0 1 0 1 0 0 0 1 0 1 1 0 0 1 0 1 0 0 0 1 0 0 1 1 0 1 0 0 0 1 1 0 0 1 0 0 0 1 1 0 0 1 1 0 0 1 0 0 1 1 0 0 1 1 0 0 0 1 1 -3 3 0 -1 -1 0 0 -1 -1 0 0 0 0 -1 -1 0 0 0 -1 -1 0 0 -1 0 0 0 -1 -1 0 0 0 0 -1 0 0 -1 -1 0 0 0 -1 0 0 0 -1 0 0 0 -1 -1 -1 0 0 0 -1 0 0 0 -1 0 0 0 -1 0 -1 0 0 0zm-15 7l-3 -3 0 0 1 -1 0 0 1 0 0 -1 0 0 1 -1 0 0 1 0 1 -1 0 0 1 -1 0 0 1 0 0 0 1 -1 0 0 1 0 1 0 0 -1 1 0 0 0 1 0 1 0 0 0 1 -1 1 0 0 0 1 0 0 0 1 0 1 0 0 0 0 4 0 0 -1 0 0 0 -1 0 0 0 -1 0 0 0 -1 0 -1 1 0 0 -1 0 0 0 -1 0 0 0 -1 0 0 1 -1 0 0 0 0 0 -1 1 0 0 -1 0 0 0 -1 1 0 0 -1 0 0 1 0 0 -1 0 0 1 -1 0 0 1 0 0zm-6 15l-4 0 0 0 0 0 0 -1 0 -1 0 0 0 -1 0 0 0 -1 0 -1 0 0 0 -1 1 -1 0 0 0 -1 0 0 0 -1 1 -1 0 0 0 -1 0 0 1 -1 0 0 0 -1 1 -1 0 0 0 -1 1 0 0 -1 0 0 1 -1 0 0 1 -1 0 0 3 3 0 0 -1 0 0 1 -1 0 0 1 0 0 -1 1 0 0 0 1 0 0 -1 0 0 1 0 0 0 1 -1 0 0 1 0 0 0 1 0 0 -1 1 0 0 0 1 0 0 0 1 0 1 0 0 0 1 0 0 0 1 0 0 0 1 0 0 0 0zm6 16l-3 3 0 0 0 0 -1 -1 0 0 -1 -1 0 0 0 -1 -1 -1 0 0 0 -1 -1 0 0 -1 0 0 -1 -1 0 0 0 -1 0 0 -1 -1 0 -1 0 0 0 -1 0 0 -1 -1 0 -1 0 0 0 -1 0 -1 0 0 0 -1 0 -1 0 0 0 -1 0 -1 4 0 0 1 0 1 0 0 0 1 0 0 0 1 0 0 0 1 0 0 0 1 0 1 0 0 1 1 0 0 0 1 0 0 0 1 1 0 0 1 0 0 0 0 1 1 0 0 0 1 0 0 1 1 0 0 0 1 1 0 0 0 1 1 0 0 0 0zm15 7l0 4 0 0 0 0 -1 0 -1 0 0 0 -1 0 0 0 -1 -1 -1 0 0 0 -1 0 -1 0 0 0 -1 0 0 -1 -1 0 -1 0 0 0 -1 -1 0 0 -1 0 0 -1 -1 0 0 0 -1 -1 -1 0 0 0 -1 -1 0 0 0 -1 -1 0 0 -1 -1 0 3 -3 0 1 1 0 0 1 1 0 0 0 0 1 1 0 0 0 1 1 0 0 1 0 0 0 1 1 0 0 0 0 1 0 0 0 1 1 0 0 1 0 0 0 1 0 0 0 1 0 1 1 0 0 1 0 0 0 1 0 0 0 1 0 0 0 0 0zm16 -7l3 3 0 0 -1 0 0 1 -1 0 0 1 -1 0 0 1 -1 0 0 0 -1 1 0 0 -1 0 0 1 -1 0 0 0 -1 1 0 0 -1 0 -1 0 0 1 -1 0 0 0 -1 0 -1 0 0 0 -1 0 -1 1 0 0 -1 0 -1 0 0 0 -1 0 -1 0 0 -4 1 0 1 0 0 0 1 0 0 0 1 0 0 0 1 -1 1 0 0 0 1 0 0 0 1 0 0 0 1 -1 0 0 1 0 0 0 0 0 1 -1 0 0 1 0 0 0 1 -1 0 0 1 0 0 -1 0 0 1 0 0 -1 1 0 0 -1 0 0zm6 -16l4 0 0 0 0 1 0 1 0 0 0 1 0 1 0 0 0 1 0 1 0 0 0 1 -1 1 0 0 0 1 0 0 0 1 -1 0 0 1 0 1 0 0 -1 1 0 0 0 1 -1 0 0 1 0 0 -1 1 0 1 0 0 -1 1 0 0 -1 1 0 0 -3 -3 0 0 1 -1 0 0 1 0 0 -1 0 0 1 -1 0 0 0 -1 0 0 1 -1 0 0 0 0 0 -1 1 0 0 -1 0 0 0 -1 0 0 0 -1 1 0 0 -1 0 -1 0 0 0 -1 0 0 0 -1 0 0 0 -1 0 0 0 -1 0 -1 0 0z"/>
     </g>
     <g>
      <path id="7" class="fil3" d="M337 162l-3 -1 0 0 0 0 0 0 0 -1 0 0 0 0 0 0 0 -1 0 0 0 0 0 0 0 -1 0 0 0 0 0 -1 1 0 0 0 0 -1 0 0 0 -1 0 0 0 0 0 -1 0 0 0 -1 0 0 0 0 0 -1 0 0 0 -1 0 0 0 -1 0 0 4 0 0 0 0 1 0 0 0 1 0 0 0 1 0 0 0 1 0 0 0 1 0 0 0 0 0 1 0 0 -1 1 0 0 0 0 0 1 0 0 0 1 0 0 0 0 0 1 0 0 0 0 0 1 0 0 0 0 0 1 -1 0 0 0 0 0 0 0zm-10 11l-1 -3 -1 0 1 0 0 0 1 -1 0 0 0 0 1 0 0 -1 0 0 1 0 0 0 0 0 0 -1 1 0 0 0 0 -1 1 0 0 0 0 0 0 -1 0 0 1 0 0 -1 0 0 0 0 0 0 1 -1 0 0 0 0 0 -1 0 0 0 0 1 -1 3 1 0 1 0 0 0 1 0 0 -1 1 0 0 0 0 0 1 -1 0 0 1 0 0 0 0 -1 1 0 0 0 1 -1 0 0 0 0 1 -1 0 0 0 0 0 -1 1 0 0 0 0 -1 1 0 0 -1 0 0 0 0 1 -1 0 0 0 -1 0 0 0zm-10 2l0 -3 0 0 1 0 0 0 0 0 1 0 0 0 0 0 0 0 1 -1 0 0 0 0 0 0 1 0 0 0 0 0 1 0 0 0 0 0 0 0 1 0 0 0 0 0 0 0 0 0 1 0 0 0 0 -1 0 0 1 0 0 0 0 0 0 0 1 0 1 3 0 1 0 0 -1 0 0 0 0 0 0 0 -1 0 0 0 0 0 -1 1 0 0 0 0 -1 0 0 0 0 0 0 0 -1 0 0 0 0 0 -1 0 0 0 0 0 -1 0 0 0 0 0 -1 0 0 0 0 0 -1 0 0 0 0 0 -1 0 0 0zm-6 0l1 -4 0 0 0 0 0 0 0 0 0 0 1 0 0 0 0 0 0 0 0 0 0 0 1 0 0 0 0 0 0 0 0 0 1 0 0 0 0 0 0 0 0 0 0 0 1 1 0 0 0 0 0 0 0 0 1 0 0 0 0 0 0 0 0 0 0 0 0 3 0 0 0 0 0 0 0 0 -1 0 0 0 0 0 0 0 0 0 -1 0 0 0 0 0 0 0 -1 0 0 0 0 0 0 0 0 0 -1 0 0 0 0 0 0 0 0 0 -1 0 0 0 0 0 0 0 -1 0 0 0 0 0 0 0 0 0 0 0zm-7 -3l3 -4 0 0 0 1 0 0 0 0 0 0 0 0 1 0 0 0 0 0 0 0 0 0 0 0 0 0 0 1 1 0 0 0 0 0 0 0 0 0 0 0 1 0 0 0 0 0 0 0 0 0 0 0 1 0 0 0 0 1 0 0 0 0 0 0 1 0 -1 4 -1 -1 0 0 0 0 0 0 -1 0 0 0 0 0 0 0 0 0 -1 0 0 0 0 0 0 0 0 -1 -1 0 0 0 0 0 0 0 0 0 -1 0 0 0 0 0 0 0 0 -1 0 0 -1 0 0 0 0 0 0 0 0 0 0 0 -1 0 0 0zm-1 -6l-3 -2 3 0 0 0 0 1 0 0 1 0 0 0 0 0 0 0 0 1 0 0 0 0 0 0 0 0 1 0 0 0 0 1 0 0 0 0 0 0 0 0 0 0 0 0 1 0 0 1 0 0 0 0 0 0 0 0 0 0 0 0 1 0 0 0 0 0 -3 4 0 -1 0 0 0 0 0 0 0 0 -1 0 0 0 0 -1 0 0 0 0 0 0 0 0 -1 0 0 0 0 -1 0 0 0 0 0 0 0 0 -1 0 0 -1 0 0 0 0 0 0 0 0 0 0 -1 -1 0 0 0 0 0 0 0 0 0 -1 3 0zm-3 -2l1 -2 2 2 -3 0zm-2 7l-2 -3 0 0 0 0 0 0 1 0 0 0 0 0 0 0 0 0 0 0 0 -1 0 0 1 0 0 0 0 0 0 0 0 0 0 0 0 -1 0 0 0 0 1 0 0 0 0 0 0 0 0 -1 0 0 0 0 0 0 0 0 0 0 1 0 0 -1 0 0 3 2 0 1 0 0 0 0 0 0 -1 0 0 1 0 0 0 0 0 0 0 0 0 0 0 1 -1 0 0 0 0 0 0 0 0 0 0 0 0 1 -1 0 0 0 0 0 0 0 0 0 0 1 -1 0 0 0 0 0 0 0 0 0 0 0 -1 0 0 0zm-6 4l-1 -4 0 0 0 0 1 0 0 0 0 0 0 -1 0 0 0 0 1 0 0 0 0 0 0 0 0 0 0 0 1 0 0 0 0 0 0 0 0 0 0 0 0 -1 1 0 0 0 0 0 0 0 0 0 0 0 0 0 1 0 0 0 0 0 0 -1 0 0 2 3 0 1 0 0 0 0 0 0 0 0 -1 0 0 0 0 0 0 1 0 0 0 0 -1 0 0 0 0 0 0 0 0 0 -1 0 0 0 0 1 0 0 0 0 -1 0 0 0 0 0 0 0 0 0 -1 0 0 0 0 0 0 0 -1 0 0 1 0 0zm-6 0l0 -3 0 0 0 0 0 0 0 0 0 0 0 0 1 0 0 0 0 0 0 0 0 0 0 -1 1 0 0 0 0 0 0 0 0 0 0 0 1 0 0 0 0 0 0 0 0 0 1 0 0 0 0 0 0 0 0 0 0 0 1 0 0 0 0 0 0 0 1 4 0 0 0 0 0 0 -1 0 0 0 0 0 0 0 0 0 -1 0 0 0 0 0 0 0 -1 0 0 0 0 0 0 0 0 0 -1 0 0 0 0 0 0 0 0 0 -1 0 0 0 0 0 0 0 0 0 -1 0 0 0 0 0 0 0 0 0 0 0zm-10 -2l1 -3 0 0 0 0 1 0 0 0 0 0 0 0 1 0 0 1 0 0 0 0 1 0 0 0 0 0 0 0 1 0 0 0 0 0 0 0 1 0 0 0 0 0 0 0 1 0 0 0 0 0 1 1 0 0 0 0 0 0 1 0 0 0 0 0 1 0 0 3 -1 0 0 0 0 0 -1 0 0 0 0 0 -1 0 0 0 0 0 -1 0 0 0 0 0 -1 0 0 0 0 0 -1 0 0 0 0 0 -1 0 0 0 0 0 -1 0 0 -1 0 0 0 0 -1 0 0 0 0 0 -1 0 0 0 0 0 0 -1 0 0zm-10 -11l3 -1 0 0 1 1 0 0 0 0 0 1 0 0 0 0 0 1 1 0 0 0 0 1 0 0 0 0 1 0 0 1 0 0 0 0 1 1 0 0 0 0 0 0 1 1 0 0 0 0 1 0 0 0 0 1 1 0 0 0 0 0 1 1 0 0 0 0 -1 3 -1 0 0 0 -1 0 0 -1 -1 0 0 0 0 0 -1 -1 0 0 0 0 -1 0 0 -1 -1 0 0 0 0 -1 -1 0 0 0 0 -1 0 0 -1 -1 0 0 0 0 0 -1 -1 0 0 -1 0 0 0 0 -1 -1 0 0 0 -1 0 0 0 -1 0 0zm-2 -12l4 0 0 0 0 0 0 1 0 0 0 1 0 0 0 0 0 1 0 0 0 1 0 0 0 0 0 1 0 0 0 1 0 0 0 0 0 1 0 0 0 0 1 1 0 0 0 0 0 1 0 0 0 0 0 1 0 0 0 0 0 0 0 1 0 0 0 0 -3 1 0 0 0 0 -1 -1 0 0 0 0 0 0 0 -1 0 0 0 -1 0 0 0 0 0 -1 0 0 0 0 0 -1 -1 0 0 -1 0 0 0 0 0 -1 0 0 0 -1 0 0 0 0 0 -1 0 0 0 -1 0 0 0 -1 0 0 0 -1 0 0 0 0zm4 -40l0 40 -4 0 0 -40 2 -2 2 2zm-4 0l0 -2 2 0 -2 2zm10 2l-8 0 0 -4 8 0 2 2 -2 2zm0 -4l2 0 0 2 -2 -2zm-1 42l0 -40 3 0 0 40 0 0 -3 0zm4 7l-4 1 0 0 0 0 0 0 0 0 0 0 0 -1 0 0 0 0 0 0 0 0 0 -1 0 0 0 0 0 0 0 0 0 -1 0 0 0 0 0 0 0 -1 0 0 0 0 0 -1 0 0 0 0 0 0 0 -1 0 0 0 0 0 -1 0 0 0 0 0 -1 3 0 0 1 0 0 0 0 0 1 0 0 0 0 0 0 0 1 0 0 0 0 0 1 0 0 0 0 1 0 0 1 0 0 0 0 0 0 0 0 0 1 0 0 0 0 0 0 0 0 0 0 0 1 0 0 0 0 0 0 0 0 0 0 0 0 0 0zm4 5l-2 4 0 0 -1 0 0 -1 0 0 0 0 -1 0 0 0 0 -1 0 0 -1 0 0 0 0 0 0 -1 0 0 -1 0 0 0 0 0 0 -1 0 0 0 0 -1 0 0 -1 0 0 0 0 0 0 0 -1 0 0 0 0 -1 -1 0 0 0 0 0 0 0 -1 4 -1 0 1 0 0 0 0 0 0 0 0 0 1 0 0 0 0 1 0 0 0 0 0 0 1 0 0 0 0 0 0 0 0 0 0 0 1 1 0 0 0 0 0 0 0 0 0 0 0 0 0 1 1 0 0 0 0 0 0 0 0 0 0 1 0 0 0zm2 1l-1 4 0 0 0 0 0 0 0 0 0 0 -1 0 0 0 0 0 0 0 0 0 0 0 0 0 0 0 0 0 -1 0 0 0 0 0 0 0 0 -1 0 0 0 0 0 0 0 0 -1 0 0 0 0 0 0 0 0 0 0 0 0 0 0 0 0 0 0 0 2 -4 0 0 0 0 0 1 0 0 0 0 0 0 0 0 0 0 0 0 0 0 0 0 0 0 1 0 0 0 0 0 0 0 0 0 0 0 0 0 0 0 0 0 0 0 0 0 0 0 0 0 1 0 0 0 0 0 0 0 0 0 0 0 0 0 0 0zm3 1l0 4 0 0 0 0 0 0 -1 0 0 0 0 0 0 0 0 0 0 0 0 0 0 0 -1 0 0 0 0 0 0 0 0 0 0 0 0 -1 0 0 0 0 -1 0 0 0 0 0 0 0 0 0 0 0 0 0 0 0 -1 0 0 0 0 0 0 0 0 0 1 -4 0 0 0 0 0 0 0 0 0 0 0 0 0 1 1 0 0 0 0 0 0 0 0 0 0 0 0 0 0 0 0 0 0 0 0 0 1 0 0 0 0 0 0 0 0 0 0 0 0 0 0 0 0 0 0 0 1 0 0 0 0 0 0 0 0 0zm5 -2l2 4 0 0 0 0 0 0 0 0 0 0 -1 0 0 0 0 0 0 0 0 1 -1 0 0 0 0 0 0 0 -1 0 0 0 0 0 0 0 -1 0 0 0 0 0 0 0 -1 0 0 0 0 0 0 1 -1 0 0 0 0 0 0 0 -1 0 0 0 0 0 0 -4 0 0 0 0 0 0 1 0 0 0 0 0 0 0 0 0 1 0 0 0 0 0 0 -1 0 0 1 0 0 0 0 0 0 0 0 0 0 0 1 0 0 0 0 0 0 0 0 0 0 0 0 0 1 0 0 0 0 0 0 -1 0 0 0 0 0 0zm4 -5l4 1 0 0 0 1 0 0 -1 0 0 0 0 1 0 0 0 0 0 1 0 0 0 0 0 0 -1 1 0 0 0 0 0 0 0 0 0 1 -1 0 0 0 0 0 0 1 0 0 -1 0 0 0 0 0 0 1 0 0 -1 0 0 0 0 0 0 0 -1 1 -2 -4 1 0 0 0 0 0 0 0 0 0 0 0 0 -1 1 0 0 0 0 0 0 0 0 0 0 0 0 -1 1 0 0 0 0 0 0 0 0 0 0 0 0 -1 0 0 0 0 0 0 0 0 1 0 0 -1 0 0 0 0 0 0 0 0 0 -1 0 0zm0 -7l4 0 0 0 0 1 0 0 0 0 0 1 0 0 0 0 0 1 0 0 0 0 0 1 0 0 0 0 0 0 0 1 0 0 0 0 0 0 0 1 0 0 0 0 0 0 0 1 0 0 0 0 0 0 0 0 0 1 0 0 0 0 0 0 0 0 0 0 -4 -1 0 0 0 0 0 0 0 0 0 0 0 0 0 0 0 0 0 -1 0 0 0 0 0 0 0 0 0 -1 0 0 0 0 0 0 0 0 0 -1 0 0 0 0 0 -1 0 0 0 0 0 0 0 -1 0 0 0 0 0 -1 0 0 0 0 0 -1 0 0zm4 -40l0 40 -4 0 0 -40 2 -2 2 2zm-4 0l0 -2 2 0 -2 2zm11 2l-9 0 0 -4 9 0 2 2 -2 2zm0 -4l2 0 0 2 -2 -2zm-2 42l0 -40 4 0 0 40 0 0 -4 0zm4 7l-4 1 0 0 0 0 0 0 0 0 0 0 0 -1 0 0 0 0 0 0 0 0 0 -1 0 0 0 0 0 0 0 0 0 -1 0 0 0 0 0 0 0 -1 0 0 0 0 0 0 0 -1 0 0 0 0 0 -1 0 0 0 0 0 -1 0 0 0 0 0 -1 4 0 0 1 0 0 0 0 0 1 0 0 0 0 0 1 0 0 0 0 0 0 0 1 0 0 0 0 0 0 0 1 0 0 0 0 0 0 0 1 0 0 0 0 0 0 0 0 0 0 0 1 0 0 0 0 0 0 0 0 0 0 0 0 0 0 0 0zm4 5l-3 4 0 0 0 -1 0 0 0 0 -1 0 0 0 0 0 0 -1 0 0 -1 0 0 0 0 0 0 -1 0 0 -1 0 0 0 0 -1 0 0 0 0 0 0 -1 -1 0 0 0 0 0 0 0 -1 0 0 0 0 0 0 0 -1 -1 0 0 0 0 0 0 -1 4 -1 0 1 0 0 0 0 0 0 0 0 0 1 0 0 0 0 1 0 0 0 0 0 0 1 0 0 0 0 0 0 0 0 0 0 0 0 1 1 0 0 0 0 0 0 0 0 0 0 0 0 1 1 0 0 0 0 0 0 0 0 0 0 1 0 0 0zm5 2l0 4 0 0 0 0 -1 0 0 0 0 0 0 0 -1 0 0 0 0 -1 0 0 -1 0 0 0 0 0 0 0 -1 0 0 0 0 0 0 0 -1 0 0 0 0 0 0 0 0 0 -1 0 0 -1 0 0 0 0 -1 0 0 0 0 0 0 0 0 0 -1 0 3 -4 0 0 0 0 0 1 0 0 0 0 0 0 1 0 0 0 0 0 0 0 0 0 0 0 0 0 1 0 0 0 0 0 0 0 0 0 0 0 1 0 0 1 0 0 0 0 0 0 1 0 0 0 0 0 0 0 0 0 1 0 0 0 0 0 0 0zm5 -2l2 4 0 0 0 0 0 0 0 0 0 0 -1 0 0 0 0 0 0 1 -1 0 0 0 0 0 0 0 0 0 -1 0 0 0 0 0 0 0 -1 0 0 0 0 0 0 0 -1 0 0 0 0 0 0 1 -1 0 0 0 0 0 0 0 -1 0 0 0 0 0 0 -4 0 0 0 0 1 0 0 0 0 0 0 0 0 0 1 0 0 0 0 0 0 0 0 0 0 -1 1 0 0 0 0 0 0 0 0 0 0 0 1 0 0 0 0 0 0 0 0 0 0 0 0 0 1 0 0 0 0 0 0 0 0 -1 0 0 0 0zm4 -4l4 1 0 0 0 0 0 0 -1 0 0 1 0 0 0 0 0 0 0 1 0 0 0 0 0 0 -1 1 0 0 0 0 0 0 0 1 0 0 -1 0 0 0 0 1 0 0 0 0 -1 0 0 0 0 0 0 1 0 0 -1 0 0 0 0 0 0 1 -1 0 -2 -4 0 0 1 0 0 0 0 0 0 0 0 0 0 0 1 -1 0 0 0 0 0 0 0 0 0 0 0 0 1 -1 0 0 0 0 0 0 0 0 0 0 0 0 0 -1 0 0 0 0 0 0 1 0 0 -1 0 0 0 0 0 0 0 0 0 0 0 0zm0 -8l4 0 0 0 0 1 0 0 0 0 0 1 0 0 0 0 0 1 0 0 0 0 0 0 0 1 0 0 0 0 0 1 0 0 0 0 0 0 0 1 0 0 0 0 0 0 0 0 0 1 0 0 0 0 0 0 0 1 0 0 0 0 0 0 0 0 0 1 -4 -1 0 -1 0 0 0 0 0 0 0 0 0 0 0 0 0 -1 0 0 0 0 0 0 0 0 0 -1 0 0 0 0 0 0 0 0 0 -1 0 0 0 0 0 0 0 -1 0 0 0 0 0 -1 0 0 0 0 0 0 0 -1 0 0 0 0 0 -1 0 0zm4 -40l0 40 -4 0 0 -40 2 -2 2 2zm-4 0l0 -2 2 0 -2 2zm11 2l-9 0 0 -4 9 0 2 2 -2 2zm0 -4l2 0 0 2 -2 -2zm-2 42l0 -40 4 0 0 40 0 0 -4 0z"/>
     </g>
     <g>
      <path id="8" class="fil3" d="M417 165l-3 -2 0 0 1 -1 0 0 1 -1 0 -1 1 0 0 -1 1 0 0 -1 1 -1 0 0 1 -1 0 -1 0 0 1 -1 0 0 0 -1 0 -1 1 0 0 -1 0 -1 0 -1 1 0 0 -1 0 -1 0 0 0 -1 0 -1 0 -1 0 0 0 -1 0 -1 0 -1 4 0 0 1 0 1 0 1 0 1 0 1 0 0 0 1 0 1 0 1 -1 1 0 1 0 0 0 1 -1 1 0 1 0 0 -1 1 0 1 0 1 -1 0 0 1 -1 1 0 1 0 0 -1 1 0 1 -1 0 -1 1 0 1 -1 0 0 1 -1 0 0 0zm-24 10l0 -3 0 0 1 0 0 0 1 0 1 -1 1 0 0 0 1 0 1 0 1 0 0 0 1 0 1 -1 0 0 1 0 1 0 0 -1 1 0 1 0 0 -1 1 0 1 0 0 -1 1 0 1 0 0 -1 1 0 0 -1 1 0 1 -1 0 0 1 -1 0 0 3 2 -1 1 0 1 -1 0 -1 1 0 0 -1 1 -1 0 0 1 -1 0 -1 1 0 0 -1 1 -1 0 -1 0 0 1 -1 0 -1 0 -1 1 0 0 -1 0 -1 0 -1 1 -1 0 0 0 -1 0 -1 0 -1 0 -1 0 -1 0 0 0 -1 0 -1 0 0 0zm-24 -10l2 -2 0 0 1 0 0 1 1 0 1 1 0 0 1 1 0 0 1 1 1 0 0 0 1 1 1 0 0 0 1 1 1 0 0 0 1 1 1 0 0 0 1 0 1 1 0 0 1 0 1 0 1 0 0 0 1 0 1 0 0 1 1 0 1 0 1 0 0 3 -1 0 -1 0 -1 0 -1 0 0 0 -1 0 -1 0 -1 0 -1 0 -1 0 0 -1 -1 0 -1 0 -1 0 -1 -1 0 0 -1 0 -1 -1 -1 0 0 0 -1 -1 -1 0 0 -1 -1 0 -1 -1 -1 0 0 -1 -1 0 -1 -1 0 0 -1 -1 0 -1 0 0zm-11 -24l4 0 0 0 0 1 0 1 0 1 0 0 0 1 0 1 1 1 0 0 0 1 0 1 0 0 0 1 1 1 0 1 0 0 0 1 1 1 0 0 0 1 1 0 0 1 0 1 1 0 0 1 1 1 0 0 1 1 0 0 1 1 0 1 1 0 0 1 -2 2 -1 0 -1 -1 0 0 -1 -1 0 -1 -1 0 0 -1 -1 -1 0 0 -1 -1 0 -1 -1 -1 0 0 -1 -1 0 -1 0 -1 -1 0 0 -1 0 -1 0 -1 -1 0 0 -1 0 -1 0 -1 0 -1 0 -1 -1 0 0 -1 0 -1 0 -1 0 -1 0 -1 0 0zm11 -24l2 3 0 0 0 0 -1 1 0 1 -1 0 0 1 -1 0 0 1 -1 1 0 0 -1 1 0 0 0 1 -1 1 0 0 0 1 -1 1 0 0 0 1 0 1 -1 0 0 1 0 1 0 0 0 1 0 1 -1 1 0 0 0 1 0 1 0 1 0 0 0 1 -4 0 0 -1 0 0 0 -1 0 -1 0 -1 1 -1 0 -1 0 -1 0 0 0 -1 0 -1 1 -1 0 -1 0 0 0 -1 1 -1 0 -1 0 0 1 -1 0 -1 1 -1 0 0 1 -1 0 -1 1 0 0 -1 1 -1 0 0 1 -1 0 -1 1 0 1 -1 0 0zm24 -10l0 4 0 0 -1 0 -1 0 -1 0 0 0 -1 0 -1 0 0 0 -1 1 -1 0 -1 0 0 0 -1 0 -1 0 0 1 -1 0 -1 0 0 0 -1 1 -1 0 0 0 -1 1 -1 0 0 1 -1 0 -1 0 0 1 -1 0 0 1 -1 0 -1 1 0 0 -1 1 -2 -3 0 -1 1 0 0 -1 1 0 1 -1 0 0 1 -1 1 0 1 -1 0 0 1 -1 1 0 0 0 1 -1 1 0 1 0 0 -1 1 0 1 0 1 -1 1 0 0 0 1 0 1 0 1 0 1 -1 1 0 0 0 1 0 1 0 1 0 1 0 0 0zm24 10l-3 3 0 0 0 -1 -1 0 0 -1 -1 0 -1 -1 0 0 -1 -1 0 0 -1 0 -1 -1 0 0 -1 -1 -1 0 0 0 -1 -1 -1 0 0 0 -1 0 -1 -1 0 0 -1 0 -1 0 0 0 -1 0 -1 -1 -1 0 0 0 -1 0 -1 0 -1 0 0 0 -1 0 0 -4 1 0 1 0 0 0 1 0 1 0 1 0 1 1 1 0 0 0 1 0 1 0 1 0 1 1 0 0 1 0 1 1 1 0 0 0 1 1 1 0 1 0 0 1 1 0 1 1 0 0 1 1 1 0 0 1 1 0 1 1 0 0 1 1 0 0zm10 24l-4 0 0 0 0 -1 0 0 0 -1 0 -1 0 -1 0 0 0 -1 0 -1 0 -1 0 0 -1 -1 0 -1 0 0 0 -1 -1 -1 0 0 0 -1 0 -1 -1 0 0 -1 0 -1 -1 0 0 -1 -1 0 0 -1 -1 -1 0 0 -1 -1 0 0 -1 -1 0 -1 -1 0 3 -3 1 1 0 0 1 1 0 1 1 0 1 1 0 1 1 0 0 1 0 1 1 0 0 1 1 1 0 1 0 0 1 1 0 1 0 1 1 0 0 1 0 1 0 1 1 1 0 0 0 1 0 1 0 1 0 1 0 1 0 1 0 0 0 1 0 0zm-19 -16l3 -2 0 0 1 0 0 1 0 0 1 1 0 0 1 1 0 0 0 1 1 0 0 1 0 0 1 1 0 1 0 0 0 1 1 0 0 1 0 0 0 1 1 1 0 0 0 1 0 0 0 1 0 1 0 0 0 1 0 1 1 0 0 1 0 1 0 0 -4 0 0 0 0 -1 0 0 0 -1 0 -1 -1 0 0 -1 0 0 0 -1 0 0 0 -1 0 0 0 -1 -1 0 0 -1 0 0 0 -1 0 0 -1 -1 0 0 0 -1 0 0 -1 -1 0 0 0 -1 0 0 -1 0 0 -1 0 0 -1 -1 0 0 -1 -1 0 0zm-15 -6l0 -4 0 0 0 0 1 0 1 0 0 0 1 0 1 0 0 0 1 0 1 1 0 0 1 0 0 0 1 0 1 0 0 1 1 0 0 0 1 0 1 1 0 0 1 0 0 1 1 0 0 0 1 1 0 0 1 0 0 1 1 0 0 1 1 0 0 1 -3 2 0 0 0 0 -1 -1 0 0 -1 -1 0 0 -1 0 0 0 0 -1 -1 0 0 0 -1 -1 0 0 -1 0 0 0 -1 -1 0 0 -1 0 0 0 -1 0 0 0 -1 -1 0 0 -1 0 0 0 -1 0 0 0 -1 0 0 0 -1 0 -1 0 0 0 0 0zm-16 6l-3 -2 0 0 1 -1 0 0 1 -1 0 0 1 -1 0 0 1 0 0 -1 1 0 0 0 1 -1 0 0 1 0 1 -1 0 0 1 0 0 0 1 -1 0 0 1 0 1 0 0 0 1 0 1 -1 0 0 1 0 0 0 1 0 1 0 0 0 1 0 1 0 0 4 -1 0 0 0 -1 0 -1 0 0 0 -1 0 0 0 -1 0 0 0 -1 0 0 1 -1 0 0 0 -1 0 0 0 -1 0 0 1 -1 0 0 0 -1 0 0 1 -1 0 0 0 0 1 -1 0 0 0 -1 0 0 1 -1 0 0 1 0 0 -1 0 0 0zm-6 16l-4 0 0 0 0 0 0 -1 0 -1 0 0 0 -1 0 -1 0 0 0 -1 1 -1 0 0 0 -1 0 0 0 -1 0 -1 1 0 0 -1 0 0 0 -1 1 -1 0 0 0 -1 0 0 1 -1 0 0 1 -1 0 0 0 -1 1 0 0 -1 1 0 0 -1 0 0 3 2 0 1 -1 0 0 1 0 0 -1 1 0 0 0 0 -1 1 0 0 0 1 0 0 -1 1 0 0 0 1 0 0 -1 1 0 0 0 1 0 0 0 1 0 0 0 1 -1 0 0 1 0 0 0 1 0 0 0 1 0 1 0 0 0 1 0 0 0 0zm6 16l-3 3 0 0 0 -1 0 0 -1 -1 0 0 -1 -1 0 0 0 -1 -1 0 0 -1 -1 0 0 -1 0 0 0 -1 -1 -1 0 0 0 -1 0 0 -1 -1 0 0 0 -1 0 -1 0 0 0 -1 -1 -1 0 0 0 -1 0 0 0 -1 0 -1 0 0 0 -1 0 -1 4 0 0 1 0 0 0 1 0 1 0 0 0 1 0 0 0 1 0 0 1 1 0 0 0 1 0 0 0 1 0 0 0 1 1 0 0 1 0 0 0 1 1 0 0 1 0 0 0 1 1 0 0 1 0 0 1 0 0 1 0 0 1 1 0 0 0 0zm16 7l0 4 0 0 -1 0 -1 0 0 0 -1 -1 -1 0 0 0 -1 0 0 0 -1 0 -1 0 0 0 -1 0 -1 -1 0 0 -1 0 0 0 -1 -1 0 0 -1 0 -1 0 0 -1 -1 0 0 0 -1 -1 0 0 -1 -1 0 0 -1 0 0 -1 -1 0 0 -1 -1 0 3 -3 1 1 0 0 0 0 1 1 0 0 1 0 0 1 1 0 0 0 0 1 1 0 0 0 1 0 0 1 1 0 0 0 1 0 0 0 1 1 0 0 1 0 0 0 1 0 0 0 1 0 0 0 1 1 0 0 1 0 1 0 0 0 1 0 0 0zm15 -7l3 3 0 0 0 0 -1 1 0 0 -1 1 0 0 -1 0 0 1 -1 0 0 1 -1 0 0 0 -1 1 0 0 -1 0 -1 0 0 1 -1 0 0 0 -1 0 -1 1 0 0 -1 0 0 0 -1 0 -1 0 0 0 -1 0 -1 0 0 1 -1 0 -1 0 0 0 0 -4 0 0 1 0 1 0 0 0 1 0 0 -1 1 0 0 0 1 0 0 0 1 0 0 0 1 0 0 -1 1 0 0 0 1 0 0 0 1 -1 0 0 1 0 0 0 1 -1 0 0 0 0 1 -1 0 0 1 0 0 -1 1 0 0 0 0 -1 0 0zm7 -16l4 0 0 0 0 1 0 1 0 0 -1 1 0 1 0 0 0 1 0 0 0 1 0 1 0 0 0 1 -1 1 0 0 0 1 0 0 -1 1 0 0 0 1 0 1 -1 0 0 1 0 0 -1 1 0 0 0 1 -1 0 0 1 -1 0 0 1 0 0 -1 1 -3 -3 1 0 0 -1 1 0 0 -1 0 0 1 0 0 -1 0 0 0 -1 1 0 0 -1 0 0 0 -1 1 0 0 -1 0 0 0 -1 0 0 1 -1 0 0 0 -1 0 0 0 -1 0 0 0 -1 0 0 1 -1 0 0 0 -1 0 -1 0 0 0 -1 0 0z"/>
     </g>
     <g>
      <path id="9" class="fil3" d="M482 171l8 0 0 4 -8 0 -2 -2 2 -2zm0 4l-2 0 0 -2 2 2zm1 -19l0 17 -3 0 0 -17 0 0 3 0zm-6 -8l2 -3 0 0 0 0 0 1 1 0 0 0 0 0 0 1 1 0 0 0 0 0 0 1 0 0 1 0 0 1 0 0 0 0 0 1 0 0 1 0 0 1 0 0 0 0 0 1 0 0 0 1 0 0 0 0 0 1 0 0 0 1 0 0 0 1 0 0 -3 0 0 0 0 -1 0 0 0 0 0 -1 -1 0 0 0 0 -1 0 0 0 0 0 -1 0 0 0 0 0 0 0 -1 0 0 0 0 0 0 -1 0 0 -1 0 0 0 0 0 0 0 0 0 -1 0 0 -1 0 0 0 0 0 0 0 0 0 0 -1 0 0zm-6 -1l0 -4 0 0 0 0 0 0 1 0 0 0 0 0 0 0 1 0 0 0 0 0 1 0 0 0 0 1 0 0 1 0 0 0 0 0 0 0 1 0 0 0 0 0 0 0 1 0 0 0 0 0 0 0 0 1 1 0 0 0 0 0 0 0 0 0 1 0 -2 3 -1 0 0 0 0 0 0 0 0 0 0 0 0 0 -1 0 0 0 0 0 0 0 0 0 0 0 0 0 -1 0 0 0 0 -1 0 0 0 0 -1 0 0 0 0 0 0 0 0 0 -1 0 0 0 0 0 0 0 0 0 -1 0 0 0 0 0 0 0zm-11 -4l11 0 0 4 -11 0 -2 -2 2 -2zm0 4l-2 0 0 -2 2 2zm2 -10l0 8 -4 0 0 -8 2 -2 2 2zm-4 0l0 -2 2 0 -2 2zm9 2l-7 0 0 -4 7 0 0 0 0 4zm9 -6l3 2 0 0 0 1 0 0 -1 0 0 0 0 1 -1 0 0 0 0 0 -1 0 0 0 0 1 -1 0 0 0 0 0 -1 0 0 0 0 0 -1 1 0 0 0 0 -1 0 0 0 -1 0 0 0 0 0 -1 0 0 0 -1 0 0 0 -1 0 0 0 -1 0 0 -4 1 0 0 0 1 0 0 0 0 0 1 0 0 0 0 0 1 0 0 0 0 0 1 0 0 0 0 0 1 0 0 0 0 0 0 -1 1 0 0 0 0 0 0 0 1 0 0 0 0 0 0 0 0 -1 1 0 0 0 0 0 0 0 0 0 0 0zm3 -6l3 0 0 0 0 0 0 1 0 0 0 0 0 1 0 0 0 0 0 0 0 1 0 0 0 0 0 1 0 0 0 0 0 0 0 1 -1 0 0 0 0 0 0 1 0 0 0 0 0 0 0 1 -1 0 0 0 0 0 0 1 0 0 -1 0 0 0 0 0 -3 -2 0 -1 1 0 0 0 0 0 0 0 0 0 0 0 0 -1 0 0 0 0 1 0 0 0 0 0 0 0 0 -1 0 0 0 0 0 0 0 0 0 0 0 -1 0 0 0 0 0 0 0 0 0 -1 0 0 0 0 0 0 1 0 0 -1 0 0 0 0zm-2 -5l3 -2 0 0 0 0 0 0 0 0 1 0 0 1 0 0 0 0 0 0 0 0 0 1 0 0 0 0 1 0 0 1 0 0 0 0 0 0 0 1 0 0 0 0 0 0 0 0 0 1 0 0 0 0 0 1 0 0 0 0 0 0 0 1 0 0 0 0 -3 0 0 0 0 0 -1 0 0 -1 0 0 0 0 0 0 0 0 0 -1 0 0 0 0 0 0 0 0 0 0 0 -1 0 0 0 0 0 0 0 0 0 0 0 -1 0 0 0 0 0 0 0 0 -1 0 0 0 0 -1 0 0 0 0 0 0 0 0 0 0zm-3 -2l1 -4 0 0 1 0 0 0 0 0 0 0 0 0 0 1 1 0 0 0 0 0 0 0 0 0 0 0 0 0 1 0 0 0 0 1 0 0 0 0 0 0 0 0 1 0 0 0 0 0 0 0 0 1 0 0 0 0 0 0 1 0 0 0 0 0 0 1 -3 2 0 0 0 0 0 0 0 0 -1 0 0 -1 0 0 0 0 0 0 0 0 0 0 0 0 0 0 0 0 0 0 0 0 -1 0 0 -1 0 0 0 0 0 0 0 0 0 0 0 0 0 0 0 0 -1 0 0 0 0 0 0 0 0 0 0 0 0 0zm-4 -1l0 -4 0 0 0 0 0 0 0 0 0 0 1 0 0 0 0 0 0 0 0 0 0 0 1 0 0 0 0 0 0 0 0 0 1 0 0 0 0 0 0 0 0 0 1 0 0 0 0 1 0 0 0 0 0 0 1 0 0 0 0 0 0 0 0 0 0 0 -1 4 0 0 0 0 0 0 -1 -1 0 0 0 0 0 0 0 0 0 0 0 0 0 0 -1 0 0 0 0 0 0 0 0 0 0 0 0 0 -1 0 0 0 0 0 0 0 0 0 0 0 0 0 -1 0 0 0 0 0 0 0 0 0 0 0 0 0 0 0zm-3 0l-1 -4 0 0 0 0 0 0 0 0 0 0 0 0 1 0 0 0 0 0 0 0 0 0 0 0 0 0 0 0 0 0 0 0 1 0 0 0 0 0 0 0 0 0 0 0 0 0 0 0 0 0 1 0 0 0 0 0 0 0 0 0 0 0 0 0 1 0 0 4 -1 0 0 0 0 0 0 0 0 0 0 0 0 0 0 0 -1 0 0 0 0 0 0 0 0 0 0 0 0 0 0 0 0 0 0 0 0 0 -1 0 0 0 0 0 0 0 0 0 0 0 0 0 0 0 0 0 0 0 0 0 0 0 0 0 0 0zm-2 1l-2 -4 0 0 0 0 0 0 1 0 0 0 0 0 0 0 0 0 0 0 0 0 0 0 0 0 0 0 0 0 1 0 0 0 0 0 0 0 0 -1 0 0 0 0 0 0 0 0 0 0 0 0 0 0 1 0 0 0 0 0 0 0 0 0 0 0 0 0 1 4 0 0 0 0 0 0 0 0 0 0 0 0 0 0 0 0 0 0 -1 0 0 0 0 0 0 0 0 0 0 0 0 0 0 0 0 0 0 0 0 0 0 0 0 0 0 0 0 0 0 0 -1 0 0 1 0 0 0 0 0 0 0 0 0 0 0 0zm-5 5l-4 -1 0 0 0 0 0 0 1 -1 0 0 0 0 0 -1 0 0 0 0 0 -1 1 0 0 0 0 0 0 -1 0 0 1 0 0 -1 0 0 0 0 1 0 0 -1 0 0 0 0 1 0 0 0 0 -1 0 0 1 0 0 0 0 0 1 -1 0 0 0 0 2 4 0 0 -1 0 0 0 0 0 0 0 0 0 -1 1 0 0 0 0 0 0 0 0 -1 0 0 1 0 0 0 0 0 0 0 0 0 0 -1 1 0 0 0 0 0 0 0 0 0 1 0 0 -1 0 0 0 0 0 0 1 0 0 0 0 0 0 0 0zm-1 8l-4 0 0 0 0 0 0 -1 0 0 0 0 0 -1 0 0 0 0 0 -1 0 0 0 0 0 0 0 -1 0 0 0 0 0 -1 0 0 0 0 1 0 0 -1 0 0 0 0 0 0 0 -1 0 0 0 0 0 0 0 -1 0 0 0 0 0 0 0 -1 0 0 4 1 0 1 0 0 0 0 0 0 0 0 0 0 0 1 0 0 0 0 0 0 -1 0 0 1 0 0 0 0 0 0 0 1 0 0 0 0 0 0 0 1 0 0 0 0 0 0 0 1 0 0 0 0 0 1 0 0 0 0 0 0 0 1 0 0 0 0zm-4 40l0 -40 4 0 0 40 -2 2 -2 -2zm4 0l0 2 -2 0 2 -2zm-10 -2l8 0 0 4 -8 0 -2 -2 2 -2zm0 4l-2 0 0 -2 2 2zm2 -42l0 40 -4 0 0 -40 0 0 4 0zm-3 -12l4 2 0 0 0 0 0 0 0 0 0 0 0 1 0 0 -1 0 0 1 0 0 0 0 0 0 0 1 0 0 0 0 0 1 0 0 0 0 0 1 0 0 0 0 0 1 0 0 0 0 0 1 0 0 0 0 0 1 0 0 0 1 0 0 0 1 0 0 -4 0 0 -1 0 0 0 0 0 -1 0 0 0 -1 0 0 0 0 0 -1 0 0 0 -1 0 0 0 0 0 -1 0 0 0 -1 0 0 0 0 0 -1 0 0 0 0 0 -1 1 0 0 0 0 -1 0 0 0 0 0 -1 0 0 0 0 0 0 0 -1 0 0zm9 -11l2 3 0 0 0 1 0 0 -1 0 0 0 0 1 -1 0 0 0 0 0 -1 1 0 0 0 0 0 0 -1 1 0 0 0 0 0 0 -1 1 0 0 0 0 0 1 0 0 -1 0 0 0 0 1 0 0 0 0 0 1 -1 0 0 0 0 1 0 0 0 1 -4 -2 0 0 1 -1 0 0 0 0 0 -1 0 0 0 -1 1 0 0 0 0 -1 0 0 1 -1 0 0 0 0 0 -1 1 0 0 0 0 -1 1 0 0 0 0 -1 1 0 0 0 0 -1 1 0 0 0 0 -1 1 0 0 0 0 0 1 -1 0 0 0 0zm6 -2l1 4 0 0 0 0 0 0 -1 0 0 0 0 0 0 0 0 0 0 0 -1 0 0 0 0 0 0 0 0 0 0 0 0 0 -1 0 0 0 0 0 0 1 0 0 0 0 0 0 -1 0 0 0 0 0 0 0 0 0 0 0 0 0 0 0 -1 0 0 0 -2 -3 0 0 1 0 0 0 0 0 0 0 0 0 0 -1 1 0 0 0 0 0 0 0 0 0 0 0 1 0 0 0 0 0 0 0 0 0 1 0 0 -1 0 0 0 0 0 0 0 0 1 0 0 0 0 0 0 0 0 0 1 0 0 0 0 0 0 0zm7 -1l0 4 0 0 -1 0 0 0 0 0 0 0 0 0 -1 0 0 0 0 0 0 0 0 0 0 0 -1 0 0 0 0 0 0 0 0 0 -1 0 0 0 0 0 0 0 0 0 0 0 -1 0 0 0 0 0 0 0 0 0 0 0 -1 0 0 0 0 1 0 0 -1 -4 0 0 0 0 1 0 0 0 0 0 0 0 0 -1 1 0 0 0 0 0 0 0 0 0 1 0 0 0 0 0 0 0 0 0 1 0 0 0 0 0 0 0 0 0 1 0 0 0 0 0 0 0 0 0 1 0 0 0 0 0 0 0 1 0 0 0zm11 3l-2 3 0 0 0 0 0 0 -1 0 0 0 0 0 -1 0 0 -1 0 0 0 0 -1 0 0 0 0 0 -1 0 0 0 0 0 0 0 -1 -1 0 0 0 0 -1 0 0 0 0 0 -1 0 0 0 0 0 -1 0 0 0 0 0 0 0 -1 0 0 0 0 0 0 -4 0 0 0 0 1 0 0 0 0 0 1 0 0 0 1 0 0 0 0 0 1 0 0 0 0 1 1 0 0 0 1 0 0 0 0 0 1 0 0 0 0 0 1 0 0 1 0 0 1 0 0 0 0 0 1 0 0 0 0 1 1 0 0 0 0 0zm7 6l-4 2 0 0 0 0 0 0 0 0 0 0 0 -1 0 0 0 0 -1 0 0 0 0 0 0 -1 0 0 0 0 0 0 -1 0 0 0 0 -1 0 0 0 0 -1 0 0 0 0 0 0 0 0 -1 0 0 -1 0 0 0 0 0 0 0 0 0 -1 -1 0 0 2 -3 0 0 1 0 0 0 0 1 0 0 1 0 0 0 0 0 0 0 0 1 1 0 0 0 0 0 0 0 1 0 0 1 0 0 0 0 0 0 1 0 0 1 0 0 0 0 0 0 1 0 0 1 0 0 0 0 0 0 0 1 1 0 0 0 0 0zm3 11l-4 0 0 0 0 0 0 -1 0 0 0 0 0 -1 0 0 0 0 0 -1 0 0 0 0 0 0 0 -1 0 0 -1 0 0 -1 0 0 0 0 0 0 0 -1 0 0 0 0 0 0 0 -1 0 0 -1 0 0 0 0 -1 0 0 0 0 0 0 0 -1 -1 0 4 -2 0 0 0 1 0 0 0 0 1 1 0 0 0 0 0 0 0 1 0 0 1 0 0 1 0 0 0 0 0 1 0 0 0 0 0 1 0 0 0 0 0 1 1 0 0 1 0 0 0 0 0 1 0 0 0 0 0 1 0 0 0 0 0 1 0 0zm-1 7l-4 -2 0 0 0 0 0 0 0 0 0 0 0 0 0 0 0 -1 0 0 0 0 1 0 0 0 0 0 0 -1 0 0 0 0 0 0 0 0 0 -1 0 0 0 0 0 0 0 0 0 0 0 -1 0 0 0 0 0 0 0 0 0 -1 0 0 0 0 0 0 4 0 0 0 0 0 0 1 0 0 0 0 0 0 0 0 0 1 0 0 0 0 0 0 0 1 0 0 0 0 0 0 0 0 0 1 0 0 -1 0 0 0 0 1 0 0 0 0 0 0 0 0 0 1 0 0 0 0 0 0 0 0 0 1 0 0 0 0zm-8 5l-1 3 0 -3 0 0 0 0 0 -1 1 0 0 0 0 0 0 0 0 0 1 -1 0 0 0 0 0 0 0 0 1 0 0 -1 0 0 0 0 0 0 0 0 1 -1 0 0 0 0 0 0 0 -1 0 0 0 0 1 0 0 -1 0 0 0 0 0 0 0 -1 4 2 0 0 -1 0 0 1 0 0 0 0 0 1 0 0 0 0 -1 1 0 0 0 0 0 1 0 0 -1 0 0 0 0 1 0 0 0 0 -1 0 0 1 0 0 0 0 -1 0 0 1 0 0 -1 0 0 0 0 1 0 0 -1 0 0 0 0 0 -1 -3zm-1 3l-4 -1 4 -2 0 3zm10 4l-4 2 0 0 0 0 0 -1 0 0 -1 0 0 0 0 0 0 -1 0 0 0 0 0 0 0 0 -1 -1 0 0 0 0 0 0 0 0 0 0 -1 -1 0 0 0 0 0 0 -1 0 0 0 0 -1 0 0 0 0 -1 0 0 0 0 0 0 0 -1 0 0 -1 1 -3 1 0 0 0 0 0 1 0 0 1 0 0 1 0 0 0 0 0 1 0 0 1 0 0 1 0 0 0 0 1 0 0 1 0 0 0 0 1 0 0 1 0 0 0 0 1 0 0 0 0 1 0 0 1 0 0 0 0 0 1 0 0 1 0 0 0zm1 10l-4 0 0 0 0 0 0 -1 0 0 0 0 0 -1 0 0 0 0 0 -1 0 0 0 0 0 0 0 -1 0 0 0 0 0 -1 0 0 0 0 0 0 0 -1 0 0 0 0 -1 0 0 -1 0 0 0 0 0 0 0 0 0 0 0 -1 0 0 0 0 0 0 4 -2 0 1 0 0 0 0 0 0 0 1 0 0 0 0 0 0 0 1 0 0 0 0 0 0 0 1 0 0 1 0 0 1 0 0 0 0 0 1 0 0 0 0 0 0 0 1 0 0 0 1 0 0 0 0 0 1 0 0 0 0 0 1 0 0 0 0zm-4 17l0 -17 4 0 0 17 -2 2 -2 -2zm4 0l0 2 -2 0 2 -2z"/>
     </g>
     <g>
      <path id="10" class="fil3" d="M535 171l8 0 0 4 -8 0 0 0 0 -4zm-8 3l1 -4 0 0 0 0 0 0 1 0 0 0 0 0 0 0 0 0 1 0 0 0 0 0 0 0 0 0 1 0 0 1 0 0 0 0 0 0 1 0 0 0 0 0 0 0 1 0 0 0 0 0 0 0 1 0 0 0 0 0 0 0 0 0 1 0 0 0 0 4 0 0 -1 0 0 0 0 0 0 0 -1 0 0 0 0 0 0 0 -1 0 0 0 0 0 0 -1 -1 0 0 0 0 0 0 0 -1 0 0 0 0 0 0 0 0 0 -1 0 0 0 0 0 0 0 -1 0 0 0 0 0 0 0 0 0 -1 0 0 0zm-6 -3l2 -3 0 0 0 0 0 0 0 0 0 0 1 0 0 0 0 1 0 0 0 0 0 0 1 0 0 0 0 0 0 0 0 0 0 0 1 0 0 0 0 0 0 1 0 0 0 0 1 0 0 0 0 0 0 0 0 0 0 0 1 0 0 0 0 0 0 0 -1 4 0 0 0 0 0 0 -1 0 0 0 0 0 0 0 0 -1 -1 0 0 0 0 0 0 0 0 0 -1 0 0 0 0 0 0 0 -1 0 0 0 0 -1 0 0 0 0 -1 0 0 0 0 0 0 0 0 0 -1 0 0 -1 0 0 0 0 0 0 0 0zm-8 -10l4 -1 0 0 0 0 0 0 0 1 0 0 0 0 0 1 0 0 1 0 0 0 0 1 0 0 0 0 0 1 1 0 0 0 0 0 0 1 0 0 1 0 0 0 0 1 0 0 0 0 1 0 0 0 0 1 0 0 1 0 0 0 0 0 0 1 1 0 -2 3 -1 0 0 0 0 -1 -1 0 0 0 0 0 -1 -1 0 0 0 0 -1 -1 0 0 0 0 0 0 -1 -1 0 0 0 0 0 -1 -1 0 0 0 0 -1 0 0 0 0 -1 -1 0 0 0 0 0 -1 0 0 -1 -1 0 0 0 0 0 -1 0 0 0 0zm-2 -10l4 0 0 0 0 0 0 0 0 1 0 0 0 0 0 1 0 0 0 0 0 0 0 1 0 0 0 0 0 1 0 0 1 0 0 0 0 1 0 0 0 0 0 1 0 0 0 0 0 0 0 1 0 0 0 0 0 0 0 1 0 0 0 0 0 0 1 1 -4 1 0 0 0 -1 0 0 0 0 -1 -1 0 0 0 0 0 0 0 -1 0 0 0 0 0 -1 0 0 0 0 0 -1 0 0 0 0 0 -1 0 0 0 0 0 -1 -1 0 0 0 0 -1 0 0 0 0 0 -1 0 0 0 0 0 -1 0 0 0 0 0 0zm4 -41l0 41 -4 0 0 -41 2 -2 2 2zm-4 0l0 -2 2 0 -2 2zm11 2l-9 0 0 -4 9 0 2 2 -2 2zm0 -4l2 0 0 2 -2 -2zm-2 43l0 -41 4 0 0 41 0 0 -4 0zm4 5l-4 1 0 0 0 -1 0 0 0 0 0 0 0 0 0 0 0 -1 0 0 0 0 0 0 0 0 0 0 0 -1 0 0 0 0 0 0 0 0 0 -1 0 0 0 0 0 0 0 0 0 0 0 -1 0 0 0 0 0 0 0 -1 0 0 0 0 0 0 0 0 4 0 0 0 0 0 0 0 0 0 0 1 0 0 0 0 0 0 0 0 0 0 0 1 0 0 0 0 0 0 0 0 0 0 0 1 0 0 0 0 0 0 0 0 0 0 0 1 0 0 0 0 0 0 0 0 0 0 0 0 0 0 0 1 0 0 0 0zm3 4l-3 3 0 0 0 0 0 0 0 0 0 0 -1 -1 0 0 0 0 0 0 0 0 0 0 -1 -1 0 0 0 0 0 0 0 0 0 -1 0 0 0 0 -1 0 0 -1 0 0 0 0 0 0 0 0 0 -1 0 0 0 0 0 0 0 -1 -1 0 0 0 0 0 4 -1 0 0 0 0 0 0 0 0 0 1 0 0 1 0 0 0 0 0 0 0 0 1 0 0 0 0 0 0 0 0 0 0 0 1 0 0 0 0 1 0 0 0 0 0 0 0 0 0 0 1 0 0 0 0 0 0 1 0 0 0 0 0 0 0 0 0zm4 2l-1 4 0 0 0 0 -1 0 0 0 0 0 0 0 0 0 0 0 -1 0 0 0 0 0 0 0 0 0 -1 -1 0 0 0 0 0 0 0 0 0 0 -1 0 0 0 0 0 0 0 0 -1 0 0 -1 0 0 0 0 0 0 0 0 0 0 0 -1 -1 0 0 3 -3 0 1 0 0 0 0 0 0 0 0 1 0 0 0 0 0 0 0 0 0 0 0 0 0 0 1 0 0 1 0 0 0 0 0 0 0 0 0 0 0 0 0 0 0 1 0 0 0 0 0 0 0 0 0 0 0 0 0 0 0 1 0 0 0 0 0zm4 1l0 4 0 0 0 0 -1 0 0 0 0 0 0 0 0 0 0 0 -1 0 0 0 0 0 0 0 0 0 0 0 -1 0 0 0 0 0 0 0 0 0 0 0 -1 0 0 0 0 0 0 0 0 -1 0 0 0 0 0 0 -1 0 0 0 0 0 0 0 0 0 1 -4 0 1 0 0 0 0 0 0 0 0 0 0 0 0 0 0 1 0 0 0 0 0 0 0 0 0 0 0 0 0 0 0 1 0 0 0 0 0 0 0 0 0 0 0 0 0 1 0 0 0 0 0 0 0 0 0 0 0 0 0 1 0 0 0 0 0zm8 4l-8 0 0 -4 8 0 2 2 -2 2zm0 -4l2 0 0 2 -2 -2zm-2 10l0 -8 4 0 0 8 -2 2 -2 -2zm4 0l0 2 -2 0 2 -2z"/>
     </g>
     <g>
      <path id="11" class="fil3" d="M608 156l-4 -1 0 0 0 -1 0 0 1 -1 0 0 0 0 0 -1 0 0 0 0 1 -1 0 0 0 -1 0 0 0 -1 0 0 0 0 0 -1 0 0 1 -1 0 0 0 0 0 -1 0 0 0 -1 0 0 0 -1 0 0 0 0 0 -1 0 0 0 -1 0 0 0 -1 4 0 0 1 0 0 0 1 0 0 0 1 0 0 0 1 0 0 0 1 0 0 0 1 0 0 -1 1 0 0 0 1 0 0 0 1 0 0 0 1 0 0 0 0 -1 1 0 0 0 1 0 0 0 1 0 0 -1 1 0 0 0 1 0 0 0 0 0 0zm-11 13l-2 -3 0 0 0 -1 0 0 1 0 0 0 0 -1 1 0 0 0 0 -1 1 0 0 0 0 -1 1 0 0 0 0 -1 1 0 0 0 0 -1 1 0 0 0 0 -1 0 0 1 0 0 -1 0 0 0 -1 1 0 0 0 0 -1 0 0 1 -1 0 0 0 0 4 1 -1 1 0 0 0 1 0 0 -1 1 0 0 0 1 -1 0 0 0 0 1 0 0 -1 1 0 0 0 1 -1 0 0 0 0 1 -1 0 0 0 0 1 -1 0 0 1 -1 0 0 0 0 1 -1 0 0 0 -1 1 0 0 0 0 -1 1 0 0 0 0zm-18 6l0 -4 0 0 0 0 1 0 0 0 1 0 0 0 1 0 1 -1 0 0 1 0 0 0 1 0 0 0 1 0 0 0 1 0 0 -1 1 0 0 0 1 0 0 0 0 0 1 -1 0 0 1 0 0 0 1 -1 0 0 1 0 0 0 1 -1 0 0 1 0 2 3 -1 0 0 1 -1 0 0 0 -1 1 0 0 -1 0 0 0 -1 1 0 0 -1 0 -1 0 0 1 -1 0 0 0 -1 0 0 0 -1 0 0 1 -1 0 -1 0 0 0 -1 0 0 0 -1 0 -1 0 0 0 -1 1 0 0 -1 0 -1 0 0 0 0 0zm-4 -4l4 0 0 4 -4 0 -2 -2 2 -2zm0 4l-2 0 0 -2 2 2zm1 -10l0 8 -3 0 0 -8 2 -2 1 2zm-3 0l0 -2 2 0 -2 2zm5 2l-3 0 0 -4 3 0 0 0 0 4zm15 -11l3 3 0 0 0 0 -1 1 0 0 -1 1 0 0 -1 0 0 1 -1 0 0 1 -1 0 0 0 -1 1 0 0 -1 0 0 0 -1 1 -1 0 0 0 -1 0 0 1 -1 0 -1 0 0 0 -1 0 0 0 -1 0 -1 1 0 0 -1 0 -1 0 0 0 -1 0 0 -4 0 0 1 0 1 0 0 0 1 0 0 0 1 -1 0 0 1 0 0 0 1 0 0 0 1 0 0 0 1 -1 0 0 1 0 0 0 1 -1 0 0 1 0 0 0 1 -1 0 0 0 0 1 -1 0 0 1 0 0 -1 0 0 1 0 0 -1 0 0zm5 -15l4 0 0 0 0 1 0 1 0 0 0 1 0 0 0 1 0 1 0 0 0 1 0 0 0 1 -1 0 0 1 0 1 0 0 0 1 0 0 -1 1 0 0 0 1 0 0 -1 1 0 0 0 1 -1 0 0 1 0 0 -1 1 0 0 0 1 -1 0 0 1 -3 -3 0 0 1 -1 0 0 0 0 1 -1 0 0 0 -1 0 0 1 0 0 -1 0 0 0 -1 0 0 1 -1 0 0 0 -1 0 0 0 -1 0 0 1 0 0 -1 0 0 0 -1 0 0 0 -1 0 -1 0 0 0 -1 0 0 0 -1 0 0 0 -1 0 0zm-5 -14l3 -3 0 0 0 0 1 1 0 0 0 1 1 0 0 1 0 0 1 1 0 0 0 1 1 0 0 1 0 0 0 1 1 0 0 1 0 0 0 1 0 0 0 1 1 1 0 0 0 1 0 0 0 1 0 1 0 0 0 1 0 0 0 1 0 1 0 0 -4 0 0 0 0 -1 0 0 0 -1 0 0 0 -1 0 0 0 -1 0 0 0 -1 0 0 0 -1 -1 0 0 -1 0 0 0 -1 0 0 0 -1 -1 0 0 -1 0 0 0 0 0 -1 -1 0 0 -1 0 0 0 -1 -1 0 0 0 0 -1 -1 0 0 0 0 0zm-17 -7l0 -4 0 0 1 0 1 0 1 0 0 0 1 0 1 0 0 0 1 0 1 0 0 1 1 0 1 0 0 0 1 0 1 1 0 0 1 0 1 0 0 1 1 0 0 0 1 1 0 0 1 0 1 1 0 0 1 1 0 0 1 0 0 1 1 0 0 1 -3 3 0 -1 -1 0 0 -1 -1 0 0 0 0 -1 -1 0 0 0 -1 -1 0 0 -1 0 0 -1 -1 0 0 0 -1 0 0 -1 -1 0 0 0 -1 0 0 0 -1 0 0 -1 -1 0 -1 0 0 0 -1 0 0 0 -1 0 -1 0 0 0 -1 0 -1 0 0 0zm-5 -4l5 0 0 4 -5 0 -2 -2 2 -2zm-2 2l0 -2 2 0 -2 2zm0 55l0 -55 4 0 0 55 -2 2 -2 -2zm4 0l0 2 -2 0 2 -2zm-10 -2l8 0 0 4 -8 0 -2 -2 2 -2zm0 4l-2 0 0 -2 2 2zm1 -65l0 63 -3 0 0 -63 2 -2 1 2zm-3 0l0 -2 2 0 -2 2zm14 2l-12 0 0 -4 12 0 0 0 0 4zm17 -1l-1 4 0 0 -1 -1 0 0 -1 0 0 0 0 0 -1 0 0 0 -1 -1 0 0 -1 0 0 0 0 0 -1 0 0 0 -1 0 0 0 -1 -1 0 0 -1 0 0 0 -1 0 0 0 -1 0 0 0 -1 0 0 0 -1 0 0 0 -1 0 -1 0 0 0 -1 0 0 -4 1 0 1 0 0 0 1 0 0 0 1 0 0 0 1 0 1 0 0 0 1 0 0 0 1 0 0 1 1 0 0 0 1 0 0 0 1 0 0 0 1 0 0 0 1 0 0 1 1 0 0 0 1 0 0 0 1 0 0 1 1 0 0 0 0 0zm16 15l-4 2 0 0 0 -1 -1 0 0 -1 0 0 -1 -1 0 -1 0 0 -1 -1 0 0 0 -1 -1 0 0 0 -1 -1 0 0 0 -1 -1 0 0 -1 -1 0 0 0 0 -1 -1 0 0 -1 -1 0 0 0 -1 -1 0 0 -1 0 0 0 -1 -1 0 0 -1 0 0 0 1 -4 1 0 0 1 1 0 1 0 0 1 1 0 0 0 1 1 0 0 1 0 0 1 1 0 1 1 0 0 1 1 0 0 0 0 1 1 0 0 1 1 0 1 1 0 0 1 1 0 0 1 0 0 1 1 0 1 0 0 1 1 0 0 1 1 0 0zm3 15l-4 0 0 0 0 0 0 -1 0 0 0 -1 0 0 0 0 0 -1 0 0 0 -1 0 0 0 -1 0 0 0 0 0 -1 -1 0 0 -1 0 0 0 0 0 -1 0 0 0 -1 0 0 0 -1 -1 0 0 0 0 -1 0 0 0 -1 0 0 -1 0 0 -1 0 0 4 -2 0 1 0 0 0 0 0 1 1 0 0 1 0 0 0 1 0 0 0 1 1 0 0 1 0 0 0 1 0 0 0 0 0 1 0 0 0 1 1 0 0 1 0 0 0 1 0 0 0 1 0 0 0 1 0 0 0 1 0 0 0 1 0 0 0 0z"/>
     </g>
     <path id="12" class="fil3" d="M303 99l-6 0c-10,0 -19,-4 -25,-10 -5,-6 -8,-13 -8,-22 0,-8 3,-15 8,-21 6,-7 15,-10 25,-10l6 0 0 8 -5 0c-7,0 -12,2 -17,5 -4,3 -7,8 -8,13l30 0 0 8 -30 0c0,6 3,11 7,15 4,4 10,6 16,6l7 0 0 8z"/>
     <path id="13" class="fil3" d="M344 99l-7 0c-3,0 -6,0 -8,-1 -2,0 -4,-1 -6,-2 -3,-3 -5,-6 -7,-10 -1,-2 -1,-6 -1,-9l0 -41 8 0 0 41c0,2 0,4 1,5 0,3 2,5 3,6 2,1 3,2 5,3 1,0 2,0 4,0l8 0 0 8z"/>
     <path id="14" class="fil3" d="M390 99l-7 0c-10,0 -18,-4 -24,-10 -6,-6 -8,-13 -8,-22 0,-8 2,-15 8,-21 6,-7 14,-10 25,-10l6 0 0 8 -6 0c-6,0 -12,2 -16,5 -5,3 -8,8 -9,13l31 0 0 8 -31 0c1,6 3,11 8,15 4,4 9,6 16,6l7 0 0 8z"/>
     <path id="15" class="fil3" d="M439 99l-6 0c-6,0 -11,-1 -15,-2 -6,-3 -11,-7 -14,-13 -2,-2 -3,-5 -3,-8 -1,-3 -2,-6 -2,-9 0,-6 2,-11 5,-16 3,-4 6,-7 10,-10 3,-1 6,-3 9,-4 4,0 7,-1 11,-1l5 0 0 8 -6 0c-5,0 -10,1 -14,4 -4,2 -6,5 -8,8 -2,4 -3,7 -3,11 0,3 1,5 1,8 1,2 2,4 3,6 3,4 6,7 10,8 3,1 6,2 10,2l7 0 0 8z"/>
     <polygon id="16" class="fil3" points="484,44 469,44 469,99 460,99 460,44 445,44 445,36 484,36 "/>
     <path id="17" class="fil3" d="M534 99l-8 0 0 -17c0,-4 -2,-7 -4,-9 -2,-1 -4,-2 -7,-2l-11 0 0 -7 8 0c4,0 8,-2 10,-4 2,-2 3,-4 3,-7 0,-2 -1,-4 -2,-6 -1,-1 -3,-2 -4,-3 -2,-1 -3,-1 -5,-1 -2,0 -3,0 -3,0 -1,0 -2,1 -3,1 -3,2 -5,4 -6,7 0,2 -1,5 -1,8l0 40 -8 0 0 -40c0,-5 0,-8 1,-11 2,-4 4,-8 8,-10 2,-1 4,-2 6,-2 2,-1 4,-1 6,-1 3,0 7,1 10,3 3,1 5,3 6,5 2,3 3,6 3,10 0,2 0,4 -1,6 -1,4 -3,6 -6,8 3,1 6,3 7,6 1,2 1,5 1,9l0 17z"/>
     <path id="18" class="fil3" d="M609 67c0,9 -3,17 -10,23 -6,7 -14,10 -23,10 -8,0 -16,-3 -22,-10 -7,-6 -10,-14 -10,-23 0,-8 3,-16 10,-22 6,-7 14,-10 22,-10 9,0 17,3 23,10 7,6 10,14 10,22zm-9 0c0,-6 -2,-12 -7,-17 -4,-5 -10,-7 -17,-7 -6,0 -12,2 -17,7 -4,5 -6,11 -6,17 0,7 2,13 6,18 5,4 11,7 17,7 7,0 13,-3 17,-7 5,-5 7,-11 7,-18z"/>
     <path id="19" class="fil3" d="M337 150c0,5 -1,9 -2,12 -1,4 -4,7 -9,10 -2,1 -5,2 -9,2 -2,0 -4,-1 -6,-1 -2,-1 -4,-2 -5,-3 -2,-1 -3,-3 -5,-5 -1,2 -2,4 -4,5 -1,1 -3,2 -5,3 -2,0 -4,1 -6,1 -4,0 -7,-1 -10,-2 -4,-2 -7,-6 -8,-10 -1,-3 -2,-7 -2,-12l0 -40 8 0 0 40c0,4 1,6 1,8 1,2 2,5 5,6 1,1 1,1 2,1 1,1 3,1 4,1 2,0 5,-1 6,-2 3,-2 4,-4 5,-6 0,-1 0,-4 0,-8l0 -40 9 0 0 40c0,4 0,7 0,8 1,2 2,4 4,6 2,1 4,2 7,2 2,0 5,-1 6,-2 3,-1 4,-3 5,-6 0,-2 0,-4 0,-8l0 -40 9 0 0 40z"/>
     <path id="20" class="fil3" d="M425 141c0,9 -3,17 -9,23 -7,6 -14,10 -23,10 -9,0 -17,-4 -23,-10 -7,-6 -10,-14 -10,-23 0,-9 3,-16 10,-23 6,-6 14,-9 23,-9 9,0 16,3 23,9 6,7 9,14 9,23zm-8 0c0,-6 -3,-12 -7,-17 -5,-5 -10,-7 -17,-7 -7,0 -13,2 -17,7 -5,5 -7,11 -7,17 0,7 2,13 7,17 4,5 10,8 17,8 7,0 12,-3 17,-8 4,-4 7,-10 7,-17z"/>
     <path id="21" class="fil3" d="M490 173l-8 0 0 -17c0,-4 -2,-7 -4,-9 -2,-1 -4,-2 -7,-2l-11 0 0 -8 7 0c5,0 8,-1 11,-3 2,-2 2,-4 2,-7 0,-2 0,-5 -2,-6 -1,-2 -2,-2 -3,-3 -2,-1 -4,-1 -5,-1 -2,0 -3,0 -4,0 0,0 -1,0 -2,1 -3,1 -5,4 -6,7 -1,2 -1,4 -1,8l0 40 -8 0 0 -40c0,-5 0,-8 1,-11 2,-4 4,-8 8,-10 2,-1 4,-2 5,-2 2,-1 4,-1 7,-1 3,0 7,1 10,3 3,1 5,3 6,5 2,3 3,6 3,10 0,2 0,4 -1,6 -1,3 -3,6 -6,8 3,1 5,3 7,6 1,2 1,5 1,9l0 17z"/>
     <path id="22" class="fil3" d="M543 173l-8 0c-3,0 -5,-1 -7,-1 -2,0 -4,-1 -6,-3 -4,-2 -6,-5 -7,-9 -1,-3 -2,-6 -2,-9l0 -41 9 0 0 41c0,2 0,4 0,5 1,2 2,4 4,6 1,1 3,2 4,2 1,1 3,1 5,1l8 0 0 8z"/>
     <path id="23" class="fil3" d="M609 141c0,5 -1,10 -3,15 -3,4 -6,8 -10,11 -5,4 -11,6 -17,6l-4 0 0 -8 3 0c7,0 12,-3 17,-8 3,-4 5,-9 5,-16 0,-6 -2,-11 -5,-16 -5,-5 -11,-7 -19,-7l-5 0 0 55 -8 0 0 -63 12 0c7,0 12,1 16,3 7,3 11,7 15,14 2,4 3,9 3,14z"/>
     <path class="fil3" d="M385 209l-12 0 0 15 -4 0 0 -24c0,-3 0,-5 2,-7 2,-3 5,-4 10,-4l4 0 0 4 -4 0c-2,0 -4,0 -5,1 -2,1 -3,3 -3,6l0 4 12 0 0 5z"/>
     <path id="1" class="fil3" d="M421 224l-17 0c-2,0 -3,0 -4,0 -1,-1 -2,-2 -2,-4 0,-1 0,-2 1,-3 0,0 0,-1 1,-2l16 -22 -16 0 0 -4 15 0c2,0 3,0 4,0 1,1 2,2 2,3 0,1 0,1 0,2 -1,1 -1,2 -2,3l-16 22 18 0 0 5z"/>
     <path id="2" class="fil3" d="M454 224l-3 0c-3,0 -6,-1 -8,-1 -4,-2 -6,-4 -8,-7 -1,-2 -2,-3 -2,-5 -1,-1 -1,-3 -1,-5 0,-3 1,-6 3,-9 1,-2 3,-4 5,-5 2,-1 4,-2 6,-3 2,0 4,0 6,0l2 0 0 4 -3 0c-3,0 -6,1 -8,2 -2,2 -3,3 -4,5 -1,2 -2,4 -2,6 0,2 0,3 1,4 0,2 1,3 1,4 2,2 4,4 6,5 1,0 3,0 5,0l4 0 0 5z"/>
     <path id="3" class="fil3" d="M504 206c0,5 -1,10 -5,13 -4,4 -8,5 -13,5 -5,0 -9,-1 -13,-5 -3,-3 -5,-8 -5,-13 0,-5 2,-9 5,-13 4,-3 8,-5 13,-5 5,0 9,2 13,5 4,4 5,8 5,13zm-4 0c0,-3 -2,-7 -4,-9 -3,-3 -6,-4 -10,-4 -4,0 -7,1 -9,4 -3,2 -4,6 -4,9 0,4 1,7 4,10 2,3 5,4 9,4 4,0 7,-1 10,-4 2,-3 4,-6 4,-10z"/>
     <rect class="fil4" x="524" y="204" width="85.427" height="3.75654"/>
     <rect class="fil4" x="264" y="204" width="85.427" height="3.75654"/>
    </g>
   </g>
   <rect class="fil5" width="645" height="229"/>
  </g>
 </g>
</svg>
