<?xml version="1.0" encoding="UTF-8"?>
<!DOCTYPE svg PUBLIC "-//W3C//DTD SVG 1.1//EN" "http://www.w3.org/Graphics/SVG/1.1/DTD/svg11.dtd">
<!-- Creator: CorelDRAW X7 -->
<svg xmlns="http://www.w3.org/2000/svg" xml:space="preserve" width="125.092mm" height="20.811mm" version="1.1" style="shape-rendering:geometricPrecision; text-rendering:geometricPrecision; image-rendering:optimizeQuality; fill-rule:evenodd; clip-rule:evenodd"
viewBox="0 0 5656 941"
 xmlns:xlink="http://www.w3.org/1999/xlink">
 <defs>
  <style type="text/css">
   <![CDATA[
    .fil5 {fill:#AD854B}
    .fil4 {fill:#AD854B;fill-rule:nonzero}
    .fil2 {fill:url(#id0)}
    .fil3 {fill:url(#id1)}
    .fil1 {fill:url(#id2)}
    .fil0 {fill:url(#id3)}
   ]]>
  </style>
  <linearGradient id="id0" gradientUnits="userSpaceOnUse" x1="3750.51" y1="456.389" x2="3750.51" y2="62.0359">
   <stop offset="0" style="stop-opacity:1; stop-color:#242F3C"/>
   <stop offset="1" style="stop-opacity:1; stop-color:#1F4A72"/>
  </linearGradient>
  <linearGradient id="id1" gradientUnits="userSpaceOnUse" x1="3750.51" y1="679.424" x2="3750.51" y2="521.757">
   <stop offset="0" style="stop-opacity:1; stop-color:#042E4A"/>
   <stop offset="1" style="stop-opacity:1; stop-color:#19537A"/>
  </linearGradient>
  <linearGradient id="id2" gradientUnits="userSpaceOnUse" x1="821.744" y1="0" x2="821.744" y2="940.983">
   <stop offset="0" style="stop-opacity:1; stop-color:#115785"/>
   <stop offset="1" style="stop-opacity:1; stop-color:#242F3C"/>
  </linearGradient>
  <linearGradient id="id3" gradientUnits="userSpaceOnUse" x1="1248.07" y1="124.126" x2="999.13" y2="829.182">
   <stop offset="0" style="stop-opacity:1; stop-color:#C2A57C"/>
   <stop offset="1" style="stop-opacity:1; stop-color:#94703E"/>
  </linearGradient>
 </defs>
 <g id="Layer_x0020_1">
  <metadata id="CorelCorpID_0Corel-Layer"/>
  <g id="_1815447646128">
   <path class="fil0" d="M1132 456l1 111c9,3 112,-6 121,-11 2,-28 -6,-81 -11,-109 -4,-1 -45,5 -54,5l-57 4zm-4 -207c-1,-4 0,-1 -2,-2 1,3 -1,2 2,2zm274 154c1,-2 1,-2 1,-4 -1,-2 -2,-3 -3,-3l2 7zm-7 -20c0,0 2,1 3,-1 0,-3 0,-2 -2,-3 -1,0 -1,1 -1,2l0 2zm-88 -120c-3,-4 -5,-6 -8,-8 1,3 1,3 3,5 3,3 1,2 5,3zm-212 -17l1 2c3,0 5,1 7,-1 -3,-2 -3,-1 -8,-1 3,-7 5,-5 8,-8 3,-2 0,-1 6,-7 1,-1 1,0 2,-2 -8,1 -4,5 -9,7 -3,-4 3,-13 6,-15 3,-3 2,-2 3,-2 5,-1 1,-5 12,-6l1 -10c-4,2 -4,2 -7,4l-3 3c1,-3 -1,0 2,-3 2,-1 0,0 1,0 1,-2 0,-2 2,-4 -7,2 -15,7 -24,9 3,-4 5,-3 9,-5 4,-1 7,-1 9,-4 -29,2 -68,18 -74,18 -3,1 -8,3 -10,5 2,3 5,5 9,8 7,3 7,4 13,0 5,-3 17,-11 23,-13l-3 2c-1,1 -2,2 -4,2 -5,3 -15,9 -19,13 6,4 17,5 25,5 2,-4 3,-7 8,-7l-5 7c10,-2 7,-4 15,-12 5,-5 7,-8 13,-13 -1,3 -3,3 -5,6 -7,9 -11,12 -13,23 6,0 5,-1 9,-1zm31 -5c2,2 -3,2 4,1 2,0 3,0 4,-1 -2,-2 -6,-2 -8,0zm-61 522c1,1 -1,0 2,1 0,0 2,0 2,0 3,0 2,0 5,1l30 3c-6,-3 -1,-4 -6,-11 -1,-1 -3,-5 -4,-6 -1,-4 2,-2 -1,-6l-51 -5c6,7 14,16 24,21l-1 0c-7,-2 -16,-9 -20,-13 -10,-9 -2,-8 -21,-12 -19,-3 -34,-8 -51,-13 -1,1 -1,0 0,1 1,1 1,1 2,1 2,2 1,1 1,2 -2,-1 1,1 -2,-1 -2,-1 -1,0 -1,-2l-12 -6c-4,-2 -9,-5 -12,-6 3,2 6,4 9,6l28 17c0,1 0,1 1,2 2,1 2,1 3,1 2,1 3,1 6,2 4,1 11,5 16,7 5,2 11,4 17,6 11,4 24,8 36,10zm117 2c4,-1 7,0 10,-3 11,-2 25,-6 36,-10 5,-2 11,-4 16,-6 6,-2 11,-5 16,-7l33 -25c2,1 0,-2 1,2 -1,1 -2,1 -3,1 -2,1 -3,2 -4,3 -2,2 -4,4 -7,5 -1,3 0,2 -4,3 1,-1 0,-1 2,-2 2,-2 0,0 2,-1 1,-2 3,-2 5,-5 -3,1 -8,3 -12,4 -11,4 -28,8 -40,11 -14,2 -10,0 -17,8 -2,2 -2,2 -4,4 -5,5 -12,11 -20,14l0 -1c8,-6 18,-12 24,-22 -13,2 -11,1 -20,6 -6,3 -13,4 -19,7 -10,6 -10,11 -30,15 -3,0 -1,0 -3,0 -1,1 -2,2 -2,2 6,3 32,-4 40,-3zm-249 -511c-2,0 0,-2 -2,2 -1,0 -1,3 -2,4 -2,1 -4,5 -5,9 11,-4 6,2 15,-1 1,-1 1,-1 2,-3 0,-6 -3,0 0,-4l12 -12c2,-1 5,0 9,0l0 4c9,-2 3,-3 11,-10 7,-5 7,-4 17,-2 6,1 19,-10 31,-13 -2,-7 -4,-6 -1,-15 -12,2 -27,10 -34,12l-23 12 -6 3c0,0 0,-1 1,-1 0,0 2,-1 2,-1 2,-1 0,-1 3,-1l11 -7c4,-2 8,-4 12,-5 8,-5 23,-8 33,-12 4,-2 5,-4 7,-5 2,-2 4,-4 6,-5 5,-3 10,-6 16,-7l0 2c-7,1 -16,7 -19,11 26,-8 57,-8 83,-8 -3,-2 -4,-2 -7,-2l-19 -3 0 -1c12,1 22,4 33,5 -1,-2 0,0 -2,-2 -2,-1 -13,-5 -16,-6 -7,-2 -15,-3 -22,-3 -5,0 -8,2 -11,2 -5,0 -17,1 -21,4 -4,1 -11,3 -16,5 -22,9 -20,6 -46,19 -11,6 -47,28 -52,35zm183 95l1 2 6 0 1 -6 -9 -1 1 5zm144 390c2,-1 3,-2 6,-2 1,-1 2,-1 3,-2 2,-1 1,-1 2,-2 1,0 1,-1 1,-2 -3,1 -4,2 -7,3 -2,2 -4,2 -5,5zm64 -458c1,-5 1,-3 -3,-5 -3,-2 -4,-3 -7,-4 2,2 3,3 5,5 3,3 2,3 5,4zm-21 -34l-14 -10c0,6 10,10 14,10zm-247 22c5,-1 10,-2 9,-7 -3,-1 -4,0 -6,2 -1,2 -2,3 -3,5zm295 51c-1,-6 -4,-5 -9,-8 -4,-3 -5,-5 -10,-7 2,2 14,14 19,15zm-132 -120c-1,-1 1,-1 -2,-2 -1,-1 -15,-5 -19,-4 3,1 4,2 7,3 4,1 5,1 8,2 7,5 33,12 43,15 -3,2 -5,1 -8,-1 -7,-2 -19,-7 -25,-7l2 2c1,1 2,2 3,2l22 7c9,3 17,7 27,10 -8,-6 -18,-11 -27,-16 -5,-2 -27,-11 -31,-11zm-51 5c1,2 -2,1 3,3 0,0 3,0 3,0 3,0 5,0 7,1l0 1c11,1 24,2 34,6 -1,1 0,1 -2,1l-8 -1 16 5c3,-5 2,-8 -1,-12 -5,0 -27,-5 -40,-6 -15,-1 -29,-2 -45,-2 32,0 32,-2 64,2 5,1 17,4 19,3 -3,-2 -2,-3 -7,-4 -3,-2 -7,-3 -10,-4l0 0 3 0c-1,-1 1,-1 -2,-1 -3,-1 -1,-1 -3,-1 -13,1 -24,-2 -50,1 -2,0 -5,1 -7,1 6,-1 13,-3 19,-4 11,-1 25,-2 35,0 -8,-4 -26,-6 -37,-6 0,-3 -3,-3 -6,-2l-28 -1c-1,5 -1,11 -1,16 5,-2 5,-4 10,-6l-5 5c2,0 5,0 7,-1 -1,1 -2,1 -3,2l1 0c2,1 1,0 3,1l15 2c4,1 13,3 16,1zm-28 2l10 6c-1,-1 -1,-3 -3,0 -1,1 -1,1 -1,1l11 -1c3,1 13,4 15,7 2,0 0,-1 2,0 2,1 1,1 2,2 -2,-1 0,0 -2,-1 -2,-1 -1,-1 -2,-1l-5 -2c2,3 -1,1 3,3 3,3 4,1 8,6 4,5 2,0 13,6l-2 2 4 4 6 -2c-2,-3 -15,-10 -20,-13l-3 -2c5,0 18,9 22,12 7,4 17,-5 21,-10l-1 0c0,0 -1,-1 -1,-1 -1,0 -3,0 -4,-1 -2,0 -4,-1 -6,-2 -3,-1 -7,-4 -10,-4 1,1 3,2 4,3 -7,-3 -15,-4 -22,-6l-6 -2c-3,-2 0,1 0,-1 -10,-3 -31,-7 -41,-7 4,3 5,2 8,4zm-233 331c-1,-2 -8,-16 -10,-17 0,4 1,7 2,11 0,3 -1,4 8,6zm14 -270c0,0 0,-1 0,-1 1,2 0,1 3,-2 2,-3 1,-2 2,-5 -6,3 -9,6 -13,11 -3,5 -7,7 -10,13 -5,4 -27,30 -29,37l-9 13c-7,13 -18,33 -5,47l3 -4c7,-15 13,-26 23,-40 4,-5 7,-8 10,-14 -2,-2 -1,1 -3,-2 3,-3 6,-6 9,-9 -15,4 -23,16 -29,14 -1,-3 0,-2 1,-5l14 -9c6,-4 11,-7 13,-13 -2,0 -1,1 -2,0l-1 0c5,-13 18,-20 23,-31zm135 -16c2,7 8,0 15,0 4,0 3,1 5,-1l-5 -2c-2,0 -3,0 -5,0 -3,1 -8,1 -10,3zm215 481c7,-4 14,-8 21,-12 3,-2 17,-13 19,-13 3,-1 1,0 4,-1l1 -4c2,-2 8,-6 11,-9 14,-13 15,-12 30,-30 8,-11 27,-37 30,-49 -7,6 -15,12 -25,18 -14,7 -17,6 -20,12 -6,14 -10,22 -18,34 -5,8 -14,20 -19,24l-1 -1c1,-2 8,-10 10,-13 3,-4 7,-10 9,-14 5,-9 12,-21 15,-31 -6,1 -14,5 -21,7 -7,2 -13,4 -21,6l-45 10c-6,19 -10,35 -19,52 -2,4 -8,12 -8,15 20,-4 55,-11 69,-20l-13 11 -9 8zm6 -5l-6 5 6 -5zm-164 -480c3,2 6,1 10,1l1 -16c-6,3 -2,7 -9,12 -2,2 -1,0 -2,3zm89 84l8 -1c-1,-3 -6,-17 -9,-20l1 21zm-158 -54l1 8c10,2 15,-7 18,-15 -9,1 -6,1 -9,7 -3,5 -6,1 -10,0zm51 170l29 1 0 -6 -6 3c0,-2 1,-2 -1,-7 -5,1 -19,6 -22,9zm234 -163c5,7 4,4 12,14 3,5 7,11 10,15 8,-10 -15,-22 -14,-28 0,-2 -4,-5 -6,-6 0,0 0,0 0,1l-1 1c-1,1 -1,2 -1,3zm-204 -77c-1,4 -1,4 1,5 4,1 1,-4 5,3 0,3 0,0 -1,4 -1,1 -1,3 -1,5 -2,5 -5,2 -3,9 7,0 5,-8 5,-9 0,-2 1,-1 1,-3 3,-5 -1,-6 8,-6 -2,-2 -5,-5 -7,-8 2,-2 0,0 3,-1 -2,-3 -2,-3 -8,-4l4 5c-4,-3 -4,-4 -8,-6l1 6zm81 528c11,-1 12,0 16,-8 3,-4 7,-10 8,-15 -3,1 -4,3 -7,5 -8,5 -13,8 -17,18zm-118 -549c6,1 14,2 19,5 12,5 8,4 13,8 2,1 0,0 3,1l0 -5 -1 -11 -34 2zm258 449c8,-3 22,-11 29,-15 8,-5 17,-11 19,-22l-2 2c-1,1 -1,2 -2,3 -2,2 -2,2 -5,3 -2,-1 0,0 -2,-2l-1 -1c0,0 0,0 0,-1 -5,5 -10,16 -22,21 -5,2 -9,0 -11,1l-3 11zm-334 -370l5 2c0,4 -2,3 1,6 3,2 2,0 6,4l7 11c2,-2 4,-4 5,-7 -1,-2 -7,-7 -9,-13 3,-6 4,1 5,-10 -5,1 -4,2 -9,2 2,-7 16,-13 23,-18 -6,-3 -8,2 -18,9l-16 14zm-160 325c-2,-12 -14,-31 -17,-79 -1,-21 -1,-9 -7,-25 -1,24 12,88 24,104zm561 -186c-3,-3 -4,-8 -6,-12 -2,-4 -2,-3 -3,-3 0,19 4,27 7,41 1,1 1,3 1,4 1,3 0,2 2,3 1,1 4,2 5,2 0,-6 -1,-11 0,-18 1,-7 0,-9 -2,-16 -3,-12 -2,-6 -8,-21 -1,-1 -1,-2 -1,-3 -1,-1 -1,-1 -1,-2 -1,-1 -1,-1 -2,-1 2,9 8,16 8,26zm-385 -194c-4,2 -2,11 -1,13 0,0 1,0 1,0 0,1 9,-3 10,-3 1,-2 1,-1 3,-2 0,0 2,-1 2,-1 13,-5 33,-10 48,-12 7,-1 16,-2 19,-4 -18,-1 -46,2 -64,5 -6,2 -11,3 -18,4zm-37 356c0,-1 0,-1 0,-1 0,-2 -41,-9 -44,-10 1,12 4,26 17,23 2,-6 1,-12 9,-12 2,-1 6,0 9,1 14,3 4,14 3,28l8 2c0,-6 -1,-11 -1,-17l0 -14c0,0 0,0 -1,0zm13 71l6 27 22 2c5,-10 2,-18 -5,-25 -5,0 -8,1 -13,-1 -4,-1 -6,-2 -10,-3zm235 49c2,-5 4,-13 5,-19l-65 8c0,0 0,1 -1,1 26,10 45,2 61,10zm-11 -461c6,1 26,11 33,15 4,2 8,5 11,6 -3,-5 -13,-12 -16,-18 5,0 6,1 10,1 5,1 8,1 13,1l-6 -4c-2,-1 -4,-1 -6,-2 -4,-2 -8,-4 -12,-6 -8,-3 -19,-6 -27,-8 2,8 2,6 0,15zm-169 63c11,-7 3,-17 14,-21 5,3 4,9 6,15l2 -4c1,-5 0,-5 3,-11 2,-3 7,-8 11,-10 5,1 -2,0 3,3 2,1 3,0 6,1 1,2 0,2 2,4 4,0 7,-3 9,1 3,4 1,6 8,6l0 -19c-18,-3 -14,5 -24,3 -7,-2 0,-4 -16,-6 -10,-1 -2,2 -8,11 -3,4 -5,3 -7,7 -4,5 -9,14 -9,20zm-67 -46c0,4 1,4 2,8 1,4 -1,7 1,9 8,4 10,9 23,-2 4,-3 7,-6 11,-9 2,-1 9,-6 11,-8 -3,-2 -7,-3 -10,-5 -4,-3 -6,-5 -9,-7 -10,3 -20,10 -29,14zm0 284c-6,3 -2,7 -14,2 -35,-15 -28,3 -31,21 9,1 37,9 45,8l0 -31zm68 -158c2,8 -2,3 3,21l6 -11c2,-6 2,-9 0,-14l9 0c2,-5 1,-5 2,-11 0,-3 2,-7 3,-11 -16,0 -31,-3 -47,-4 -3,13 -6,10 3,20 12,12 13,8 21,10zm-225 124c1,-27 4,-46 10,-71 3,-10 7,-21 11,-30 3,-7 0,-7 -3,-14 -3,-7 -1,-10 -1,-17 -3,9 -7,17 -11,29 -3,11 -6,21 -8,33 -4,18 -10,57 2,70zm560 -81c-4,-3 -7,-15 -10,-19 -3,2 -5,4 -9,7 0,12 5,28 3,40 -2,3 -16,14 -23,5 -1,-2 -8,-25 -9,-28l-5 2 10 35c3,12 6,34 7,39 2,-14 -2,-6 3,-27 5,-18 7,-13 14,-14 4,-11 3,-11 13,-17 8,-5 6,-12 12,-17 5,4 2,18 9,20 -2,-9 -4,-18 -7,-26 -10,-29 -9,-14 -13,-21 1,6 10,14 5,21zm-362 279c-3,-9 -4,-9 -5,-18l-17 -3c4,18 13,41 21,54 1,2 6,11 7,12 3,2 44,5 50,5 -4,-4 -11,-6 -17,-9 -10,-4 -10,-6 -12,-12 -6,-2 -11,-3 -15,-6 -8,-7 -2,-8 1,-13 -10,-2 -11,-1 -13,-10zm32 -370c15,-15 22,-6 20,1l-1 0c-13,1 -17,4 -19,-1zm-24 12c9,1 38,6 44,4 4,-8 2,-15 15,-10 13,5 14,4 16,10l7 1c1,-6 0,-6 -10,-14 -13,-10 -13,-4 -17,-7 -3,-2 -2,-4 -1,-6 3,-4 12,-6 18,-11 1,-14 -12,-18 -21,-18 0,0 0,0 0,1 0,0 1,1 1,1 3,4 -3,17 -3,18 -2,3 -14,3 -20,7l-29 24zm-177 282c10,22 28,44 41,59 11,11 40,40 57,42 -2,-1 -5,-5 -7,-6 -2,-2 -3,-4 -6,-7 -14,-15 -26,-32 -35,-52 -2,-4 -1,-5 -5,-7 -13,-6 -19,-8 -32,-18 -8,-6 -9,-8 -13,-11zm72 -361l4 -3c-2,3 1,0 -3,3 -1,1 0,0 -1,0zm21 -14l-4 3c-2,1 -1,1 -4,2 2,-1 3,-4 8,-5zm150 -24c1,-3 2,-3 6,-6 -1,2 -3,3 -6,6zm219 139c-3,4 -4,2 -6,5 -6,-2 -13,-15 -7,-20 4,-4 6,2 7,5 2,6 5,3 6,10zm-38 -38l14 22c6,7 10,15 14,23 8,15 18,34 23,50 6,-1 20,-8 24,-11 -1,-14 -7,-11 -11,-19 -3,1 -5,3 -9,2 -3,-7 4,-19 6,-23 -9,1 -11,7 -17,10 2,-11 1,-11 -4,-17 -6,-7 4,-13 -6,-17 -7,-2 -9,-5 -12,-11 -3,-5 -7,-10 -4,-16 5,1 8,10 22,21l12 9c4,5 -1,10 8,13 -2,-14 -4,-8 -3,-23 0,-4 -2,-7 -4,-9 -4,-4 -3,-5 -6,-9 -3,-2 -7,-3 -11,-5 -3,-2 -5,-5 -9,-6 -4,3 -7,6 -12,8 -5,3 -11,5 -15,8zm-162 -63c0,5 0,13 1,19 0,5 1,4 2,7 1,4 0,6 0,10 7,2 14,4 14,12 0,3 -2,8 -4,9 -3,3 -5,-1 -9,-2 1,5 4,10 3,16 -1,4 -2,2 -2,7 0,8 -2,0 -2,6l50 -2c-1,-3 -3,-5 -5,-14 -5,-20 -13,-18 -12,-26 1,-6 6,-5 4,-14 -4,-1 -8,-1 -10,-6 2,-2 0,0 2,-1 2,-1 1,0 2,-2l-1 -4c-4,2 1,2 -4,4 -3,-3 -3,-7 -5,-11 -1,-4 -4,-7 -6,-9l-18 1zm-264 130c5,4 17,19 29,22l21 -46c3,-6 6,-11 8,-16l-2 2c-2,2 -1,1 -3,2 3,-7 5,-9 7,-19 0,-5 4,-20 3,-23 -12,-2 -10,10 -20,15 -9,3 -10,8 -17,18 -7,10 -22,33 -26,45zm401 -89l1 4c-12,5 -10,6 -20,-1 -7,-5 -10,-6 -10,-16 2,1 3,2 5,3 6,1 4,-1 7,-2 4,-1 10,3 12,5 -2,-5 -14,-17 -19,-21 -11,-9 -17,-15 -31,-25 -3,-2 -5,-2 -9,1 1,1 6,5 10,11l7 9c1,2 1,1 1,4 -8,1 -8,-5 -12,0 1,1 2,1 5,2 2,0 5,0 7,0 1,8 1,14 -2,21 -4,7 -5,7 -12,11l12 29c12,-1 57,-12 64,-17l-11 -15c-1,-1 -2,-3 -2,-3 -4,-3 -1,-2 -3,0zm-55 -56c0,1 28,22 40,34 8,8 30,29 34,38 9,-1 23,-11 28,-15 -2,-5 -6,-8 -9,-13 -10,-15 -4,-19 -34,-37 -5,-3 -32,-17 -38,-19 -5,-2 -5,6 -21,12zm-318 292c0,-3 -5,-21 -7,-28 -1,-10 -1,-23 -3,-33 -3,-13 -6,-15 -2,-30 3,-10 6,-18 10,-27 -2,-2 -18,-10 -25,-18 -1,-2 -2,-3 -3,-4 -3,3 -7,15 -8,19 -9,24 -14,55 -15,80 -1,7 -1,6 3,10 10,11 38,29 50,31zm19 108c-1,-3 -10,-28 -13,-46 -4,-17 -6,-36 -6,-54 -4,-3 -10,-5 -15,-7 -17,-9 -26,-16 -38,-28 -3,24 9,67 16,87 2,6 5,14 9,18 12,14 28,23 47,30zm50 21c-15,-4 -35,-11 -43,-13 3,9 14,28 18,34 9,13 24,34 38,40 16,5 46,13 61,14 -1,-4 -6,-10 -9,-15 -7,-13 -17,-35 -19,-51 -14,-1 -32,-5 -46,-9zm44 4c0,-4 -3,-16 -4,-21 -2,-12 -2,-13 -8,-19 -3,-4 -9,-8 -15,-11 -7,-3 -4,-2 -8,-6 -9,-11 -30,-15 -42,-25 -13,-11 -13,-20 -16,-36l-15 -5c-1,28 8,75 18,98 2,4 11,6 19,9 22,7 48,12 71,16zm103 -63c-4,1 -14,2 -14,-3 -1,-6 11,-4 15,-3l-1 6zm-60 -4c-12,7 -26,-8 -9,-6 5,0 6,0 9,2l0 4zm-44 -24c0,-6 3,-6 -3,-7l1 33c4,3 6,3 8,6 6,8 -3,28 7,28 2,0 15,-12 21,5l17 -12c13,-8 12,-4 21,1 16,-9 14,5 22,7 7,2 8,-1 30,5l-1 -64c-8,-2 -31,-1 -41,-1 -13,-1 -28,-3 -41,-3 2,2 4,3 6,4 2,2 3,3 5,4 15,13 19,2 28,10 2,2 6,6 8,9 -10,1 -30,4 -37,-4 1,-3 3,-4 4,-7 -12,-1 -19,-1 -27,-8 -12,-10 -9,-6 -28,-6zm250 89c14,-1 84,-18 89,-25 1,-2 3,-9 4,-11 2,-6 1,-6 -1,-10 -12,-18 -4,-54 -1,-74l-40 12c-13,3 -30,5 -42,9 0,37 -4,64 -9,99zm-50 -323c-1,3 0,2 -2,4 -5,-2 -2,-3 -7,-3l-25 2c-12,1 -25,2 -37,2 5,10 8,9 10,23 3,17 13,15 16,16 8,3 4,19 7,26 2,7 13,14 10,21 -2,4 -6,4 -10,3 -4,-2 -4,-5 -8,-7 -5,0 -3,3 -10,2 -1,-13 10,-17 12,-28 -8,3 -11,9 -22,8 -1,7 -3,6 -5,9 -1,4 0,10 0,14l5 3c-1,3 -2,3 -5,6l0 9c19,-1 38,-2 57,-3 17,-2 37,-6 53,-7 -3,-21 -13,-55 -20,-77 -2,-8 -6,-17 -8,-25l-11 2zm16 -3l16 49c6,19 9,37 13,53 18,-2 76,-16 87,-24 -5,-22 -39,-83 -50,-95l-32 10c-12,3 -22,5 -34,7zm-125 119c2,10 -2,8 -10,10 -7,2 -11,4 -12,10 -2,9 -11,20 -17,27 -6,8 -21,5 -27,17 -4,8 1,12 2,18 1,6 0,15 -1,21 -6,-3 -11,-7 -14,-15 -2,-6 -7,-13 -14,-14l-1 30c20,2 40,5 61,7 22,1 43,1 65,2l-1 -112c-4,-1 -25,-1 -31,-1zm156 -10l8 53c2,19 3,38 4,58 21,-2 65,-14 83,-21l2 -7c8,-28 13,-7 6,-50 -2,-10 -11,-51 -15,-57 -6,2 -14,5 -20,8l-44 11c-6,1 -19,3 -24,5zm-4 218c7,-17 9,-79 9,-99 -39,6 -81,10 -121,10l1 69c13,9 11,16 22,14 13,-2 20,1 21,14 23,-2 46,-4 68,-8l0 0z"/>
   <path class="fil1" d="M1579 552c-1,-1 -2,-3 -5,-2 -1,1 -2,1 -3,3 -1,1 -1,2 -1,4 -1,0 -1,0 -1,1 0,1 0,1 0,1 -1,0 -24,-1 -26,-1l-4 0 -7 -1 -4 0c0,0 -1,0 -1,0 -1,0 -1,0 -2,1 -1,0 0,1 -1,2 0,0 -3,2 -3,2 -1,1 -1,1 -1,1 1,0 2,-1 3,-1 1,-1 2,-1 3,0 1,0 3,0 4,1 1,0 2,0 2,0 1,0 13,3 15,3 1,1 1,1 1,1 2,2 2,1 4,2l-1 2 2 -2c1,0 7,2 9,3l-1 2 2 -2c0,0 1,0 1,0 2,1 1,0 2,0 1,0 3,1 4,2l-1 2c1,0 1,-1 2,-2 0,1 0,0 0,1 2,1 5,3 7,4 -3,6 -5,12 -8,18l-1 3c0,2 -1,5 -2,7 0,1 0,2 0,3 -1,1 0,2 -1,3l-16 1c0,0 -2,0 -3,0 -1,0 -3,0 -4,0l-1 2 3 1 7 2 15 4c0,0 -1,1 0,1 1,0 2,-3 3,-3 0,0 -1,1 -1,2 0,0 0,0 0,0l21 12c1,0 0,0 1,0l0 -2 -2 -3c-1,0 -3,-2 -3,-2 -1,-1 -5,-5 -5,-6 -1,0 -6,-5 -6,-6 0,0 1,-2 2,-2 0,-1 1,-2 1,-3l2 -3 2 -3 2 -4c0,0 0,0 0,0 0,0 0,-1 1,-2l1 -3 1 -4 2 -3c0,-2 1,-4 2,-5 0,0 0,0 1,0 0,0 1,0 1,0 1,1 2,1 2,1l1 0c0,0 0,0 0,0 0,0 0,0 0,0 2,1 1,1 3,0 0,1 0,2 -1,3 1,0 0,0 1,0 0,0 0,-1 0,-1 0,0 0,0 1,-1 0,-1 0,0 1,0 1,0 3,1 3,1l0 0c0,0 0,1 0,1 0,0 0,0 0,0 0,0 1,0 1,0l1 1c1,0 0,1 0,3l1 -2 2 0c0,1 3,2 3,2 1,0 2,1 3,2l0 2c0,0 1,-1 1,-2 1,0 2,1 3,1 1,1 0,0 1,0 0,1 0,1 0,1 1,0 1,-1 1,0 1,0 3,1 4,2 0,0 1,1 2,1 2,1 13,7 13,8 2,0 2,1 2,2 1,1 1,1 1,2l0 0c0,-1 0,-1 0,-2 0,-1 0,-1 0,-2 -1,-1 2,-3 -1,-5 -2,-2 -13,-10 -14,-12 -1,0 -1,0 -1,-1 0,0 -2,-1 -2,-2 -1,0 -2,-1 -3,-2 -1,-1 -3,-2 -3,-3 -1,0 -2,-1 -3,-2 -1,0 -5,-4 -5,-5 0,-1 1,-2 1,-3 4,-8 -2,-10 -5,-7 -2,1 -2,4 -3,5 0,0 0,0 0,-1l-2 -1c0,-1 -2,-3 -2,-4 -1,-2 -1,-2 0,-4l1 -3 1 -3 2 -4 1 -3 1 -3 2 -3 1 -4c0,0 1,-2 1,-3 0,0 1,-3 1,-3l1 -3c0,-1 0,-3 0,-3 0,-3 1,-5 1,-7 0,-1 0,-2 0,-3 0,-1 -1,-1 -1,-3l-1 0c-1,1 -1,1 -3,2 -2,2 -5,5 -6,7 -5,7 -11,23 -14,31 -2,6 -1,6 -4,6 -1,0 -5,2 -6,1 0,-2 1,-2 1,-4 1,-1 0,-2 0,-3zm-721 -552l-1 0 -222 0c-21,0 -33,1 -37,2 -4,2 -6,5 -6,10 0,8 5,12 17,13 58,4 86,30 86,77 0,29 -20,99 -61,211l-142 394c-12,-27 -40,-99 -83,-218 -43,-118 -71,-196 -85,-234 -13,-38 -22,-71 -27,-97 -6,-26 -8,-45 -8,-57 0,-50 29,-75 88,-75 14,0 21,-5 21,-15 0,-7 -11,-11 -33,-11l-348 0c-12,0 -17,4 -17,12 0,8 5,12 17,13 26,2 47,7 62,16 14,9 29,26 44,51 16,25 43,87 82,187l126 325c45,115 77,207 98,274l39 0c83,-218 137,-359 160,-425 67,-187 108,-294 123,-320 15,-27 31,-50 48,-70 17,-19 41,-31 75,-36 17,-2 26,-8 26,-16 0,-5 -2,-8 -7,-9 -4,-2 -16,-2 -35,-2zm261 85c114,0 210,38 286,114 77,76 115,169 115,280 0,110 -38,204 -114,280 -77,77 -170,115 -280,115 -112,0 -206,-38 -282,-114 -77,-76 -115,-169 -115,-277 0,-72 17,-139 52,-201 35,-62 82,-110 143,-145 60,-35 125,-52 195,-52zm4 73c-56,0 -108,14 -158,43 -50,29 -89,68 -117,117 -28,50 -42,104 -42,165 0,89 31,164 93,226 62,61 137,92 224,92 58,0 112,-14 162,-42 50,-29 88,-67 116,-116 28,-50 42,-104 42,-164 0,-60 -14,-114 -42,-162 -28,-48 -67,-87 -117,-116 -51,-29 -104,-43 -161,-43zm-300 600c-290,52 570,369 741,-127 -148,608 -1226,137 -741,127l0 0z"/>
  </g>
  <g id="_1815447645232">
   <path class="fil2" d="M2046 456l10 0 132 -321c3,-8 6,-15 10,-21 3,-6 7,-12 11,-16 4,-4 9,-8 15,-11 6,-3 12,-5 20,-6l0 -10 -116 0 0 10c15,2 25,5 31,10 6,5 9,11 9,17 0,8 -4,23 -13,44l-89 219 -96 -221c-9,-20 -13,-34 -13,-44 0,-3 1,-6 2,-9 1,-3 3,-5 6,-7 3,-2 7,-4 12,-6 6,-1 13,-2 22,-3l0 -10 -154 0 0 10c12,1 21,3 27,6 7,3 13,8 17,14 3,3 8,13 16,30l141 325zm434 0l11 0c1,-8 3,-14 6,-17 2,-3 6,-4 11,-4 0,0 2,0 5,1 2,0 6,1 10,2 3,1 8,2 12,4 5,1 10,2 14,4 6,3 12,4 16,6 5,1 9,2 14,3 4,1 8,1 13,1 4,0 9,0 15,0l0 0 0 0 2 0c17,0 33,-3 47,-8 15,-6 27,-13 38,-23 10,-9 19,-21 24,-33 6,-13 9,-26 9,-40 0,-17 -3,-31 -9,-43 -6,-12 -14,-22 -25,-31 -10,-9 -22,-18 -35,-25 -14,-8 -28,-16 -43,-24 -13,-7 -25,-13 -37,-20 -11,-6 -21,-12 -30,-18 -8,-7 -15,-14 -19,-22 -5,-7 -8,-17 -8,-27 0,-7 2,-15 5,-21 4,-7 8,-14 14,-19 6,-5 13,-10 22,-13 8,-3 17,-5 26,-5 8,0 17,1 25,4 9,2 17,5 24,9 8,5 15,10 21,16 6,6 12,12 16,20 9,15 14,34 18,60l10 0 0 -131 -10 0c-2,9 -4,15 -7,17 -4,3 -8,5 -12,5 -5,0 -12,-3 -22,-7 -23,-10 -44,-15 -64,-15 -16,0 -30,3 -44,8 -13,5 -25,12 -35,21 -9,10 -17,20 -23,32 -5,12 -8,25 -8,38 0,16 3,30 9,42 6,11 14,21 24,30 10,9 21,17 35,25 13,7 26,15 40,24 13,7 24,14 36,20 11,6 21,12 29,18 8,7 15,14 20,23 5,8 8,18 8,30 0,8 -2,16 -6,23 -3,8 -8,15 -14,20 -7,6 -15,10 -24,14 -9,3 -20,5 -31,5 -10,0 -20,-1 -29,-4 -10,-2 -18,-5 -26,-9 -8,-5 -16,-10 -22,-15 -7,-6 -12,-12 -16,-19 -4,-7 -8,-15 -11,-25 -3,-11 -6,-22 -8,-36l-11 0 0 129zm1004 0l1 0c51,0 95,-19 131,-56 36,-38 54,-86 54,-143 0,-56 -18,-102 -54,-139 -36,-37 -78,-56 -127,-56 -50,0 -92,16 -127,49 -41,38 -61,87 -61,147 0,58 17,106 52,143 36,37 79,55 131,55zm1266 0l1 0c51,0 95,-19 131,-56 36,-38 54,-86 54,-143 0,-56 -18,-102 -54,-139 -36,-37 -78,-56 -127,-56 -49,0 -92,16 -127,49 -41,38 -61,87 -61,147 0,58 17,106 53,143 35,37 78,55 130,55zm659 0l11 0c1,-8 3,-14 6,-17 2,-3 6,-4 11,-4 0,0 2,0 5,1 2,0 6,1 10,2 3,1 8,2 12,4 5,1 10,2 14,4 6,3 12,4 16,6 5,1 9,2 13,3 5,1 9,1 14,1 4,0 9,0 15,0l0 0 0 0 2 0c17,0 33,-3 47,-8 15,-6 27,-13 38,-23 10,-9 19,-21 24,-33 6,-13 9,-26 9,-40 0,-17 -3,-31 -9,-43 -6,-12 -14,-22 -25,-31 -10,-9 -22,-18 -35,-25 -14,-8 -28,-16 -43,-24 -13,-7 -25,-13 -37,-20 -11,-6 -21,-12 -30,-18 -8,-7 -15,-14 -19,-22 -5,-7 -8,-17 -8,-27 0,-7 2,-15 5,-21 4,-7 8,-14 14,-19 6,-5 13,-10 22,-13 8,-3 16,-5 26,-5 8,0 17,1 25,4 9,2 17,5 24,9 8,5 15,10 21,16 6,6 12,12 16,20 8,15 14,34 18,60l10 0 0 -131 -10 0c-2,9 -4,15 -8,17 -3,3 -7,5 -11,5 -5,0 -12,-3 -22,-7 -23,-10 -44,-15 -64,-15 -16,0 -30,3 -44,8 -13,5 -25,12 -35,21 -9,10 -17,20 -23,32 -5,12 -8,25 -8,38 0,16 3,30 9,42 6,11 14,21 24,30 10,9 21,17 34,25 14,7 27,15 41,24 13,7 24,14 36,20 11,6 21,12 29,18 8,7 15,14 20,23 5,8 8,18 8,30 0,8 -2,16 -6,23 -3,8 -8,15 -14,20 -7,6 -15,10 -24,14 -9,3 -20,5 -31,5 -10,0 -20,-1 -29,-4 -10,-2 -18,-5 -26,-9 -8,-5 -16,-10 -22,-15 -7,-6 -12,-12 -16,-19 -4,-7 -8,-15 -11,-25 -3,-11 -6,-22 -8,-36l-11 0 0 129zm-2982 -18l0 10 -161 0 0 -10 13 0c16,0 27,-5 34,-14 5,-6 7,-20 7,-43l0 -244c0,-9 -1,-16 -1,-21 0,-6 -1,-11 -2,-14 -1,-4 -2,-7 -4,-9 -2,-2 -5,-4 -8,-6 -9,-4 -17,-6 -26,-6l-13 0 0 -10 161 0 0 10 -13 0c-16,0 -27,4 -34,14 -4,5 -7,19 -7,42l0 244c0,9 0,16 1,22 0,5 1,10 2,13 1,4 2,7 4,9 2,2 5,4 9,6 8,4 16,7 25,7l13 0zm592 -117l-146 0 -26 60c-6,15 -9,25 -9,33 0,3 0,6 1,8 1,3 3,5 7,7 3,2 7,4 13,5 6,2 13,3 23,4l0 10 -119 0 0 -10c15,-3 25,-7 30,-11 5,-5 10,-11 15,-20 5,-9 11,-21 17,-34l132 -311 10 0 131 314c6,13 11,23 15,31 5,8 9,14 14,19 5,4 10,7 16,9 6,1 12,2 20,3l0 10 -149 0 0 -10c8,-1 14,-2 19,-3 5,-1 9,-3 12,-5 3,-2 5,-4 6,-7 1,-3 2,-5 2,-9 0,-4 -1,-9 -3,-15 -2,-7 -5,-14 -8,-23l-23 -55zm-8 -20l-64 -153 -66 153 130 0zm472 -218c-19,0 -36,4 -50,12 -15,8 -28,20 -38,35 -10,15 -17,33 -23,54 -5,22 -8,46 -8,73 0,26 3,50 8,72 5,23 13,41 23,57 10,16 23,28 37,37 15,9 32,13 52,13 17,0 33,-3 48,-10 15,-6 28,-17 39,-30 11,-15 20,-32 26,-54 6,-22 9,-48 9,-77 0,-29 -3,-55 -8,-77 -5,-23 -12,-42 -23,-57 -10,-16 -23,-28 -38,-36 -15,-8 -33,-12 -54,-12zm326 188l0 110c0,24 3,39 8,44 7,9 17,13 32,13l14 0 0 10 -162 0 0 -10 15 0c7,0 14,-2 20,-4 6,-3 10,-7 14,-12 3,-6 5,-20 5,-41l0 -244c0,-23 -2,-38 -7,-44 -7,-8 -18,-12 -32,-12l-15 0 0 -10 139 0c33,0 60,3 80,10 9,4 18,8 27,14 8,6 15,13 22,21 6,8 11,17 15,27 3,10 5,21 5,32 0,15 -3,30 -8,42 -5,13 -12,24 -22,33 -10,9 -23,16 -37,21 -15,6 -31,8 -50,8 -18,0 -39,-3 -63,-8zm0 -16c10,2 19,4 26,5 8,0 14,1 20,1 9,0 19,-2 27,-6 9,-4 16,-10 23,-17 6,-7 11,-15 15,-25 4,-10 6,-21 6,-32 0,-14 -2,-26 -6,-37 -4,-11 -10,-20 -17,-28 -8,-7 -16,-13 -26,-17 -10,-4 -20,-6 -31,-6 -5,0 -11,1 -17,2 -6,0 -13,2 -20,4l0 156zm530 -184l0 88 -6 0c-2,-12 -4,-22 -8,-30 -3,-8 -8,-15 -13,-20 -6,-5 -13,-9 -21,-11 -8,-2 -17,-3 -27,-3l-54 0 0 287c0,24 3,38 8,44 7,8 17,12 32,12l13 0 0 10 -160 0 0 -10 14 0c15,0 27,-5 34,-15 4,-6 6,-19 6,-41l0 -287 -46 0c-11,0 -21,0 -30,2 -8,2 -15,5 -21,9 -6,5 -11,12 -15,20 -3,9 -6,19 -8,33l-11 0 0 -88 313 0zm194 367l0 10 -162 0 0 -10 14 0c16,0 27,-5 34,-14 4,-6 7,-20 7,-43l0 -244c0,-9 -1,-16 -1,-21 0,-6 -1,-11 -2,-14 -1,-4 -3,-7 -5,-9 -1,-2 -4,-4 -8,-6 -8,-4 -16,-6 -25,-6l-14 0 0 -10 162 0 0 10 -13 0c-16,0 -27,4 -34,14 -5,5 -7,19 -7,42l0 244c0,9 0,16 1,22 0,5 1,10 2,13 1,4 2,7 4,9 2,2 5,4 8,6 8,4 17,7 26,7l13 0zm217 -355c-19,0 -36,4 -51,12 -15,8 -27,20 -37,35 -10,15 -18,33 -23,54 -6,22 -8,46 -8,73 0,26 2,50 8,72 5,23 12,41 22,57 10,16 23,28 38,37 15,9 32,13 51,13 18,0 34,-3 49,-10 15,-6 27,-17 38,-30 11,-15 20,-32 26,-54 6,-22 9,-48 9,-77 0,-29 -2,-55 -7,-77 -5,-23 -13,-42 -23,-57 -11,-16 -23,-28 -39,-36 -15,-8 -33,-12 -53,-12zm201 -12l102 0 231 283 0 -218c0,-23 -3,-38 -8,-43 -7,-8 -18,-12 -33,-12l-13 0 0 -10 132 0 0 10 -13 0c-16,0 -28,5 -34,14 -5,6 -7,20 -7,41l0 318 -10 0 -248 -304 0 232c0,24 2,38 7,44 7,8 18,12 33,12l13 0 0 10 -131 0 0 -10 13 0c16,0 27,-5 34,-15 4,-6 6,-19 6,-41l0 -262c-5,-6 -10,-12 -14,-16 -3,-3 -7,-7 -10,-9 -4,-3 -7,-5 -11,-6 -4,-2 -9,-4 -14,-6 -6,-1 -14,-2 -25,-2l0 -10z"/>
   <path class="fil3" d="M3808 679l4 0 0 -128c0,-8 1,-14 2,-16 3,-4 8,-6 14,-6l5 0 0 -4 -52 0 0 4 5 0c6,0 10,2 13,5 2,2 3,8 3,18l0 87 -93 -114 -41 0 0 4c5,0 8,1 10,1 2,1 4,2 6,2 1,1 3,2 4,3 2,1 3,2 4,4 2,1 4,3 6,6l0 106c0,8 -1,14 -2,16 -3,4 -8,6 -14,6l-6 0 0 4 53 0 0 -4 -5 0c-6,0 -10,-2 -13,-5 -2,-2 -3,-8 -3,-17l0 -94 100 122zm-300 -6l0 4 47 0 0 -4c-3,-1 -6,-1 -9,-2 -2,0 -4,-1 -5,-2 -1,-1 -2,-1 -3,-2 0,-1 0,-3 0,-4 0,-3 1,-7 4,-13l10 -24 59 0 9 22c1,3 2,7 3,9 1,3 1,5 1,6 0,2 0,3 -1,4 0,1 -1,2 -2,3 -1,1 -3,1 -5,2 -2,0 -4,1 -7,1l0 4 60 0 0 -4c-3,0 -6,-1 -8,-1 -3,-1 -5,-2 -7,-4 -2,-2 -4,-4 -5,-7 -2,-4 -4,-8 -6,-13l-53 -126 -4 0 -53 125c-3,5 -5,10 -7,13 -2,4 -4,7 -6,8 -2,2 -6,4 -12,5zm99 -55l-25 -61 -27 61 52 0zm234 59l0 -4 5 0c7,0 11,-2 14,-6 2,-3 2,-8 2,-17l0 -98c0,-10 -1,-15 -3,-18 -3,-3 -7,-5 -13,-5l-5 0 0 -4 61 0c23,0 40,3 52,8 12,5 21,14 29,26 7,12 10,25 10,41 0,11 -1,22 -5,31 -4,10 -9,18 -16,24 -7,7 -16,12 -27,16 -10,4 -23,6 -37,6l-67 0zm43 -11c9,2 17,3 24,3 8,0 16,-1 24,-5 7,-3 13,-7 19,-13 5,-6 9,-13 12,-21 3,-9 5,-18 5,-29 0,-10 -2,-19 -5,-28 -3,-8 -7,-15 -12,-21 -6,-6 -12,-10 -20,-14 -7,-3 -15,-4 -24,-4 -3,0 -7,0 -11,1 -4,0 -8,1 -12,2l0 129z"/>
   <path class="fil4" d="M2586 760c2,9 4,18 5,28 0,1 0,2 -2,2 -1,0 -2,-1 -3,-2 -6,-9 -12,-15 -17,-18 -5,-3 -13,-4 -22,-4 -5,0 -11,0 -16,1 -1,11 -1,22 -1,35 0,2 0,5 0,10l7 1c4,0 8,-1 11,-2 3,-1 5,-4 8,-8 2,-3 3,-6 3,-7 1,-2 2,-3 3,-3 2,0 2,1 2,2 0,1 0,1 0,2 0,4 -1,15 -1,33 0,2 0,5 1,7 0,0 0,1 0,1 0,2 -1,3 -3,3 -1,0 -2,-2 -3,-5 -1,-5 -4,-10 -8,-12 -4,-3 -11,-5 -20,-5 0,10 0,17 0,20 0,13 0,21 0,24 1,2 2,4 5,6 2,2 7,2 13,2 23,0 38,-7 45,-21 1,-2 2,-3 3,-3 2,0 2,0 2,2 0,1 0,2 0,4l-6 25 -32 0c-9,0 -18,0 -25,-1 -8,0 -14,0 -19,0 -5,0 -12,0 -22,1 -2,0 -3,0 -3,0 -3,0 -4,-1 -4,-3 0,-2 1,-3 3,-3 6,0 10,-1 12,-4 2,-3 3,-10 3,-19l0 -46c0,-16 0,-25 0,-29 -1,-3 -2,-6 -3,-7 -2,-1 -5,-2 -10,-3 -2,0 -3,-1 -3,-2 0,-2 1,-3 4,-3l21 1 72 0zm87 118c-3,0 -13,0 -32,0l-20 0 -11 0c-3,0 -5,0 -5,-1 -1,0 -1,-1 -1,-2 0,-2 1,-2 4,-2 4,0 8,-1 10,-3 3,-2 4,-5 5,-9 0,-5 1,-13 1,-27 1,-13 1,-25 1,-37 0,-15 -1,-25 -2,-29 -2,-3 -6,-5 -12,-5 -2,-1 -3,-1 -3,-3 0,-2 1,-2 3,-2 1,0 5,0 12,1 7,0 12,1 15,1l33 -1c12,0 23,2 33,6 10,5 19,12 25,21 6,10 9,21 9,34 0,9 -2,17 -5,25 -4,8 -9,15 -16,20 -7,6 -14,9 -20,11 -7,2 -15,2 -24,2zm-6 -6c12,0 22,-4 30,-13 7,-9 10,-21 10,-38 0,-16 -3,-30 -11,-40 -8,-11 -19,-16 -34,-16 -5,0 -8,0 -8,0 -1,1 -2,2 -2,2 -1,1 -1,7 -1,20l-1 30c-1,8 -1,17 -1,28 0,8 1,14 1,17 1,3 3,6 5,7 3,2 6,3 12,3zm87 -114l29 1c3,0 6,0 9,0 6,-1 10,-1 14,-1 3,0 4,1 4,2 0,2 -1,3 -3,3 -5,0 -8,2 -10,5 -2,3 -3,8 -4,17 -1,9 -1,18 -1,29 0,17 1,28 2,34 2,6 6,10 11,14 5,3 12,5 21,5 9,0 15,-2 20,-6 4,-4 7,-10 9,-18 2,-8 3,-23 3,-45 0,-13 -1,-22 -3,-26 -2,-5 -6,-8 -11,-9 -3,0 -5,-1 -5,-3 0,-1 1,-2 4,-2 2,0 4,0 7,0 4,1 7,1 11,1 3,0 7,0 11,-1 3,0 5,0 6,0 3,0 5,1 5,2 0,2 -1,2 -4,3 -3,0 -5,1 -8,4 -2,2 -4,6 -4,12 -1,6 -1,20 -1,44 0,15 -2,26 -5,33 -3,7 -8,13 -16,16 -8,4 -17,6 -29,6 -9,0 -16,-1 -23,-2 -6,-2 -12,-4 -15,-7 -4,-4 -7,-7 -9,-12 -1,-4 -2,-10 -2,-19l0 -47c0,-7 0,-12 -1,-16 -1,-5 -2,-8 -4,-9 -1,-1 -4,-2 -7,-3 -2,0 -3,0 -4,0 0,-1 0,-1 0,-2 0,-2 1,-3 3,-3zm233 9c1,-1 2,-3 4,-5 1,-2 3,-3 4,-3 1,0 2,0 2,0 0,1 1,3 1,6l2 28 0 3c0,3 -1,4 -3,4 -1,0 -2,-1 -3,-3 -2,-6 -7,-13 -13,-21 -6,-8 -14,-12 -24,-12 -7,0 -13,2 -18,7 -5,4 -9,9 -11,16 -3,8 -4,16 -4,26 0,17 3,31 11,41 7,10 17,15 28,15 12,0 23,-7 34,-22 1,-1 2,-2 3,-2 2,0 3,1 3,3 0,3 -5,10 -14,18 -10,9 -21,13 -35,13 -19,0 -34,-6 -44,-17 -11,-12 -17,-26 -17,-43 0,-16 6,-31 17,-43 11,-13 24,-19 41,-19 12,0 24,4 36,10zm78 -11l7 0c8,17 19,43 33,80 7,17 11,27 14,30 2,4 6,6 11,7 2,0 3,1 3,2 0,2 -1,3 -3,3 -2,0 -5,0 -10,-1 -6,0 -11,-1 -16,-1 -4,0 -9,1 -16,1 -5,0 -8,1 -9,1 -3,0 -4,-1 -4,-3 0,-1 0,-2 2,-2 8,-1 11,-4 11,-9 0,-2 -1,-7 -3,-13 -2,-6 -4,-12 -7,-17 -4,0 -7,0 -9,0 -12,0 -21,0 -28,0 -5,14 -7,23 -7,28 0,3 1,5 4,7 2,2 5,3 8,3 2,0 3,1 3,3 0,2 -1,2 -3,2 -1,0 -4,0 -8,0 -5,0 -9,-1 -11,-1 -5,0 -9,1 -14,1 -1,0 -2,0 -2,0 -3,0 -4,0 -4,-2 0,-2 1,-2 2,-3 4,-1 7,-2 9,-3 2,-2 4,-5 6,-9 3,-4 6,-11 9,-20 7,-21 18,-49 32,-84zm-6 31l-15 39 31 0c-1,-5 -4,-11 -7,-19 -4,-9 -7,-16 -9,-20zm64 -29c31,1 53,1 68,1 11,0 24,0 37,-1 5,0 9,0 12,0 1,0 3,0 6,0 0,3 1,8 1,15l2 14c0,2 -1,4 -3,4 -1,0 -3,-2 -4,-5 -3,-4 -5,-9 -9,-12 -3,-3 -8,-6 -12,-7 -5,-1 -13,-2 -23,-2 -1,10 -2,21 -2,35 0,14 0,27 1,40 1,13 1,21 2,24 1,2 2,4 4,5 2,2 6,3 13,3 2,0 3,1 3,2 0,2 -1,3 -3,3l-2 0 -19 -1c-14,0 -23,0 -26,1l-11 0c-1,0 -3,0 -5,0 -2,-1 -3,-1 -3,-2 0,-2 2,-3 4,-3 5,0 9,-1 12,-3 2,-2 4,-6 5,-11 0,-5 1,-15 1,-31 0,-25 -1,-46 -3,-62 -9,0 -17,1 -21,2 -4,0 -8,3 -12,6 -4,4 -8,8 -10,14 -1,2 -2,3 -4,3 -2,0 -3,0 -3,-2 0,-1 1,-5 1,-12 1,-7 2,-13 3,-18zm139 1c2,0 6,0 13,0 5,1 9,1 12,1l27 -1c2,0 3,1 3,2 0,2 -1,2 -3,3 -5,0 -8,1 -9,2 -2,2 -3,5 -4,9 -1,5 -1,15 -1,32 0,18 0,33 1,43 0,10 2,17 3,19 2,2 5,4 9,4 3,0 5,0 5,2 0,2 -2,3 -5,3 -1,0 -2,0 -4,0 -11,-1 -19,-1 -23,-1 -9,0 -15,0 -20,1 -2,0 -3,0 -4,0 -3,0 -4,-1 -4,-3 0,-1 1,-2 3,-2 5,-1 8,-2 10,-4 2,-2 3,-8 3,-16 1,-8 1,-21 1,-38 0,-19 0,-31 -1,-37 -1,-6 -2,-10 -3,-12 -2,-1 -5,-2 -9,-2 -2,0 -3,-1 -3,-3 0,-1 1,-2 3,-2zm132 -2c12,0 23,3 32,8 8,4 16,11 21,21 6,9 8,19 8,29 0,17 -6,32 -18,44 -13,13 -28,20 -46,20 -17,0 -31,-6 -43,-16 -12,-11 -18,-25 -18,-43 0,-17 6,-32 18,-44 13,-12 28,-19 46,-19zm31 61c0,-18 -3,-31 -9,-41 -6,-9 -14,-13 -23,-13 -10,0 -17,4 -23,13 -7,10 -10,23 -10,41 0,17 3,30 9,40 6,9 14,14 24,14 8,0 16,-4 22,-13 7,-8 10,-22 10,-41zm75 -59c28,32 52,58 71,78 0,-4 0,-7 0,-8l0 -35c0,-9 0,-15 -1,-18 -1,-4 -3,-7 -6,-9 -3,-2 -7,-3 -11,-3 -2,-1 -3,-2 -3,-3 0,-2 1,-3 3,-3 1,0 2,0 4,1 4,0 8,0 15,0 8,0 14,0 19,0 1,-1 3,-1 4,-1 2,0 3,1 3,3 0,2 -1,3 -4,3 -4,0 -7,2 -11,5 -3,2 -4,8 -4,16l0 50 0 38c0,3 -1,5 -4,5 0,0 -1,0 -1,-1 -1,0 -5,-4 -13,-12 -7,-8 -18,-20 -33,-36 -15,-17 -25,-29 -31,-36 0,2 0,17 0,45 0,9 0,15 1,20 1,5 3,9 7,11 4,2 7,3 11,3 2,0 3,1 3,3 0,1 -1,2 -4,2 -1,0 -3,0 -5,0 -3,0 -8,-1 -13,-1 -9,0 -16,1 -19,1 -3,1 -5,1 -6,1 -2,0 -3,-1 -3,-3 0,-2 2,-2 5,-3 7,0 11,-3 13,-7 2,-4 2,-9 2,-16 0,-31 0,-50 0,-57 0,-6 -2,-13 -6,-18 -4,-6 -9,-9 -15,-10 -2,0 -3,-1 -3,-3 0,-2 1,-3 3,-3 1,0 2,0 3,1 1,0 4,0 7,0 8,0 15,0 22,0zm251 8c1,-1 3,-3 4,-5 1,-2 3,-3 4,-3 1,0 2,0 2,0 1,1 1,3 1,6l2 28 0 3c0,3 -1,4 -3,4 -1,0 -2,-1 -3,-3 -2,-6 -6,-13 -13,-21 -6,-8 -14,-12 -24,-12 -7,0 -13,2 -18,7 -5,4 -8,9 -11,16 -3,8 -4,16 -4,26 0,17 4,31 11,41 8,10 17,15 28,15 12,0 24,-7 34,-22 1,-1 2,-2 3,-2 2,0 3,1 3,3 0,3 -5,10 -14,18 -9,9 -21,13 -35,13 -19,0 -33,-6 -44,-17 -11,-12 -16,-26 -16,-43 0,-16 5,-31 16,-43 11,-13 25,-19 41,-19 12,0 24,4 36,10zm92 -10c12,0 22,3 31,8 9,4 16,11 22,21 5,9 8,19 8,29 0,17 -6,32 -19,44 -12,13 -27,20 -46,20 -16,0 -31,-6 -42,-16 -12,-11 -18,-25 -18,-43 0,-17 6,-32 18,-44 12,-12 28,-19 46,-19zm31 61c0,-18 -3,-31 -9,-41 -7,-9 -14,-13 -24,-13 -9,0 -17,4 -23,13 -6,10 -9,23 -9,41 0,17 3,30 9,40 6,9 14,14 23,14 9,0 17,-4 23,-13 7,-8 10,-22 10,-41zm75 -59c28,32 52,58 71,78 0,-4 0,-7 0,-8l0 -35c0,-9 -1,-15 -1,-18 -1,-4 -3,-7 -6,-9 -4,-2 -7,-3 -11,-3 -2,-1 -4,-2 -4,-3 0,-2 1,-3 3,-3 2,0 3,0 5,1 3,0 8,0 15,0 8,0 14,0 18,0 2,-1 4,-1 5,-1 2,0 3,1 3,3 0,2 -1,3 -4,3 -4,0 -8,2 -11,5 -3,2 -5,8 -5,16l1 50 -1 38c0,3 -1,5 -3,5 0,0 -1,0 -2,-1 0,0 -4,-4 -12,-12 -7,-8 -18,-20 -33,-36 -15,-17 -25,-29 -31,-36 0,2 0,17 0,45 0,9 0,15 1,20 1,5 3,9 7,11 4,2 7,3 10,3 2,0 3,1 3,3 0,1 -1,2 -3,2 -1,0 -3,0 -5,0 -4,0 -8,-1 -14,-1 -8,0 -15,1 -19,1 -2,1 -4,1 -5,1 -2,0 -4,-1 -4,-3 0,-2 2,-2 6,-3 7,0 11,-3 13,-7 1,-4 2,-9 2,-16 0,-31 0,-50 0,-57 -1,-6 -3,-13 -7,-18 -4,-6 -8,-9 -14,-10 -2,0 -4,-1 -4,-3 0,-2 2,-3 4,-3 1,0 2,0 3,1 1,0 3,0 7,0 8,0 15,0 22,0zm174 4c1,-1 2,-2 3,-3 0,-2 1,-3 3,-3 1,0 2,1 3,4l3 24 0 3c0,2 -1,2 -2,2 -2,0 -3,0 -3,0 -1,-1 -2,-3 -3,-6 -3,-5 -7,-10 -13,-14 -6,-4 -11,-7 -17,-7 -6,0 -11,2 -15,5 -4,4 -5,8 -5,13 0,4 1,7 5,11 3,3 10,6 20,9 16,4 27,10 33,16 5,7 8,14 8,23 0,8 -2,15 -6,20 -4,6 -9,11 -15,14 -5,3 -13,5 -22,5 -5,0 -10,-1 -15,-3 -6,-1 -11,-3 -17,-6 -1,1 -2,3 -3,5 -1,3 -2,4 -4,4 -1,0 -2,-2 -2,-5l-3 -32c0,-2 0,-3 0,-3 0,-2 1,-2 3,-2 1,0 2,1 3,4 4,9 9,16 15,22 6,6 14,9 22,9 7,0 12,-2 17,-6 4,-4 6,-9 6,-14 0,-6 -2,-10 -6,-14 -4,-3 -11,-7 -21,-10 -10,-3 -18,-6 -23,-9 -4,-3 -8,-7 -11,-13 -3,-5 -5,-10 -5,-15 0,-10 4,-18 11,-24 7,-7 17,-10 29,-10 7,0 16,2 27,6zm33 -5l29 1c2,0 6,0 9,0 6,-1 10,-1 13,-1 3,0 5,1 5,2 0,2 -1,3 -4,3 -4,0 -7,2 -9,5 -2,3 -4,8 -4,17 -1,9 -1,18 -1,29 0,17 1,28 2,34 2,6 5,10 10,14 6,3 13,5 21,5 9,0 16,-2 20,-6 5,-4 8,-10 10,-18 1,-8 2,-23 2,-45 0,-13 -1,-22 -3,-26 -2,-5 -5,-8 -10,-9 -4,0 -5,-1 -5,-3 0,-1 1,-2 4,-2 1,0 4,0 7,0 3,1 7,1 10,1 4,0 7,0 11,-1 3,0 6,0 7,0 3,0 4,1 4,2 0,2 -1,2 -3,3 -3,0 -6,1 -8,4 -2,2 -4,6 -5,12 0,6 -1,20 -1,44 0,15 -1,26 -4,33 -3,7 -9,13 -16,16 -8,4 -18,6 -29,6 -9,0 -17,-1 -23,-2 -7,-2 -12,-4 -16,-7 -4,-4 -6,-7 -8,-12 -2,-4 -3,-10 -3,-19l1 -47c0,-7 -1,-12 -1,-16 -1,-5 -2,-8 -4,-9 -1,-1 -4,-2 -7,-3 -2,0 -4,0 -4,0 -1,-1 -1,-1 -1,-2 0,-2 1,-3 4,-3zm237 119c-15,0 -38,-1 -70,-1 -11,0 -19,1 -26,1 -2,0 -3,0 -4,0 -2,0 -3,0 -3,-2 0,-1 0,-2 1,-2 0,0 2,-1 4,-1 4,0 6,-2 8,-3 2,-2 4,-4 5,-8 0,-3 1,-11 1,-24 0,-14 0,-29 0,-48 0,-7 0,-12 -2,-16 -1,-3 -2,-5 -4,-7 -2,-1 -5,-2 -8,-2 -3,0 -4,-1 -4,-3 0,-2 1,-3 4,-3l29 1c5,0 11,0 20,-1 3,0 5,0 6,0 2,0 3,1 3,3 0,1 0,1 -1,2 -1,0 -3,1 -6,1 -4,1 -7,2 -8,3 -2,2 -3,4 -3,8 -1,3 -1,12 -1,25l0 54c0,8 0,13 2,15 1,1 4,2 8,2 10,0 17,-1 22,-2 5,-2 9,-5 13,-9 5,-4 9,-10 14,-20 1,-1 2,-2 3,-2 2,0 3,0 3,2 0,4 -2,16 -6,37z"/>
   <path class="fil4" d="M4400 758c31,1 53,1 68,1 11,0 24,0 37,-1 5,0 9,0 12,0 1,0 3,0 6,0 0,3 1,8 2,15l1 14c0,2 -1,4 -3,4 -1,0 -3,-2 -4,-5 -2,-4 -5,-9 -9,-12 -3,-3 -8,-6 -12,-7 -5,-1 -13,-2 -23,-2 -1,10 -2,21 -2,35 0,14 0,27 1,40 1,13 1,21 2,24 1,2 2,4 4,5 2,2 6,3 13,3 2,0 3,1 3,2 0,2 -1,3 -3,3l-2 0 -19 -1c-14,0 -23,0 -26,1l-11 0c-1,0 -3,0 -5,0 -2,-1 -3,-1 -3,-2 0,-2 2,-3 4,-3 5,0 9,-1 12,-3 2,-2 4,-6 5,-11 0,-5 1,-15 1,-31 0,-25 -1,-46 -3,-62 -9,0 -17,1 -21,2 -4,0 -8,3 -12,6 -4,4 -8,8 -10,14 -1,2 -2,3 -4,3 -2,0 -3,0 -3,-2 0,-1 1,-5 1,-12 1,-7 2,-13 3,-18zm178 -2l6 0c8,17 19,43 33,80 7,17 11,27 14,30 2,4 6,6 11,7 2,0 3,1 3,2 0,2 -1,3 -3,3 -2,0 -5,0 -10,-1 -6,0 -11,-1 -16,-1 -4,0 -9,1 -16,1 -4,0 -8,1 -9,1 -3,0 -4,-1 -4,-3 0,-1 1,-2 3,-2 7,-1 10,-4 10,-9 0,-2 -1,-7 -3,-13 -2,-6 -4,-12 -7,-17 -4,0 -7,0 -9,0 -12,0 -21,0 -27,0 -6,14 -8,23 -8,28 0,3 1,5 4,7 2,2 5,3 8,3 2,0 3,1 3,3 0,2 -1,2 -3,2 -1,0 -4,0 -8,0 -5,0 -9,-1 -11,-1 -5,0 -9,1 -14,1 -1,0 -2,0 -2,0 -2,0 -4,0 -4,-2 0,-2 1,-2 3,-3 3,-1 6,-2 8,-3 2,-2 4,-5 7,-9 2,-4 5,-11 8,-20 7,-21 18,-49 33,-84zm-7 31l-15 39 31 0c-1,-5 -4,-11 -7,-19 -4,-9 -7,-16 -9,-20zm112 -28c29,32 52,58 71,78 0,-4 0,-7 0,-8l1 -35c0,-9 -1,-15 -2,-18 -1,-4 -3,-7 -6,-9 -3,-2 -7,-3 -11,-3 -2,-1 -3,-2 -3,-3 0,-2 1,-3 3,-3 1,0 3,0 4,1 4,0 9,0 15,0 8,0 15,0 19,0 2,-1 3,-1 4,-1 3,0 4,1 4,3 0,2 -2,3 -5,3 -4,0 -7,2 -10,5 -3,2 -5,8 -5,16l0 50 0 38c0,3 -1,5 -3,5 -1,0 -1,0 -2,-1 -1,0 -5,-4 -12,-12 -8,-8 -19,-20 -34,-36 -14,-17 -25,-29 -31,-36 0,2 0,17 0,45 0,9 1,15 1,20 1,5 3,9 7,11 4,2 8,3 11,3 2,0 3,1 3,3 0,1 -1,2 -3,2 -2,0 -3,0 -5,0 -4,0 -8,-1 -14,-1 -9,0 -15,1 -19,1 -3,1 -4,1 -6,1 -2,0 -3,-1 -3,-3 0,-2 2,-2 6,-3 6,0 11,-3 12,-7 2,-4 3,-9 3,-16 0,-31 0,-50 -1,-57 0,-6 -2,-13 -6,-18 -4,-6 -9,-9 -15,-10 -2,0 -3,-1 -3,-3 0,-2 1,-3 4,-3 0,0 1,0 2,1 2,0 4,0 8,0 7,0 15,0 21,0zm109 -1c31,1 53,1 68,1 11,0 24,0 37,-1 5,0 9,0 12,0 1,0 3,0 6,0 0,3 1,8 1,15l2 14c0,2 -1,4 -3,4 -1,0 -3,-2 -4,-5 -3,-4 -5,-9 -9,-12 -3,-3 -8,-6 -12,-7 -5,-1 -13,-2 -23,-2 -1,10 -2,21 -2,35 0,14 0,27 1,40 1,13 1,21 2,24 1,2 2,4 4,5 2,2 6,3 13,3 2,0 3,1 3,2 0,2 -1,3 -3,3l-2 0 -19 -1c-14,0 -23,0 -26,1l-11 0c-1,0 -3,0 -5,0 -2,-1 -3,-1 -3,-2 0,-2 2,-3 4,-3 5,0 9,-1 12,-3 2,-2 4,-6 5,-11 0,-5 1,-15 1,-31 0,-25 -1,-46 -3,-62 -9,0 -17,1 -21,2 -4,0 -8,3 -12,6 -4,4 -8,8 -10,14 -1,2 -2,3 -4,3 -2,0 -3,0 -3,-2 0,-1 1,-5 1,-12 1,-7 2,-13 3,-18zm202 5c1,-1 2,-2 3,-3 1,-2 2,-3 3,-3 1,0 2,1 3,4l3 24 0 3c0,2 -1,2 -2,2 -1,0 -2,0 -3,0 0,-1 -1,-3 -3,-6 -2,-5 -7,-10 -13,-14 -5,-4 -11,-7 -17,-7 -6,0 -11,2 -15,5 -3,4 -5,8 -5,13 0,4 1,7 5,11 4,3 10,6 21,9 16,4 26,10 32,16 6,7 8,14 8,23 0,8 -2,15 -6,20 -4,6 -9,11 -14,14 -6,3 -13,5 -22,5 -5,0 -11,-1 -16,-3 -5,-1 -11,-3 -17,-6 -1,1 -2,3 -3,5 -1,3 -2,4 -3,4 -2,0 -3,-2 -3,-5l-3 -32c0,-2 0,-3 0,-3 0,-2 1,-2 3,-2 1,0 2,1 4,4 3,9 8,16 14,22 7,6 14,9 22,9 7,0 13,-2 17,-6 4,-4 6,-9 6,-14 0,-6 -2,-10 -6,-14 -4,-3 -11,-7 -21,-10 -10,-3 -18,-6 -22,-9 -5,-3 -9,-7 -12,-13 -3,-5 -5,-10 -5,-15 0,-10 4,-18 11,-24 7,-7 17,-10 30,-10 6,0 15,2 26,6z"/>
   <polygon class="fil5" points="5616,817 5358,814 5100,810 5100,817 5100,825 5358,821 "/>
   <polygon class="fil5" points="1885,817 2143,814 2401,810 2401,817 2401,825 2143,821 "/>
  </g>
 </g>
</svg>
